<?xml version="1.0" encoding="utf-8"?>
<!-- Generator: Adobe Illustrator 26.1.0, SVG Export Plug-In . SVG Version: 6.00 Build 0)  -->
<svg version="1.1" id="Layer_1" xmlns="http://www.w3.org/2000/svg" xmlns:xlink="http://www.w3.org/1999/xlink" x="0px" y="0px"
	 viewBox="0 0 443.5 384.4" style="enable-background:new 0 0 443.5 384.4;" xml:space="preserve">
<style type="text/css">
	.st0{fill:#EAEAEA;}
	.st1{fill:#14857A;}
	.st2{enable-background:new    ;}
	.st3{fill:#FFFFFF;}
	.st4{fill:#FFFFFF;stroke:#DBDBDB;stroke-width:1.3393;stroke-miterlimit:10;}
	.st5{fill:#FFFFFF;stroke:#14857A;stroke-width:1.8673;stroke-miterlimit:10;}
	.st6{fill:#14857A;stroke:#FFFFFF;stroke-width:1.9132;stroke-miterlimit:10;}
</style>
<g>
	<g>
		<g>
			<path class="st0" d="M426.1,143.1H25.7c-5.7,0-10.5-4.6-10.5-10.5V47.2c0-5.7,4.6-10.5,10.5-10.5h400.4c5.7,0,10.5,4.6,10.5,10.5
				v85.3C436.4,138.5,431.8,143.1,426.1,143.1z"/>
			<g>
				<g>
					<path class="st1" d="M132.2,135H34.5c-3.3,0-5.7-2.5-5.7-5.7v-15.9c0-3.3,2.5-5.7,5.7-5.7h97.8c3.3,0,5.7,2.5,5.7,5.7v15.9
						C138,132.5,135.3,135,132.2,135z"/>
					<g class="st2">
						<path class="st3" d="M61.7,121.4l1,0.3c-0.2,0.9-0.6,1.5-1.2,2c-0.6,0.4-1.3,0.7-2.1,0.7c-0.8,0-1.5-0.2-2.1-0.5
							s-0.9-0.8-1.2-1.5s-0.4-1.4-0.4-2.1c0-0.8,0.2-1.5,0.5-2.1c0.3-0.6,0.8-1.1,1.3-1.4c0.6-0.3,1.2-0.5,1.9-0.5
							c0.8,0,1.4,0.2,2,0.6c0.5,0.4,0.9,1,1.1,1.7l-1,0.2c-0.2-0.6-0.4-1-0.8-1.2c-0.3-0.3-0.8-0.4-1.3-0.4c-0.6,0-1.1,0.1-1.5,0.4
							c-0.4,0.3-0.7,0.7-0.9,1.2s-0.2,1-0.2,1.5c0,0.7,0.1,1.2,0.3,1.7s0.5,0.9,0.9,1.1s0.9,0.4,1.3,0.4c0.6,0,1.1-0.2,1.5-0.5
							C61.2,122.6,61.5,122.1,61.7,121.4z"/>
						<path class="st3" d="M63.9,124.1v-7.8h1v2.8c0.4-0.5,1-0.8,1.7-0.8c0.4,0,0.8,0.1,1.1,0.2c0.3,0.2,0.5,0.4,0.7,0.7
							s0.2,0.7,0.2,1.3v3.6h-1v-3.6c0-0.5-0.1-0.8-0.3-1.1c-0.2-0.2-0.5-0.3-0.9-0.3c-0.3,0-0.6,0.1-0.8,0.2s-0.4,0.3-0.5,0.6
							c-0.1,0.3-0.2,0.6-0.2,1v3.1H63.9z"/>
						<path class="st3" d="M73.8,122.3l1,0.1c-0.2,0.6-0.4,1-0.9,1.4c-0.4,0.3-1,0.5-1.6,0.5c-0.8,0-1.5-0.3-2-0.8s-0.7-1.2-0.7-2.2
							c0-1,0.2-1.7,0.7-2.2c0.5-0.5,1.1-0.8,1.9-0.8c0.8,0,1.4,0.3,1.9,0.8s0.7,1.2,0.7,2.2c0,0.1,0,0.1,0,0.3h-4.2
							c0,0.6,0.2,1.1,0.5,1.4c0.3,0.3,0.7,0.5,1.2,0.5c0.4,0,0.7-0.1,0.9-0.3C73.5,123,73.7,122.7,73.8,122.3z M70.7,120.8h3.2
							c0-0.5-0.2-0.8-0.4-1.1c-0.3-0.4-0.7-0.6-1.2-0.6c-0.4,0-0.8,0.1-1.1,0.4C70.9,119.9,70.7,120.3,70.7,120.8z"/>
						<path class="st3" d="M79.7,122.1l0.9,0.1c-0.1,0.7-0.4,1.2-0.8,1.5c-0.4,0.4-0.9,0.6-1.6,0.6c-0.8,0-1.4-0.3-1.9-0.8
							s-0.7-1.2-0.7-2.2c0-0.6,0.1-1.2,0.3-1.6c0.2-0.5,0.5-0.8,0.9-1c0.4-0.2,0.9-0.3,1.4-0.3c0.6,0,1.1,0.2,1.5,0.5
							c0.4,0.3,0.6,0.8,0.8,1.3l-0.9,0.1c-0.1-0.4-0.2-0.7-0.5-0.9c-0.2-0.2-0.5-0.3-0.8-0.3c-0.5,0-0.9,0.2-1.2,0.5
							s-0.5,0.9-0.5,1.7c0,0.8,0.1,1.3,0.4,1.7c0.3,0.3,0.7,0.5,1.1,0.5c0.4,0,0.7-0.1,0.9-0.3S79.7,122.5,79.7,122.1z"/>
						<path class="st3" d="M81.5,124.1v-7.8h1v4.5l2.3-2.3H86l-2.2,2.1l2.4,3.6H85l-1.9-2.9l-0.7,0.7v2.3H81.5z"/>
						<path class="st3" d="M90.3,124.1v-7.8h1v7.8H90.3z"/>
						<path class="st3" d="M93.1,124.1v-5.7H94v0.8c0.4-0.6,1-0.9,1.8-0.9c0.3,0,0.7,0.1,0.9,0.2c0.3,0.1,0.5,0.3,0.6,0.5
							c0.1,0.2,0.2,0.4,0.3,0.7c0,0.2,0.1,0.5,0.1,0.9v3.5h-1v-3.5c0-0.4,0-0.7-0.1-0.9c-0.1-0.2-0.2-0.3-0.4-0.5
							c-0.2-0.1-0.4-0.2-0.7-0.2c-0.4,0-0.8,0.1-1.1,0.4S94,120.3,94,121v3.1H93.1z"/>
						<path class="st3" d="M100.1,124.1h-0.9v-7.8h1v2.8c0.4-0.5,0.9-0.8,1.6-0.8c0.3,0,0.7,0.1,1,0.2c0.3,0.1,0.6,0.3,0.8,0.6
							s0.4,0.6,0.5,0.9s0.2,0.7,0.2,1.2c0,1-0.2,1.7-0.7,2.3c-0.5,0.5-1.1,0.8-1.7,0.8c-0.7,0-1.2-0.3-1.6-0.8V124.1z M100.1,121.3
							c0,0.7,0.1,1.2,0.3,1.5c0.3,0.5,0.7,0.7,1.2,0.7c0.4,0,0.8-0.2,1.1-0.5c0.3-0.4,0.5-0.9,0.5-1.6c0-0.7-0.1-1.3-0.4-1.6
							c-0.3-0.4-0.6-0.5-1.1-0.5c-0.4,0-0.8,0.2-1.1,0.5C100.2,120,100.1,120.6,100.1,121.3z"/>
						<path class="st3" d="M104.9,121.3c0-1.1,0.3-1.8,0.9-2.3c0.5-0.4,1.1-0.6,1.8-0.6c0.8,0,1.4,0.3,1.9,0.8s0.7,1.2,0.7,2.1
							c0,0.7-0.1,1.3-0.3,1.7c-0.2,0.4-0.5,0.7-1,1s-0.9,0.3-1.4,0.3c-0.8,0-1.4-0.3-1.9-0.8C105.2,123,104.9,122.3,104.9,121.3z
							 M105.9,121.3c0,0.7,0.2,1.3,0.5,1.6c0.3,0.4,0.7,0.5,1.2,0.5c0.5,0,0.9-0.2,1.2-0.5s0.5-0.9,0.5-1.7c0-0.7-0.2-1.2-0.5-1.6
							c-0.3-0.4-0.7-0.5-1.2-0.5c-0.5,0-0.9,0.2-1.2,0.5S105.9,120.6,105.9,121.3z"/>
						<path class="st3" d="M110.7,124.1l2.1-3l-1.9-2.7h1.2l0.9,1.3c0.2,0.3,0.3,0.5,0.4,0.6c0.2-0.2,0.3-0.4,0.4-0.6l1-1.3h1.2
							l-2,2.7l2.1,3h-1.2l-1.2-1.8l-0.3-0.5l-1.5,2.2H110.7z"/>
					</g>
				</g>
				<g>
					<path class="st4" d="M228.1,135h-67.5c-2.7,0-4.8-2.1-4.8-4.8v-17.8c0-2.7,2.1-4.8,4.8-4.8h67.5c2.7,0,4.8,2.1,4.8,4.8v17.8
						C232.9,132.9,230.8,135,228.1,135z"/>
					<g class="st2">
						<path d="M182,123.8c0.5,0.3,0.9,0.6,1.3,0.7l-0.3,0.7c-0.6-0.2-1.1-0.5-1.7-1c-0.6,0.3-1.2,0.5-1.9,0.5
							c-0.7,0-1.4-0.2-1.9-0.5c-0.6-0.3-1-0.8-1.3-1.4s-0.5-1.3-0.5-2.1c0-0.8,0.2-1.5,0.5-2.1c0.3-0.6,0.8-1.1,1.3-1.5
							c0.6-0.3,1.2-0.5,1.9-0.5c0.7,0,1.4,0.2,2,0.5s1,0.8,1.3,1.4c0.3,0.6,0.5,1.3,0.5,2.1c0,0.6-0.1,1.2-0.3,1.7
							C182.7,123,182.4,123.4,182,123.8z M179.7,122.5c0.6,0.2,1.1,0.4,1.5,0.7c0.6-0.6,0.9-1.4,0.9-2.5c0-0.6-0.1-1.2-0.3-1.7
							c-0.2-0.5-0.5-0.8-0.9-1.1c-0.4-0.3-0.9-0.4-1.4-0.4c-0.8,0-1.4,0.3-1.9,0.8c-0.5,0.5-0.8,1.3-0.8,2.4c0,1,0.3,1.8,0.8,2.3
							c0.5,0.5,1.1,0.8,1.9,0.8c0.4,0,0.7-0.1,1-0.2c-0.3-0.2-0.7-0.4-1-0.4L179.7,122.5z"/>
						<path d="M184.6,124.6v-7.8h3.5c0.7,0,1.2,0.1,1.6,0.2c0.4,0.1,0.7,0.4,0.9,0.7c0.2,0.4,0.3,0.8,0.3,1.2c0,0.6-0.2,1-0.5,1.4
							c-0.4,0.4-0.9,0.6-1.7,0.7c0.3,0.1,0.5,0.3,0.6,0.4c0.3,0.3,0.6,0.6,0.9,1l1.4,2.1h-1.3l-1-1.6c-0.3-0.5-0.6-0.8-0.7-1.1
							s-0.4-0.4-0.5-0.5c-0.2-0.1-0.3-0.2-0.5-0.2c-0.1,0-0.3,0-0.6,0h-1.2v3.5H184.6z M185.6,120.3h2.2c0.5,0,0.8,0,1.1-0.1
							s0.5-0.3,0.6-0.5s0.2-0.5,0.2-0.7c0-0.4-0.1-0.7-0.4-0.9c-0.3-0.2-0.7-0.4-1.3-0.4h-2.5V120.3z"/>
						<path d="M199.1,122.6l0.9,0.1c-0.1,0.7-0.4,1.2-0.8,1.5c-0.4,0.4-0.9,0.6-1.6,0.6c-0.8,0-1.4-0.3-1.9-0.8s-0.7-1.2-0.7-2.2
							c0-0.6,0.1-1.2,0.3-1.6c0.2-0.5,0.5-0.8,0.9-1c0.4-0.2,0.9-0.3,1.4-0.3c0.6,0,1.1,0.2,1.5,0.5c0.4,0.3,0.6,0.8,0.8,1.3
							l-0.9,0.1c-0.1-0.4-0.2-0.7-0.5-0.9c-0.2-0.2-0.5-0.3-0.8-0.3c-0.5,0-0.9,0.2-1.2,0.5s-0.5,0.9-0.5,1.7c0,0.8,0.1,1.3,0.4,1.7
							c0.3,0.3,0.7,0.5,1.1,0.5c0.4,0,0.7-0.1,0.9-0.3S199,123,199.1,122.6z"/>
						<path d="M200.5,121.8c0-1.1,0.3-1.8,0.9-2.3c0.5-0.4,1.1-0.6,1.8-0.6c0.8,0,1.4,0.3,1.9,0.8s0.7,1.2,0.7,2.1
							c0,0.7-0.1,1.3-0.3,1.7c-0.2,0.4-0.5,0.7-1,1s-0.9,0.3-1.4,0.3c-0.8,0-1.4-0.3-1.9-0.8C200.7,123.5,200.5,122.8,200.5,121.8z
							 M201.5,121.8c0,0.7,0.2,1.3,0.5,1.6c0.3,0.4,0.7,0.5,1.2,0.5c0.5,0,0.9-0.2,1.2-0.5s0.5-0.9,0.5-1.7c0-0.7-0.2-1.2-0.5-1.6
							c-0.3-0.4-0.7-0.5-1.2-0.5c-0.5,0-0.9,0.2-1.2,0.5S201.5,121.1,201.5,121.8z"/>
						<path d="M210.6,124.6v-0.7c-0.4,0.6-0.9,0.8-1.6,0.8c-0.5,0-0.9-0.1-1.2-0.4s-0.7-0.6-0.9-1s-0.3-1-0.3-1.5
							c0-0.6,0.1-1.1,0.3-1.5c0.2-0.5,0.5-0.8,0.9-1.1c0.4-0.2,0.8-0.4,1.3-0.4c0.3,0,0.6,0.1,0.9,0.2c0.3,0.1,0.5,0.3,0.7,0.6v-2.8
							h1v7.8H210.6z M207.6,121.8c0,0.7,0.2,1.3,0.5,1.6s0.7,0.5,1.1,0.5c0.4,0,0.8-0.2,1.1-0.5c0.3-0.3,0.4-0.9,0.4-1.6
							c0-0.8-0.1-1.3-0.4-1.7s-0.7-0.5-1.1-0.5c-0.4,0-0.8,0.2-1.1,0.5S207.6,121,207.6,121.8z"/>
						<path d="M216.9,122.8l1,0.1c-0.2,0.6-0.4,1-0.9,1.4c-0.4,0.3-1,0.5-1.6,0.5c-0.8,0-1.5-0.3-2-0.8s-0.7-1.2-0.7-2.2
							c0-1,0.2-1.7,0.7-2.2c0.5-0.5,1.1-0.8,1.9-0.8c0.8,0,1.4,0.3,1.9,0.8s0.7,1.2,0.7,2.2c0,0.1,0,0.1,0,0.3h-4.2
							c0,0.6,0.2,1.1,0.5,1.4c0.3,0.3,0.7,0.5,1.2,0.5c0.4,0,0.7-0.1,0.9-0.3C216.6,123.5,216.8,123.2,216.9,122.8z M213.8,121.2
							h3.2c0-0.5-0.2-0.8-0.4-1.1c-0.3-0.4-0.7-0.6-1.2-0.6c-0.4,0-0.8,0.1-1.1,0.4C214,120.4,213.8,120.8,213.8,121.2z"/>
					</g>
				</g>
				<g>
					<path class="st4" d="M323,135h-67.5c-2.7,0-4.8-2.1-4.8-4.8v-17.8c0-2.7,2.1-4.8,4.8-4.8H323c2.7,0,4.8,2.1,4.8,4.8v17.8
						C328,132.9,325.7,135,323,135z"/>
					<g class="st2">
						<path d="M272.8,121.6v-0.9l3.3,0v2.9c-0.5,0.4-1,0.7-1.6,0.9s-1.1,0.3-1.7,0.3c-0.8,0-1.5-0.2-2.1-0.5
							c-0.6-0.3-1.1-0.8-1.4-1.4c-0.3-0.6-0.5-1.3-0.5-2.1c0-0.8,0.2-1.5,0.5-2.1c0.3-0.7,0.8-1.2,1.4-1.5c0.6-0.3,1.3-0.5,2.1-0.5
							c0.6,0,1.1,0.1,1.5,0.3c0.5,0.2,0.8,0.4,1.1,0.8c0.3,0.3,0.5,0.8,0.6,1.3l-0.9,0.3c-0.1-0.4-0.3-0.7-0.4-0.9
							c-0.2-0.2-0.4-0.4-0.7-0.5c-0.3-0.1-0.7-0.2-1.1-0.2c-0.5,0-0.9,0.1-1.2,0.2c-0.3,0.1-0.6,0.3-0.8,0.6
							c-0.2,0.2-0.4,0.5-0.5,0.8c-0.2,0.5-0.3,1-0.3,1.6c0,0.7,0.1,1.3,0.4,1.8c0.2,0.5,0.6,0.8,1.1,1c0.5,0.2,0.9,0.3,1.5,0.3
							c0.4,0,0.9-0.1,1.3-0.3s0.8-0.4,1-0.6v-1.5H272.8z"/>
						<path d="M281.4,122.8l1,0.1c-0.2,0.6-0.4,1-0.9,1.4c-0.4,0.3-1,0.5-1.6,0.5c-0.8,0-1.5-0.3-2-0.8c-0.5-0.5-0.7-1.2-0.7-2.2
							c0-1,0.2-1.7,0.7-2.2c0.5-0.5,1.1-0.8,1.9-0.8c0.8,0,1.4,0.3,1.9,0.8s0.7,1.2,0.7,2.2c0,0.1,0,0.1,0,0.3h-4.2
							c0,0.6,0.2,1.1,0.5,1.4c0.3,0.3,0.7,0.5,1.2,0.5c0.4,0,0.7-0.1,0.9-0.3C281.1,123.5,281.3,123.2,281.4,122.8z M278.3,121.2
							h3.2c0-0.5-0.2-0.8-0.4-1.1c-0.3-0.4-0.7-0.6-1.2-0.6c-0.4,0-0.8,0.1-1.1,0.4C278.5,120.4,278.3,120.8,278.3,121.2z"/>
						<path d="M283.6,124.6V119h0.9v0.8c0.4-0.6,1-0.9,1.8-0.9c0.3,0,0.7,0.1,0.9,0.2s0.5,0.3,0.6,0.5c0.1,0.2,0.2,0.4,0.3,0.7
							c0,0.2,0.1,0.5,0.1,0.9v3.5h-1v-3.5c0-0.4,0-0.7-0.1-0.9c-0.1-0.2-0.2-0.3-0.4-0.5c-0.2-0.1-0.4-0.2-0.7-0.2
							c-0.4,0-0.8,0.1-1.1,0.4s-0.4,0.8-0.4,1.5v3.1H283.6z"/>
						<path d="M293.6,122.8l1,0.1c-0.2,0.6-0.4,1-0.9,1.4c-0.4,0.3-1,0.5-1.6,0.5c-0.8,0-1.5-0.3-2-0.8c-0.5-0.5-0.7-1.2-0.7-2.2
							c0-1,0.2-1.7,0.7-2.2c0.5-0.5,1.1-0.8,1.9-0.8c0.8,0,1.4,0.3,1.9,0.8s0.7,1.2,0.7,2.2c0,0.1,0,0.1,0,0.3h-4.2
							c0,0.6,0.2,1.1,0.5,1.4c0.3,0.3,0.7,0.5,1.2,0.5c0.4,0,0.7-0.1,0.9-0.3C293.3,123.5,293.5,123.2,293.6,122.8z M290.4,121.2
							h3.2c0-0.5-0.2-0.8-0.4-1.1c-0.3-0.4-0.7-0.6-1.2-0.6c-0.4,0-0.8,0.1-1.1,0.4C290.6,120.4,290.5,120.8,290.4,121.2z"/>
						<path d="M295.8,124.6V119h0.9v0.9c0.2-0.4,0.4-0.7,0.6-0.8c0.2-0.1,0.4-0.2,0.6-0.2c0.3,0,0.7,0.1,1,0.3l-0.3,0.9
							c-0.2-0.1-0.5-0.2-0.7-0.2c-0.2,0-0.4,0.1-0.6,0.2s-0.3,0.3-0.4,0.5c-0.1,0.3-0.2,0.7-0.2,1.1v3H295.8z"/>
						<path d="M303.2,123.9c-0.4,0.3-0.7,0.5-1,0.6c-0.3,0.1-0.7,0.2-1.1,0.2c-0.6,0-1.1-0.2-1.4-0.5c-0.3-0.3-0.5-0.7-0.5-1.2
							c0-0.3,0.1-0.5,0.2-0.8c0.1-0.2,0.3-0.4,0.5-0.6s0.4-0.2,0.7-0.3c0.2,0,0.5-0.1,0.9-0.1c0.8-0.1,1.4-0.2,1.7-0.3
							c0-0.1,0-0.2,0-0.3c0-0.4-0.1-0.7-0.3-0.8c-0.2-0.2-0.6-0.3-1.1-0.3c-0.5,0-0.8,0.1-1,0.2s-0.4,0.4-0.5,0.8l-0.9-0.1
							c0.1-0.4,0.2-0.7,0.4-1s0.5-0.4,0.9-0.6s0.8-0.2,1.3-0.2c0.5,0,0.9,0.1,1.2,0.2c0.3,0.1,0.5,0.3,0.7,0.4
							c0.1,0.2,0.2,0.4,0.3,0.7c0,0.2,0,0.5,0,0.9v1.3c0,0.9,0,1.5,0.1,1.7s0.1,0.5,0.2,0.7h-1C303.3,124.4,303.2,124.2,303.2,123.9
							z M303.1,121.8c-0.3,0.1-0.9,0.3-1.6,0.4c-0.4,0.1-0.7,0.1-0.8,0.2c-0.2,0.1-0.3,0.2-0.4,0.3c-0.1,0.1-0.1,0.3-0.1,0.5
							c0,0.3,0.1,0.5,0.3,0.6s0.5,0.3,0.9,0.3c0.4,0,0.7-0.1,1-0.2c0.3-0.2,0.5-0.4,0.6-0.7c0.1-0.2,0.2-0.5,0.2-1V121.8z"/>
						<path d="M307.7,123.8l0.1,0.9c-0.3,0.1-0.5,0.1-0.7,0.1c-0.3,0-0.6-0.1-0.8-0.2c-0.2-0.1-0.3-0.3-0.4-0.4s-0.1-0.6-0.1-1.1
							v-3.3H305V119h0.7v-1.4l1-0.6v2h1v0.7h-1v3.3c0,0.3,0,0.5,0.1,0.5c0,0.1,0.1,0.1,0.2,0.2c0.1,0,0.2,0.1,0.3,0.1
							C307.3,123.8,307.5,123.8,307.7,123.8z"/>
						<path d="M312.5,122.8l1,0.1c-0.2,0.6-0.4,1-0.9,1.4c-0.4,0.3-1,0.5-1.6,0.5c-0.8,0-1.5-0.3-2-0.8c-0.5-0.5-0.7-1.2-0.7-2.2
							c0-1,0.2-1.7,0.7-2.2c0.5-0.5,1.1-0.8,1.9-0.8c0.8,0,1.4,0.3,1.9,0.8s0.7,1.2,0.7,2.2c0,0.1,0,0.1,0,0.3h-4.2
							c0,0.6,0.2,1.1,0.5,1.4c0.3,0.3,0.7,0.5,1.2,0.5c0.4,0,0.7-0.1,0.9-0.3C312.1,123.5,312.3,123.2,312.5,122.8z M309.3,121.2
							h3.2c0-0.5-0.2-0.8-0.4-1.1c-0.3-0.4-0.7-0.6-1.2-0.6c-0.4,0-0.8,0.1-1.1,0.4C309.5,120.4,309.4,120.8,309.3,121.2z"/>
					</g>
				</g>
				<g>
					<path class="st4" d="M418.1,135h-67.5c-2.7,0-4.8-2.1-4.8-4.8v-17.8c0-2.7,2.1-4.8,4.8-4.8h67.5c2.7,0,4.8,2.1,4.8,4.8v17.8
						C422.8,132.9,420.7,135,418.1,135z"/>
					<g class="st2">
						<path d="M378.9,121.9l1,0.3c-0.2,0.9-0.6,1.5-1.2,2s-1.3,0.7-2.1,0.7c-0.8,0-1.5-0.2-2.1-0.5c-0.5-0.3-0.9-0.8-1.2-1.5
							s-0.4-1.4-0.4-2.1c0-0.8,0.2-1.5,0.5-2.1c0.3-0.6,0.8-1.1,1.3-1.4s1.2-0.5,1.9-0.5c0.8,0,1.4,0.2,2,0.6c0.5,0.4,0.9,1,1.1,1.7
							l-1,0.2c-0.2-0.6-0.4-1-0.8-1.2c-0.3-0.3-0.8-0.4-1.3-0.4c-0.6,0-1.1,0.1-1.5,0.4c-0.4,0.3-0.7,0.7-0.9,1.2s-0.2,1-0.2,1.5
							c0,0.7,0.1,1.2,0.3,1.7s0.5,0.9,0.9,1.1s0.9,0.4,1.3,0.4c0.6,0,1.1-0.2,1.5-0.5C378.5,123,378.8,122.5,378.9,121.9z"/>
						<path d="M380.7,121.8c0-1.1,0.3-1.8,0.9-2.3c0.5-0.4,1.1-0.6,1.8-0.6c0.8,0,1.4,0.3,1.9,0.8s0.7,1.2,0.7,2.1
							c0,0.7-0.1,1.3-0.3,1.7c-0.2,0.4-0.5,0.7-1,1s-0.9,0.3-1.4,0.3c-0.8,0-1.4-0.3-1.9-0.8C381,123.5,380.7,122.8,380.7,121.8z
							 M381.7,121.8c0,0.7,0.2,1.3,0.5,1.6c0.3,0.4,0.7,0.5,1.2,0.5c0.5,0,0.9-0.2,1.2-0.5c0.3-0.4,0.5-0.9,0.5-1.7
							c0-0.7-0.2-1.2-0.5-1.6c-0.3-0.4-0.7-0.5-1.2-0.5c-0.5,0-0.9,0.2-1.2,0.5S381.7,121.1,381.7,121.8z"/>
						<path d="M387.2,126.8V119h0.9v0.7c0.2-0.3,0.4-0.5,0.7-0.6c0.3-0.1,0.6-0.2,0.9-0.2c0.5,0,0.9,0.1,1.3,0.4s0.7,0.6,0.8,1.1
							c0.2,0.5,0.3,1,0.3,1.5c0,0.6-0.1,1.1-0.3,1.6c-0.2,0.5-0.5,0.8-0.9,1.1c-0.4,0.2-0.8,0.4-1.3,0.4c-0.3,0-0.6-0.1-0.9-0.2
							c-0.3-0.1-0.5-0.3-0.6-0.5v2.8H387.2z M388.1,121.8c0,0.7,0.1,1.3,0.4,1.6s0.7,0.5,1.1,0.5c0.4,0,0.8-0.2,1.1-0.5
							c0.3-0.4,0.5-0.9,0.5-1.7c0-0.7-0.1-1.3-0.4-1.6c-0.3-0.4-0.7-0.5-1.1-0.5c-0.4,0-0.8,0.2-1.1,0.6
							C388.2,120.5,388.1,121.1,388.1,121.8z"/>
						<path d="M393.3,126.8l-0.1-0.9c0.2,0.1,0.4,0.1,0.6,0.1c0.2,0,0.4,0,0.5-0.1c0.1-0.1,0.2-0.2,0.3-0.3c0.1-0.1,0.2-0.3,0.3-0.7
							c0-0.1,0-0.1,0.1-0.2l-2.2-5.7h1l1.2,3.3c0.2,0.4,0.3,0.9,0.4,1.3c0.1-0.4,0.2-0.9,0.4-1.3l1.2-3.3h1l-2.2,5.8
							c-0.2,0.6-0.4,1.1-0.5,1.3c-0.2,0.3-0.4,0.6-0.6,0.7s-0.5,0.2-0.8,0.2C393.7,126.9,393.5,126.9,393.3,126.8z"/>
					</g>
				</g>
			</g>
			<g>
				<g>
					<path d="M29.9,48.7H27v2.7h3.3v0.8H26v-7.5h4v0.8H27v2.3h2.9V48.7z"/>
					<path d="M31.4,48.4c0-0.6,0-1,0-1.3h0.8v1l0,0c0.2-0.6,1-1,1.7-1c0.8,0,1.9,0.4,1.9,2.3v3.3h-1v-3.1c0-0.8-0.4-1.5-1.1-1.5
						c-0.6,0-1.1,0.4-1.3,1c0,0.2,0,0.2,0,0.4v3.3h-1L31.4,48.4L31.4,48.4z"/>
					<path d="M38.5,45.3v1.5h1.3v0.8h-1.3v2.9c0,0.6,0.2,1,0.8,1c0.2,0,0.4,0,0.6,0v0.8c-0.2,0-0.6,0.2-0.8,0.2
						c-0.4,0-0.8-0.2-1-0.4c-0.2-0.2-0.4-0.8-0.4-1.3v-2.9H37V47h0.8v-1.3L38.5,45.3z"/>
					<path d="M41.5,49.7c0,1.3,0.8,1.9,1.7,1.9c0.8,0,1.1-0.2,1.5-0.2l0.2,0.8c-0.4,0.2-1,0.4-1.7,0.4c-1.7,0-2.7-1.1-2.7-2.7
						s1-2.9,2.5-2.9c1.7,0,2.1,1.5,2.1,2.5c0,0.2,0,0.4,0,0.4h-3.6V49.7z M44.2,49.1c0-0.6-0.2-1.5-1.3-1.5c-1,0-1.3,1-1.5,1.5H44.2
						z"/>
					<path d="M46.5,48.5c0-0.6,0-1.1,0-1.7h0.8v1l0,0c0.2-0.8,0.8-1.1,1.5-1.1c0.2,0,0.2,0,0.2,0v1c-0.2,0-0.2,0-0.4,0
						c-0.8,0-1.1,0.6-1.3,1.1c0,0.2,0,0.2,0,0.4V52h-1v-3.4H46.5z"/>
					<path d="M52.8,49.7c0,1.3,0.8,1.9,1.7,1.9c0.8,0,1.1-0.2,1.5-0.2l0.2,0.8c-0.4,0.2-1,0.4-1.7,0.4c-1.7,0-2.7-1.1-2.7-2.7
						s1-2.9,2.5-2.9c1.7,0,2.1,1.5,2.1,2.5c0,0.2,0,0.4,0,0.4h-3.6V49.7z M55.7,49.1c0-0.6-0.2-1.5-1.3-1.5c-1,0-1.3,1-1.5,1.5H55.7
						z"/>
					<path d="M57.8,48.4c0-0.6,0-1,0-1.3h0.8v0.8l0,0c0.4-0.6,0.8-1,1.7-1c0.8,0,1.3,0.4,1.5,1.1l0,0c0.2-0.4,0.4-0.6,0.6-0.8
						c0.4-0.2,0.6-0.4,1.1-0.4c0.8,0,1.7,0.4,1.7,2.3v3.1h-1v-3.1c0-1-0.4-1.7-1.1-1.7c-0.6,0-1,0.4-1.1,1c0,0.2,0,0.4,0,0.6v3.3h-1
						v-3.3c0-0.8-0.4-1.5-1.1-1.5c-0.6,0-1,0.6-1.1,1c0,0.2,0,0.4,0,0.4V52h-1L57.8,48.4L57.8,48.4z"/>
					<path d="M69.9,52.2v-0.6l0,0c-0.4,0.4-1,0.8-1.5,0.8c-1.1,0-1.5-0.8-1.5-1.5c0-1.3,1.1-1.9,3.3-1.9v-0.2c0-0.4-0.2-1.1-1.1-1.1
						c-0.6,0-1,0.2-1.3,0.4l-0.2-0.6c0.4-0.2,1.1-0.4,1.7-0.4c1.5,0,2.1,1.1,2.1,2.1V51c0,0.4,0,1,0,1.3h-1.3V52.2z M69.9,49.5
						c-1,0-2.3,0.2-2.3,1.1c0,0.6,0.4,1,1,1c0.8,0,1.1-0.4,1.3-1c0-0.2,0-0.2,0-0.4V49.5z"/>
					<path d="M73.3,45.5c0,0.4-0.2,0.6-0.6,0.6c-0.4,0-0.6-0.2-0.6-0.6c0-0.4,0.2-0.6,0.6-0.6C73.1,44.7,73.3,45.1,73.3,45.5z
						 M72.3,52.2v-5.4h1v5.4H72.3z"/>
					<path d="M74.8,44.3h1v7.8h-1V44.3z"/>
					<path d="M84.6,49.5c0,1.9-1.3,2.9-2.7,2.9s-2.5-1-2.5-2.7s1.1-2.9,2.7-2.9C83.4,46.8,84.6,48,84.6,49.5z M80.4,49.5
						c0,1.1,0.6,2.1,1.5,2.1c1,0,1.5-1,1.5-2.1c0-1-0.4-2.1-1.5-2.1C80.8,47.6,80.4,48.5,80.4,49.5z"/>
					<path d="M85.9,52.2v-4.6h-0.8v-0.8h0.8v-0.2c0-0.8,0.2-1.3,0.6-1.9c0.4-0.4,0.8-0.6,1.3-0.6c0.4,0,0.6,0,0.8,0.2l-0.2,0.8
						c-0.2,0-0.4-0.2-0.6-0.2c-0.8,0-1,0.8-1,1.5v0.2h1.3v0.8h-1.3V52h-1V52.2z"/>
					<path d="M91.7,46.8l1.1,3.1c0.2,0.4,0.2,0.8,0.4,1.1l0,0c0.2-0.4,0.2-0.8,0.4-1.1l1-3.1h1L94,50.7c-0.8,1.7-1.1,2.7-1.9,3.3
						c-0.4,0.4-1,0.6-1.1,0.6l-0.2-0.8c0.2,0,0.6-0.2,0.8-0.4c0.2-0.2,0.6-0.6,0.8-1.1c0-0.2,0-0.2,0-0.2v-0.2l-1.9-5
						C90.3,46.8,91.7,46.8,91.7,46.8z"/>
					<path d="M101,49.5c0,1.9-1.3,2.9-2.7,2.9c-1.3,0-2.5-1-2.5-2.7s1.1-2.9,2.7-2.9C100.1,46.8,101,48,101,49.5z M96.8,49.5
						c0,1.1,0.6,2.1,1.5,2.1c1,0,1.5-1,1.5-2.1c0-1-0.4-2.1-1.5-2.1C97.4,47.6,96.8,48.5,96.8,49.5z"/>
					<path d="M106.8,50.8c0,0.6,0,1,0,1.5H106v-1l0,0c-0.2,0.4-0.8,1-1.7,1c-0.8,0-1.9-0.4-1.9-2.3V47h1v2.9c0,1,0.4,1.7,1.1,1.7
						c0.6,0,1.1-0.4,1.3-1c0-0.2,0-0.4,0-0.6v-3.3h1L106.8,50.8L106.8,50.8z"/>
					<path d="M108.3,48.5c0-0.6,0-1.1,0-1.7h0.8v1l0,0c0.2-0.8,0.8-1.1,1.5-1.1c0.2,0,0.2,0,0.2,0v1c-0.2,0-0.2,0-0.4,0
						c-0.8,0-1.1,0.6-1.3,1.1c0,0.2,0,0.2,0,0.4V52h-1v-3.4H108.3z"/>
					<path d="M118.1,52c-0.2,0.2-0.8,0.4-1.5,0.4c-1.5,0-2.7-1.1-2.7-2.7c0-1.7,1.1-2.9,2.9-2.9c0.6,0,1.1,0.2,1.3,0.2l-0.2,0.8
						c-0.2-0.2-0.6-0.2-1.1-0.2c-1.1,0-1.9,1-1.9,1.9c0,1.1,0.8,1.9,1.9,1.9c0.6,0,1-0.2,1.1-0.2L118.1,52z"/>
					<path d="M119.2,44.3h1v3.3l0,0c0.2-0.2,0.4-0.6,0.8-0.8c0.2-0.2,0.6-0.2,1-0.2c0.8,0,1.9,0.4,1.9,2.3V52h-1v-3.1
						c0-0.8-0.4-1.5-1.1-1.5c-0.6,0-1.1,0.4-1.3,1c0,0.2,0,0.2,0,0.4V52h-1v-7.7H119.2z"/>
					<path d="M130.1,49.5c0,1.9-1.3,2.9-2.7,2.9c-1.3,0-2.5-1-2.5-2.7s1.1-2.9,2.7-2.9C129,46.8,130.1,48,130.1,49.5z M125.9,49.5
						c0,1.1,0.6,2.1,1.5,2.1c1,0,1.5-1,1.5-2.1c0-1-0.4-2.1-1.5-2.1C126.3,47.6,125.9,48.5,125.9,49.5z"/>
					<path d="M132.4,45.5c0,0.4-0.2,0.6-0.6,0.6c-0.4,0-0.6-0.2-0.6-0.6c0-0.4,0.2-0.6,0.6-0.6C132,44.7,132.4,45.1,132.4,45.5z
						 M131.3,52.2v-5.4h1v5.4H131.3z"/>
					<path d="M137.6,52c-0.2,0.2-0.8,0.4-1.5,0.4c-1.5,0-2.7-1.1-2.7-2.7c0-1.7,1.1-2.9,2.9-2.9c0.6,0,1.1,0.2,1.3,0.2l-0.2,0.8
						c-0.2-0.2-0.6-0.2-1.1-0.2c-1.1,0-1.9,1-1.9,1.9c0,1.1,0.8,1.9,1.9,1.9c0.6,0,1-0.2,1.1-0.2L137.6,52z"/>
					<path d="M139.3,49.7c0,1.3,0.8,1.9,1.7,1.9c0.8,0,1.1-0.2,1.5-0.2l0.2,0.8c-0.4,0.2-1,0.4-1.7,0.4c-1.7,0-2.7-1.1-2.7-2.7
						s1-2.9,2.5-2.9c1.7,0,2.1,1.5,2.1,2.5c0,0.2,0,0.4,0,0.4h-3.6V49.7z M142,49.1c0-0.6-0.2-1.5-1.3-1.5c-1,0-1.3,1-1.5,1.5H142z"
						/>
				</g>
				<g>
					<rect x="26.6" y="57.5" class="st5" width="184.2" height="30.2"/>
					<g>
						<path d="M33.5,68.1h1v3.6l0,0c0.2-0.2,0.4-0.6,0.6-0.8l2.3-2.7h1.1l-2.7,3.1l2.9,4.2h-1.1L35,71.9l-0.8,0.8v2.9h-1v-7.5H33.5z
							"/>
						<path d="M39.2,74.6c0.2,0.2,0.8,0.4,1.3,0.4c0.8,0,1-0.4,1-0.8c0-0.4-0.2-0.8-1-1c-1-0.4-1.3-1-1.3-1.5c0-0.8,0.8-1.5,1.9-1.5
							c0.6,0,1,0.2,1.3,0.4l-0.2,0.8c-0.2-0.2-0.6-0.4-1.1-0.4s-1,0.4-1,0.8c0,0.4,0.4,0.6,1,1c1,0.4,1.3,0.8,1.3,1.5
							c0,1-0.8,1.5-1.9,1.5c-0.6,0-1.1-0.2-1.5-0.4L39.2,74.6z"/>
						<path d="M42.3,77.1c0.4,0,0.8-0.2,1-0.4c0.2-0.4,0.4-0.8,0.4-1.9v-4.4h1v4.8c0,1-0.2,1.7-0.6,2.1c-0.4,0.4-1.1,0.6-1.7,0.6
							V77.1z M44.8,68.6c0,0.4-0.2,0.6-0.6,0.6c-0.4,0-0.6-0.2-0.6-0.6c0-0.4,0.2-0.6,0.6-0.6C44.6,68.1,44.8,68.3,44.8,68.6z"/>
						<path d="M45,77.1c0.4,0,0.8-0.2,1-0.4c0.2-0.4,0.4-0.8,0.4-1.9v-4.4h1v4.8c0,1-0.2,1.7-0.6,2.1c-0.4,0.4-1.1,0.6-1.7,0.6V77.1
							z M47.5,68.6c0,0.4-0.2,0.6-0.6,0.6s-0.6-0.2-0.6-0.6c0-0.4,0.2-0.6,0.6-0.6C47.3,68.1,47.5,68.3,47.5,68.6z"/>
						<path d="M51.9,75.5V75l0,0c-0.4,0.4-1,0.8-1.5,0.8c-1.1,0-1.5-0.8-1.5-1.5c0-1.3,1.1-1.9,3.3-1.9v-0.2c0-0.4-0.2-1.1-1.1-1.1
							c-0.6,0-1,0.2-1.3,0.4l-0.2-0.6c0.4-0.2,1.1-0.4,1.7-0.4c1.5,0,2.1,1.1,2.1,2.1v1.9c0,0.4,0,1,0,1.3h-1.3V75.5z M51.9,72.8
							c-1,0-2.3,0.2-2.3,1.1c0,0.6,0.4,1,1,1c0.8,0,1.1-0.4,1.3-1c0-0.2,0-0.2,0-0.4V72.8z"/>
						<path d="M54.2,74.6c0.2,0.2,0.8,0.4,1.3,0.4c0.8,0,1-0.4,1-0.8c0-0.4-0.2-0.8-1-1c-1-0.4-1.3-1-1.3-1.5c0-0.8,0.8-1.5,1.9-1.5
							c0.6,0,1,0.2,1.3,0.4l-0.2,0.8c-0.2-0.2-0.6-0.4-1.1-0.4s-1,0.4-1,0.8c0,0.4,0.4,0.6,1,1c1,0.4,1.3,0.8,1.3,1.5
							c0,1-0.8,1.5-1.9,1.5c-0.6,0-1.1-0.2-1.5-0.4L54.2,74.6z"/>
						<path d="M63.4,72.8c0,1.9-1.3,2.9-2.7,2.9c-1.3,0-2.5-1-2.5-2.7s1.1-2.9,2.7-2.9C62.4,70,63.4,71.1,63.4,72.8z M59.1,72.8
							c0,1.1,0.6,2.1,1.5,2.1c1,0,1.5-1,1.5-2.1c0-1-0.4-2.1-1.5-2.1C59.7,70.7,59.1,71.9,59.1,72.8z"/>
						<path d="M65.6,72.7L65.6,72.7c0.2-0.2,0.4-0.4,0.6-0.6l1.5-1.9h1.1l-2.1,2.1l2.3,3.1h-1.1L66,72.8l-0.6,0.6v1.9h-1v-7.8h1v5.2
							H65.6z"/>
						<path d="M71,72.7L71,72.7c0.2-0.2,0.4-0.4,0.6-0.6l1.5-1.9h1.1l-2.1,2.1l2.3,3.1h-1.1l-1.9-2.5l-0.6,0.6v1.9h-1v-7.8h1v5.2H71
							z"/>
						<path d="M80,72.8c0,1.9-1.3,2.9-2.7,2.9s-2.5-1-2.5-2.7s1.1-2.9,2.7-2.9C78.9,70,80,71.1,80,72.8z M75.8,72.8
							c0,1.1,0.6,2.1,1.5,2.1s1.5-1,1.5-2.1c0-1-0.4-2.1-1.5-2.1S75.8,71.9,75.8,72.8z"/>
						<path d="M84,75.5V75l0,0c-0.4,0.4-1,0.8-1.5,0.8c-1.1,0-1.5-0.8-1.5-1.5c0-1.3,1.1-1.9,3.3-1.9v-0.2c0-0.4-0.2-1.1-1.1-1.1
							c-0.6,0-1,0.2-1.3,0.4l-0.2-0.6c0.4-0.2,1.1-0.4,1.7-0.4c1.5,0,2.1,1.1,2.1,2.1v1.9c0,0.4,0,1,0,1.3H84V75.5z M84,72.8
							c-1,0-2.3,0.2-2.3,1.1c0,0.6,0.4,1,1,1c0.8,0,1.1-0.4,1.3-1c0-0.2,0-0.2,0-0.4V72.8z"/>
						<path d="M86.9,73c0,1.3,0.8,1.9,1.7,1.9c0.8,0,1.1-0.2,1.5-0.2l0.2,0.8c-0.4,0.2-1,0.4-1.7,0.4c-1.7,0-2.7-1.1-2.7-2.7
							c0-1.5,1-2.9,2.5-2.9c1.7,0,2.1,1.5,2.1,2.5c0,0.2,0,0.4,0,0.4h-3.6V73z M89.8,72.3c0-0.6-0.2-1.5-1.3-1.5c-1,0-1.3,1-1.5,1.5
							H89.8z"/>
						<path d="M93,68.6c0,0.4-0.2,0.6-0.6,0.6c-0.4,0-0.6-0.2-0.6-0.6c0-0.4,0.2-0.6,0.6-0.6C92.8,68.1,93,68.3,93,68.6z M91.9,75.5
							v-5.4h1v5.4H91.9z"/>
					</g>
				</g>
				<g>
					<path d="M240.3,51c0.4,0.2,1,0.6,1.7,0.6c1,0,1.5-0.6,1.5-1.3c0-0.8-0.4-1.1-1.3-1.5c-1.1-0.4-1.9-1-1.9-2.1
						c0-1.1,1-1.9,2.3-1.9c0.8,0,1.3,0.2,1.7,0.4l-0.2,0.8c-0.2-0.2-0.8-0.4-1.3-0.4c-1,0-1.3,0.6-1.3,1.1c0,0.8,0.4,1,1.5,1.3
						c1.3,0.6,1.9,1.1,1.9,2.1c0,1.1-0.8,2.1-2.7,2.1c-0.8,0-1.5-0.2-1.9-0.4L240.3,51z"/>
					<path d="M246.4,49.7c0,1.3,0.8,1.9,1.7,1.9c0.8,0,1.1-0.2,1.5-0.2l0.2,0.8c-0.4,0.2-1,0.4-1.7,0.4c-1.7,0-2.7-1.1-2.7-2.7
						s1-2.9,2.5-2.9c1.7,0,2.1,1.5,2.1,2.5c0,0.2,0,0.4,0,0.4h-3.6V49.7z M249.3,49.1c0-0.6-0.2-1.5-1.3-1.5c-1,0-1.3,1-1.5,1.5
						H249.3z"/>
					<path d="M251.4,44.3h1v7.8h-1V44.3z"/>
					<path d="M254.5,49.7c0,1.3,0.8,1.9,1.7,1.9c0.8,0,1.1-0.2,1.5-0.2l0.2,0.8c-0.4,0.2-1,0.4-1.7,0.4c-1.7,0-2.7-1.1-2.7-2.7
						s1-2.9,2.5-2.9c1.7,0,2.1,1.5,2.1,2.5c0,0.2,0,0.4,0,0.4h-3.6V49.7z M257.4,49.1c0-0.6-0.2-1.5-1.3-1.5c-1,0-1.3,1-1.5,1.5
						H257.4z"/>
					<path d="M263.3,52c-0.2,0.2-0.8,0.4-1.5,0.4c-1.5,0-2.7-1.1-2.7-2.7c0-1.7,1.1-2.9,2.9-2.9c0.6,0,1.1,0.2,1.3,0.2l-0.2,0.8
						c-0.2-0.2-0.6-0.2-1.1-0.2c-1.1,0-1.9,1-1.9,1.9c0,1.1,0.8,1.9,1.9,1.9c0.6,0,1-0.2,1.1-0.2L263.3,52z"/>
					<path d="M265.6,45.3v1.5h1.3v0.8h-1.3v2.9c0,0.6,0.2,1,0.8,1c0.2,0,0.4,0,0.6,0v0.8c-0.2,0-0.6,0.2-0.8,0.2
						c-0.4,0-0.8-0.2-1-0.4c-0.2-0.2-0.4-0.8-0.4-1.3v-2.9h-1V47h0.8v-1.3L265.6,45.3z"/>
					<path d="M273.4,52.2v-0.6l0,0c-0.4,0.4-1,0.8-1.5,0.8c-1.1,0-1.5-0.8-1.5-1.5c0-1.3,1.1-1.9,3.3-1.9v-0.2
						c0-0.4-0.2-1.1-1.1-1.1c-0.6,0-1,0.2-1.3,0.4l-0.2-0.6c0.4-0.2,1.1-0.4,1.7-0.4c1.5,0,2.1,1.1,2.1,2.1V51c0,0.4,0,1,0,1.3h-1.3
						V52.2z M273.2,49.5c-1,0-2.3,0.2-2.3,1.1c0,0.6,0.4,1,1,1c0.8,0,1.1-0.4,1.3-1c0-0.2,0-0.2,0-0.4V49.5z"/>
					<path d="M282.6,44.3v6.3c0,0.4,0,1,0,1.3h-1v-1l0,0c-0.4,0.6-1,1-1.7,1c-1.3,0-2.3-1.1-2.3-2.7c0-1.7,1.1-2.9,2.3-2.9
						c0.8,0,1.3,0.4,1.5,0.8l0,0v-2.9H282.6z M281.7,49.1c0-0.2,0-0.2,0-0.4c-0.2-0.6-0.6-1.1-1.3-1.1c-1,0-1.5,1-1.5,2.1
						c0,1.1,0.6,1.9,1.5,1.9c0.6,0,1.1-0.4,1.3-1.1c0-0.2,0-0.2,0-0.4V49.1z"/>
					<path d="M288.9,49.5c0,1.9-1.3,2.9-2.7,2.9c-1.3,0-2.5-1-2.5-2.7s1.1-2.9,2.7-2.9C288,46.8,288.9,48,288.9,49.5z M284.9,49.5
						c0,1.1,0.6,2.1,1.5,2.1c1,0,1.5-1,1.5-2.1c0-1-0.4-2.1-1.5-2.1C285.3,47.6,284.9,48.5,284.9,49.5z"/>
					<path d="M290.3,48.4c0-0.6,0-1,0-1.3h0.8v0.8l0,0c0.4-0.6,0.8-1,1.7-1c0.8,0,1.3,0.4,1.5,1.1l0,0c0.2-0.4,0.4-0.6,0.6-0.8
						c0.4-0.2,0.6-0.4,1.1-0.4c0.8,0,1.7,0.4,1.7,2.3v3.1h-1v-3.1c0-1-0.4-1.7-1.1-1.7c-0.6,0-1,0.4-1.1,1c0,0.2,0,0.4,0,0.6v3.3h-1
						v-3.3c0-0.8-0.4-1.5-1.1-1.5c-0.6,0-1,0.6-1.1,1c0,0.2,0,0.4,0,0.4V52h-1L290.3,48.4L290.3,48.4z"/>
					<path d="M302.3,52.2v-0.6l0,0c-0.4,0.4-1,0.8-1.5,0.8c-1.1,0-1.5-0.8-1.5-1.5c0-1.3,1.1-1.9,3.3-1.9v-0.2
						c0-0.4-0.2-1.1-1.1-1.1c-0.6,0-1,0.2-1.3,0.4l-0.2-0.6c0.4-0.2,1.1-0.4,1.7-0.4c1.5,0,2.1,1.1,2.1,2.1V51c0,0.4,0,1,0,1.3h-1.3
						V52.2z M302.1,49.5c-1,0-2.3,0.2-2.3,1.1c0,0.6,0.4,1,1,1c0.8,0,1.1-0.4,1.3-1c0-0.2,0-0.2,0-0.4V49.5z"/>
					<path d="M305.8,45.5c0,0.4-0.2,0.6-0.6,0.6c-0.4,0-0.6-0.2-0.6-0.6c0-0.4,0.2-0.6,0.6-0.6C305.6,44.7,305.8,45.1,305.8,45.5z
						 M304.6,52.2v-5.4h1v5.4H304.6z"/>
					<path d="M307.3,48.4c0-0.6,0-1,0-1.3h0.8v1l0,0c0.2-0.6,1-1,1.7-1c0.8,0,1.9,0.4,1.9,2.3v3.3h-1v-3.1c0-0.8-0.4-1.5-1.1-1.5
						c-0.6,0-1.1,0.4-1.3,1c0,0.2,0,0.2,0,0.4v3.3h-1L307.3,48.4L307.3,48.4z"/>
				</g>
				<g>
					<rect x="240.9" y="57.5" class="st5" width="184.2" height="30.2"/>
					<g>
						<path d="M253.1,76.5v-7.3h1l2.3,3.8c0.6,1,1,1.7,1.3,2.5l0,0c0-1-0.2-1.9-0.2-3.1v-3.3h1v7.5h-1l-2.3-3.8
							c-0.6-0.8-1-1.7-1.3-2.5l0,0c0,1,0,1.7,0,3.1v3.1L253.1,76.5L253.1,76.5z"/>
						<path d="M265,73.8c0,1.9-1.3,2.9-2.7,2.9c-1.3,0-2.5-1-2.5-2.7c0-1.7,1.1-2.9,2.7-2.9C264.1,71.1,265,72.3,265,73.8z
							 M260.8,73.8c0,1.1,0.6,2.1,1.5,2.1c1,0,1.5-1,1.5-2.1c0-1-0.4-2.1-1.5-2.1C261.4,71.9,260.8,72.8,260.8,73.8z"/>
						<path d="M271.1,73.8c0,1.9-1.3,2.9-2.7,2.9c-1.3,0-2.5-1-2.5-2.7c0-1.7,1.1-2.9,2.7-2.9C270,71.1,271.1,72.3,271.1,73.8z
							 M266.9,73.8c0,1.1,0.6,2.1,1.5,2.1c1,0,1.5-1,1.5-2.1c0-1-0.4-2.1-1.5-2.1C267.3,71.9,266.9,72.8,266.9,73.8z"/>
						<path d="M272.3,73c0-0.8,0-1.1,0-1.7h1v1l0,0c0.4-0.6,1-1,1.9-1c1.3,0,2.3,1.1,2.3,2.7c0,1.9-1.1,2.9-2.5,2.9
							c-0.8,0-1.3-0.4-1.7-0.8l0,0V79h-1L272.3,73L272.3,73z M273.2,74.4c0,0.2,0,0.2,0,0.4c0.2,0.6,0.8,1.1,1.5,1.1
							c1,0,1.5-0.8,1.5-2.1c0-1.1-0.6-1.9-1.5-1.9c-0.6,0-1.3,0.4-1.5,1.1c0,0.2,0,0.2,0,0.4V74.4z"/>
						<path d="M278.4,72.7c0-0.6,0-1,0-1.3h0.8v0.8l0,0c0.4-0.6,0.8-1,1.7-1c0.8,0,1.3,0.4,1.5,1.1l0,0c0.2-0.4,0.4-0.6,0.6-0.8
							c0.4-0.2,0.6-0.4,1.1-0.4c0.8,0,1.7,0.4,1.7,2.3v3.1h-1v-3.1c0-1-0.4-1.7-1.1-1.7c-0.6,0-1,0.4-1.1,1c0,0.2,0,0.4,0,0.6v3.3
							h-1v-3.3c0-0.8-0.4-1.5-1.1-1.5c-0.6,0-1,0.6-1.1,1c0,0.2,0,0.4,0,0.4v3.3h-1L278.4,72.7L278.4,72.7z"/>
						<path d="M290.6,76.5v-0.6l0,0c-0.4,0.4-1,0.8-1.5,0.8c-1.1,0-1.5-0.8-1.5-1.5c0-1.3,1.1-1.9,3.3-1.9V73c0-0.4-0.2-1.1-1.1-1.1
							c-0.6,0-1,0.2-1.3,0.4l-0.2-0.6c0.4-0.2,1.1-0.4,1.7-0.4c1.5,0,2.1,1.1,2.1,2.1v1.9c0,0.4,0,1,0,1.3h-1.3V76.5z M290.5,73.8
							c-1,0-2.3,0.2-2.3,1.1c0,0.6,0.4,1,1,1c0.8,0,1.1-0.4,1.3-1c0-0.2,0-0.2,0-0.4V73.8z"/>
						<path d="M293.9,69.8c0,0.4-0.2,0.6-0.6,0.6c-0.4,0-0.6-0.2-0.6-0.6c0-0.4,0.2-0.6,0.6-0.6C293.7,69.2,293.9,69.4,293.9,69.8z
							 M292.9,76.5v-5.4h1v5.4H292.9z"/>
						<path d="M295.4,68.8h1v7.8h-1V68.8z"/>
						<path d="M297.7,75.9c0-0.4,0.2-0.8,0.6-0.8c0.4,0,0.6,0.2,0.6,0.8c0,0.4-0.2,0.8-0.6,0.8C297.9,76.7,297.7,76.3,297.7,75.9z"
							/>
						<path d="M305,73.8c0,1.9-1.3,2.9-2.7,2.9c-1.3,0-2.5-1-2.5-2.7c0-1.7,1.1-2.9,2.7-2.9C304,71.1,305,72.3,305,73.8z
							 M300.8,73.8c0,1.1,0.6,2.1,1.5,2.1c1,0,1.5-1,1.5-2.1c0-1-0.4-2.1-1.5-2.1C301.4,71.9,300.8,72.8,300.8,73.8z"/>
						<path d="M306.1,72.8c0-0.6,0-1.1,0-1.7h0.8v1l0,0c0.2-0.8,0.8-1.1,1.5-1.1c0.2,0,0.2,0,0.2,0v1c-0.2,0-0.2,0-0.4,0
							c-0.8,0-1.1,0.6-1.3,1.1c0,0.2,0,0.2,0,0.4v2.9h-1v-3.4H306.1z"/>
						<path d="M314.4,71.3c0,0.4,0,0.8,0,1.5v3.1c0,1.1-0.2,1.9-0.8,2.5s-1.3,0.6-1.9,0.6s-1.3-0.2-1.7-0.4l0.2-0.8
							c0.4,0.2,1,0.4,1.5,0.4c1,0,1.7-0.6,1.7-1.9v-0.6l0,0c-0.4,0.6-1,1-1.7,1c-1.3,0-2.3-1.1-2.3-2.7c0-1.7,1.1-2.9,2.3-2.9
							c1,0,1.3,0.6,1.7,1l0,0v-0.8C313.4,71.3,314.4,71.3,314.4,71.3z M313.2,73.2c0-0.2,0-0.4,0-0.4c-0.2-0.6-0.6-1-1.3-1
							c-1,0-1.5,0.8-1.5,1.9c0,1,0.6,1.9,1.5,1.9c0.6,0,1.1-0.4,1.3-1c0-0.2,0-0.4,0-0.6V73.2z"/>
					</g>
				</g>
			</g>
		</g>
		<g>
			<path class="st0" d="M421.5,354.9H28.7c-7.3,0-13.2-7.8-13.2-17.4v-109c0-9.6,5.9-17.4,13.2-17.4h392.8c7.3,0,13.2,7.8,13.2,17.4
				v109C434.7,347.1,428.8,354.9,421.5,354.9z"/>
			<g class="st2">
				<path d="M173.1,231.9v-3.3l-3-4.5h1.3l1.5,2.4c0.3,0.4,0.6,0.9,0.8,1.3c0.2-0.4,0.5-0.9,0.9-1.4l1.5-2.3h1.2l-3.1,4.5v3.3H173.1
					z"/>
				<path d="M176.8,229c0-1.1,0.3-1.8,0.9-2.3c0.5-0.4,1.1-0.6,1.8-0.6c0.8,0,1.4,0.3,1.9,0.8s0.7,1.2,0.7,2.1
					c0,0.7-0.1,1.3-0.3,1.7c-0.2,0.4-0.5,0.7-1,1c-0.4,0.2-0.9,0.3-1.4,0.3c-0.8,0-1.4-0.3-1.9-0.8C177,230.7,176.8,230,176.8,229z
					 M177.7,229c0,0.7,0.2,1.3,0.5,1.6c0.3,0.4,0.7,0.5,1.2,0.5c0.5,0,0.9-0.2,1.2-0.5c0.3-0.4,0.5-0.9,0.5-1.7
					c0-0.7-0.2-1.2-0.5-1.6c-0.3-0.4-0.7-0.5-1.2-0.5c-0.5,0-0.9,0.2-1.2,0.5S177.7,228.3,177.7,229z"/>
				<path d="M186.9,231.9v-0.8c-0.4,0.6-1,1-1.8,1c-0.3,0-0.6-0.1-0.9-0.2c-0.3-0.1-0.5-0.3-0.6-0.5c-0.1-0.2-0.2-0.4-0.3-0.7
					c0-0.2-0.1-0.5-0.1-0.9v-3.5h1v3.2c0,0.5,0,0.8,0.1,1c0.1,0.3,0.2,0.5,0.4,0.6c0.2,0.1,0.4,0.2,0.7,0.2s0.6-0.1,0.8-0.2
					c0.3-0.1,0.4-0.3,0.5-0.6c0.1-0.3,0.2-0.6,0.2-1.1v-3h1v5.7H186.9z"/>
				<path d="M189.3,231.9v-5.7h0.9v0.9c0.2-0.4,0.4-0.7,0.6-0.8c0.2-0.1,0.4-0.2,0.6-0.2c0.3,0,0.7,0.1,1,0.3l-0.3,0.9
					c-0.2-0.1-0.5-0.2-0.7-0.2c-0.2,0-0.4,0.1-0.6,0.2c-0.2,0.1-0.3,0.3-0.4,0.5c-0.1,0.3-0.2,0.7-0.2,1.1v3H189.3z"/>
				<path d="M196,231.9v-5.7h0.9v0.8c0.2-0.3,0.4-0.5,0.7-0.7c0.3-0.2,0.6-0.3,1-0.3c0.4,0,0.8,0.1,1,0.3c0.3,0.2,0.5,0.4,0.6,0.7
					c0.4-0.7,1-1,1.8-1c0.6,0,1,0.2,1.3,0.5c0.3,0.3,0.5,0.8,0.5,1.4v3.9h-1v-3.6c0-0.4,0-0.7-0.1-0.8c-0.1-0.2-0.2-0.3-0.3-0.4
					s-0.4-0.2-0.6-0.2c-0.4,0-0.7,0.1-1,0.4c-0.3,0.3-0.4,0.7-0.4,1.3v3.3h-1v-3.7c0-0.4-0.1-0.7-0.2-1c-0.2-0.2-0.4-0.3-0.8-0.3
					c-0.3,0-0.5,0.1-0.8,0.2c-0.2,0.1-0.4,0.4-0.5,0.6s-0.2,0.7-0.2,1.2v2.9H196z"/>
				<path d="M208.8,231.2c-0.4,0.3-0.7,0.5-1,0.6s-0.7,0.2-1.1,0.2c-0.6,0-1.1-0.2-1.4-0.5c-0.3-0.3-0.5-0.7-0.5-1.2
					c0-0.3,0.1-0.5,0.2-0.8c0.1-0.2,0.3-0.4,0.5-0.6c0.2-0.1,0.4-0.2,0.7-0.3c0.2,0,0.5-0.1,0.9-0.1c0.8-0.1,1.4-0.2,1.7-0.3
					c0-0.1,0-0.2,0-0.3c0-0.4-0.1-0.7-0.3-0.8c-0.2-0.2-0.6-0.3-1.1-0.3c-0.5,0-0.8,0.1-1,0.2c-0.2,0.2-0.4,0.4-0.5,0.8l-0.9-0.1
					c0.1-0.4,0.2-0.7,0.4-1s0.5-0.4,0.9-0.6s0.8-0.2,1.3-0.2c0.5,0,0.9,0.1,1.2,0.2s0.5,0.3,0.7,0.4s0.2,0.4,0.3,0.7
					c0,0.2,0,0.5,0,0.9v1.3c0,0.9,0,1.5,0.1,1.7c0,0.2,0.1,0.5,0.2,0.7h-1C208.9,231.7,208.9,231.5,208.8,231.2z M208.7,229
					c-0.3,0.1-0.9,0.3-1.6,0.4c-0.4,0.1-0.7,0.1-0.8,0.2s-0.3,0.2-0.4,0.3c-0.1,0.1-0.1,0.3-0.1,0.5c0,0.3,0.1,0.5,0.3,0.6
					c0.2,0.2,0.5,0.3,0.9,0.3c0.4,0,0.7-0.1,1-0.2c0.3-0.2,0.5-0.4,0.6-0.7c0.1-0.2,0.2-0.5,0.2-1V229z"/>
				<path d="M211.2,225.2V224h1v1.1H211.2z M211.2,231.9v-5.7h1v5.7H211.2z"/>
				<path d="M213.6,231.9V224h1v7.8H213.6z"/>
				<path d="M217,231.9h-0.9V224h1v2.8c0.4-0.5,0.9-0.8,1.6-0.8c0.3,0,0.7,0.1,1,0.2c0.3,0.1,0.6,0.3,0.8,0.6s0.4,0.6,0.5,0.9
					s0.2,0.7,0.2,1.2c0,1-0.2,1.7-0.7,2.3s-1.1,0.8-1.7,0.8c-0.7,0-1.2-0.3-1.6-0.8V231.9z M217,229c0,0.7,0.1,1.2,0.3,1.5
					c0.3,0.5,0.7,0.7,1.2,0.7c0.4,0,0.8-0.2,1.1-0.5c0.3-0.4,0.5-0.9,0.5-1.6c0-0.7-0.1-1.3-0.4-1.6c-0.3-0.4-0.6-0.5-1.1-0.5
					c-0.4,0-0.8,0.2-1.1,0.5C217.1,227.8,217,228.3,217,229z"/>
				<path d="M221.8,229c0-1.1,0.3-1.8,0.9-2.3c0.5-0.4,1.1-0.6,1.8-0.6c0.8,0,1.4,0.3,1.9,0.8c0.5,0.5,0.7,1.2,0.7,2.1
					c0,0.7-0.1,1.3-0.3,1.7c-0.2,0.4-0.5,0.7-1,1c-0.4,0.2-0.9,0.3-1.4,0.3c-0.8,0-1.4-0.3-1.9-0.8S221.8,230,221.8,229z M222.8,229
					c0,0.7,0.2,1.3,0.5,1.6c0.3,0.4,0.7,0.5,1.2,0.5c0.5,0,0.9-0.2,1.2-0.5c0.3-0.4,0.5-0.9,0.5-1.7c0-0.7-0.2-1.2-0.5-1.6
					c-0.3-0.4-0.7-0.5-1.2-0.5c-0.5,0-0.9,0.2-1.2,0.5S222.8,228.3,222.8,229z"/>
				<path d="M227.6,231.9l2.1-3l-1.9-2.7h1.2l0.9,1.3c0.2,0.3,0.3,0.5,0.4,0.6c0.2-0.2,0.3-0.4,0.4-0.6l1-1.3h1.2l-2,2.7l2.1,3h-1.2
					l-1.2-1.8l-0.3-0.5l-1.5,2.2H227.6z"/>
				<path d="M236.8,225.2V224h1v1.1H236.8z M236.8,231.9v-5.7h1v5.7H236.8z"/>
				<path d="M238.8,230.2l1-0.1c0.1,0.4,0.2,0.7,0.4,0.9c0.2,0.2,0.6,0.3,1,0.3c0.4,0,0.8-0.1,1-0.3s0.3-0.4,0.3-0.6
					c0-0.2-0.1-0.4-0.3-0.5c-0.1-0.1-0.5-0.2-1-0.3c-0.7-0.2-1.2-0.3-1.5-0.5c-0.3-0.1-0.5-0.3-0.6-0.5c-0.1-0.2-0.2-0.5-0.2-0.8
					c0-0.3,0.1-0.5,0.2-0.7c0.1-0.2,0.3-0.4,0.5-0.5c0.2-0.1,0.4-0.2,0.6-0.3c0.3-0.1,0.5-0.1,0.8-0.1c0.4,0,0.8,0.1,1.2,0.2
					c0.3,0.1,0.6,0.3,0.7,0.5c0.2,0.2,0.3,0.5,0.3,0.9l-0.9,0.1c0-0.3-0.2-0.5-0.4-0.7s-0.5-0.2-0.9-0.2c-0.4,0-0.8,0.1-0.9,0.2
					s-0.3,0.3-0.3,0.5c0,0.1,0,0.2,0.1,0.3c0.1,0.1,0.2,0.2,0.4,0.3c0.1,0,0.4,0.1,0.9,0.2c0.7,0.2,1.2,0.3,1.4,0.4
					c0.3,0.1,0.5,0.3,0.6,0.5c0.2,0.2,0.2,0.5,0.2,0.8c0,0.3-0.1,0.6-0.3,0.9c-0.2,0.3-0.5,0.5-0.8,0.7c-0.4,0.2-0.8,0.2-1.2,0.2
					c-0.7,0-1.3-0.2-1.7-0.5S238.9,230.8,238.8,230.2z"/>
				<path d="M251.6,230.1l1,0.1c-0.2,0.6-0.4,1-0.9,1.4c-0.4,0.3-1,0.5-1.6,0.5c-0.8,0-1.5-0.3-2-0.8c-0.5-0.5-0.7-1.2-0.7-2.2
					c0-1,0.2-1.7,0.7-2.2c0.5-0.5,1.1-0.8,1.9-0.8c0.8,0,1.4,0.3,1.9,0.8c0.5,0.5,0.7,1.2,0.7,2.2c0,0.1,0,0.1,0,0.3h-4.2
					c0,0.6,0.2,1.1,0.5,1.4c0.3,0.3,0.7,0.5,1.2,0.5c0.4,0,0.7-0.1,0.9-0.3C251.3,230.8,251.5,230.5,251.6,230.1z M248.5,228.5h3.2
					c0-0.5-0.2-0.8-0.4-1.1c-0.3-0.4-0.7-0.6-1.2-0.6c-0.4,0-0.8,0.1-1.1,0.4C248.7,227.6,248.5,228,248.5,228.5z"/>
				<path d="M253.8,231.9v-5.7h0.9v0.8c0.2-0.3,0.4-0.5,0.7-0.7c0.3-0.2,0.6-0.3,1-0.3c0.4,0,0.8,0.1,1,0.3c0.3,0.2,0.5,0.4,0.6,0.7
					c0.4-0.7,1-1,1.8-1c0.6,0,1,0.2,1.3,0.5c0.3,0.3,0.5,0.8,0.5,1.4v3.9h-1v-3.6c0-0.4,0-0.7-0.1-0.8c-0.1-0.2-0.2-0.3-0.3-0.4
					s-0.4-0.2-0.6-0.2c-0.4,0-0.7,0.1-1,0.4s-0.4,0.7-0.4,1.3v3.3h-1v-3.7c0-0.4-0.1-0.7-0.2-1c-0.2-0.2-0.4-0.3-0.8-0.3
					c-0.3,0-0.5,0.1-0.8,0.2c-0.2,0.1-0.4,0.4-0.5,0.6c-0.1,0.3-0.2,0.7-0.2,1.2v2.9H253.8z"/>
				<path d="M263,234.1v-7.9h0.9v0.7c0.2-0.3,0.4-0.5,0.7-0.7c0.3-0.1,0.6-0.2,0.9-0.2c0.5,0,0.9,0.1,1.3,0.4s0.7,0.6,0.8,1.1
					c0.2,0.5,0.3,1,0.3,1.5c0,0.6-0.1,1.1-0.3,1.6c-0.2,0.5-0.5,0.8-0.9,1.1s-0.8,0.4-1.3,0.4c-0.3,0-0.6-0.1-0.9-0.2
					c-0.3-0.1-0.5-0.3-0.6-0.5v2.8H263z M263.8,229.1c0,0.7,0.1,1.3,0.4,1.6s0.7,0.5,1.1,0.5c0.4,0,0.8-0.2,1.1-0.5
					c0.3-0.4,0.5-0.9,0.5-1.7c0-0.7-0.1-1.3-0.4-1.6s-0.7-0.5-1.1-0.5c-0.4,0-0.8,0.2-1.1,0.6C264,227.8,263.8,228.3,263.8,229.1z"
					/>
				<path d="M271.2,231l0.1,0.9c-0.3,0.1-0.5,0.1-0.7,0.1c-0.3,0-0.6-0.1-0.8-0.2s-0.3-0.3-0.4-0.4c-0.1-0.2-0.1-0.6-0.1-1.1V227
					h-0.7v-0.7h0.7v-1.4l1-0.6v2h1v0.7h-1v3.3c0,0.3,0,0.5,0.1,0.5c0,0.1,0.1,0.1,0.2,0.2c0.1,0,0.2,0.1,0.3,0.1
					C270.8,231.1,271,231,271.2,231z"/>
				<path d="M272.1,234.1l-0.1-0.9c0.2,0.1,0.4,0.1,0.6,0.1c0.2,0,0.4,0,0.5-0.1c0.1-0.1,0.2-0.2,0.3-0.3c0.1-0.1,0.2-0.3,0.3-0.7
					c0-0.1,0-0.1,0.1-0.2l-2.2-5.7h1l1.2,3.3c0.2,0.4,0.3,0.9,0.4,1.3c0.1-0.4,0.2-0.9,0.4-1.3l1.2-3.3h1l-2.2,5.8
					c-0.2,0.6-0.4,1.1-0.5,1.3c-0.2,0.3-0.4,0.5-0.6,0.7c-0.2,0.1-0.5,0.2-0.8,0.2C272.5,234.2,272.3,234.2,272.1,234.1z"/>
			</g>
			<g>
				<g>
					<path d="M164.3,247.2l-0.4-8.6h1l0.2,4.2c0,0.9,0.1,1.7,0.1,2.2l0,0.6l0.8-2.1l2.1-4.9h1l0.2,5c0,0.6,0,1.3,0.1,2.1
						c0.1-0.2,0.2-0.5,0.3-0.9c0.2-0.6,0.4-1.1,0.5-1.4l2-4.8h1l-3.6,8.6h-1l-0.2-5.2c0-0.5,0-1-0.1-1.6c-0.2,0.6-0.4,1-0.5,1.3
						l-2.4,5.6H164.3z"/>
					<path d="M175.2,246.4c-0.3,0.3-0.6,0.6-0.9,0.7c-0.3,0.1-0.6,0.2-0.9,0.2c-0.5,0-0.8-0.2-1.1-0.5c-0.3-0.3-0.4-0.8-0.4-1.3
						c0-0.4,0.1-0.7,0.3-1c0.2-0.3,0.4-0.5,0.7-0.7s0.8-0.3,1.4-0.3c0.5,0,0.8-0.1,1-0.1s0.3-0.1,0.5-0.1c0.1-0.3,0.1-0.5,0.1-0.7
						c0-0.3-0.1-0.5-0.3-0.6c-0.2-0.2-0.5-0.2-0.9-0.2c-0.8,0-1.2,0.4-1.5,1.1l-0.9-0.1c0.4-1.3,1.2-1.9,2.4-1.9
						c0.6,0,1.1,0.2,1.4,0.5s0.5,0.7,0.5,1.2c0,0.3,0,0.7-0.1,1.1l-0.3,1.5c-0.1,0.5-0.2,0.9-0.2,1.2c0,0.2,0,0.5,0.1,0.8h-0.9
						C175.3,247,175.2,246.7,175.2,246.4z M175.6,244c-0.2,0.1-0.6,0.2-1.1,0.2c-0.5,0.1-0.9,0.1-1.1,0.2c-0.2,0.1-0.4,0.2-0.5,0.4
						s-0.2,0.4-0.2,0.6c0,0.3,0.1,0.6,0.3,0.8s0.4,0.3,0.7,0.3c0.3,0,0.6-0.1,0.8-0.3c0.3-0.2,0.5-0.4,0.6-0.7
						S175.5,244.7,175.6,244z"/>
					<path d="M177.2,247.2l1.1-6.2h0.9l-1.1,6.2H177.2z M178.5,239.8l0.2-1.2h0.9l-0.2,1.2H178.5z"/>
					<path d="M181.4,246.3l-0.1,0.9c-0.2,0.1-0.4,0.1-0.6,0.1c-0.3,0-0.6-0.1-0.7-0.3s-0.3-0.4-0.3-0.7c0-0.1,0-0.5,0.1-1l0.6-3.6
						h-0.7l0.1-0.8h0.7l0.3-1.5l1-0.7l-0.4,2.2h0.8l-0.1,0.8h-0.8l-0.6,3.4c-0.1,0.4-0.1,0.7-0.1,0.8c0,0.1,0,0.2,0.1,0.3
						c0.1,0.1,0.2,0.1,0.3,0.1C181.1,246.4,181.2,246.4,181.4,246.3z"/>
					<path d="M182.1,247.2l1.1-6.2h0.9l-1.1,6.2H182.1z M183.4,239.8l0.2-1.2h0.9l-0.2,1.2H183.4z"/>
					<path d="M184.3,247.2l1.1-6.2h0.8l-0.2,1.1c0.4-0.5,0.7-0.8,1-1c0.3-0.2,0.6-0.3,0.9-0.3c0.4,0,0.7,0.1,1,0.4s0.4,0.6,0.4,1.1
						c0,0.2,0,0.6-0.1,1.1l-0.7,3.8h-0.9l0.7-3.9c0.1-0.4,0.1-0.7,0.1-0.9c0-0.2-0.1-0.4-0.2-0.5s-0.3-0.2-0.5-0.2
						c-0.4,0-0.8,0.2-1.2,0.6s-0.6,1.1-0.8,2l-0.5,2.9H184.3z"/>
					<path d="M189.8,247.8l0.9,0.1v0.1c0,0.3,0.1,0.5,0.2,0.6c0.2,0.1,0.4,0.2,0.7,0.2c0.5,0,0.9-0.2,1.1-0.5
						c0.2-0.2,0.3-0.7,0.4-1.5l0.1-0.5c-0.5,0.6-0.9,0.8-1.4,0.8c-0.5,0-0.9-0.2-1.3-0.7s-0.5-1.1-0.5-2c0-0.7,0.1-1.3,0.4-1.9
						c0.3-0.6,0.6-1,1-1.3c0.4-0.3,0.8-0.4,1.1-0.4c0.7,0,1.2,0.4,1.5,1.2l0.2-1h0.8l-0.9,6c-0.2,0.9-0.4,1.6-0.7,2
						c-0.4,0.5-0.9,0.8-1.6,0.8c-0.6,0-1.1-0.1-1.5-0.4s-0.5-0.7-0.5-1.2C189.8,248,189.8,247.9,189.8,247.8z M190.9,244.4
						c0,0.5,0,0.8,0.1,1.1s0.2,0.5,0.4,0.6s0.4,0.2,0.5,0.2c0.3,0,0.5-0.1,0.8-0.3c0.3-0.2,0.5-0.6,0.7-1.1s0.3-1,0.3-1.6
						c0-0.5-0.1-0.9-0.3-1.2c-0.2-0.3-0.5-0.4-0.8-0.4c-0.3,0-0.5,0.1-0.8,0.4c-0.3,0.2-0.5,0.6-0.6,1.1
						C190.9,243.6,190.9,244.1,190.9,244.4z"/>
					<path d="M198.2,247.2l0.9-5.4h-0.8l0.1-0.8h0.8l0.2-0.9c0.1-0.6,0.2-1,0.4-1.2c0.2-0.3,0.6-0.4,1-0.4c0.2,0,0.5,0.1,1,0.2
						l-0.2,0.9c-0.3-0.1-0.5-0.1-0.7-0.1c-0.2,0-0.3,0.1-0.4,0.2c-0.1,0.1-0.2,0.3-0.2,0.7l-0.1,0.7h1l-0.1,0.8h-1l-0.9,5.4H198.2z"
						/>
					<path d="M200.9,244.8c0-1.1,0.3-2.1,0.8-2.8s1.2-1.2,2-1.2c0.6,0,1.1,0.2,1.5,0.7s0.6,1.1,0.6,1.9c0,0.8-0.1,1.5-0.4,2.1
						s-0.6,1.1-1,1.4s-0.9,0.5-1.3,0.5c-0.6,0-1.1-0.2-1.5-0.7S200.9,245.6,200.9,244.8z M201.8,244.7c0,0.6,0.1,1,0.4,1.3
						s0.5,0.5,0.9,0.5c0.3,0,0.6-0.1,0.8-0.3s0.5-0.6,0.7-1.1s0.3-1.1,0.3-1.6c0-0.6-0.1-1-0.4-1.4s-0.5-0.5-0.9-0.5
						c-0.3,0-0.6,0.1-0.9,0.3s-0.5,0.6-0.7,1.1S201.8,244.2,201.8,244.7z"/>
					<path d="M206.2,247.2l1.1-6.2h0.8l-0.2,1.3c0.5-0.9,1-1.4,1.5-1.4c0.2,0,0.4,0.1,0.6,0.2l-0.4,1c-0.2-0.1-0.3-0.2-0.5-0.2
						c-0.3,0-0.6,0.2-1,0.6s-0.6,1.2-0.7,2.2l-0.4,2.5H206.2z"/>
					<path d="M212.2,247.2l1.1-6.2h0.9l-1.1,6.2H212.2z M213.5,239.8l0.2-1.2h0.9l-0.2,1.2H213.5z"/>
					<path d="M214.4,247.2l1.1-6.2h0.8l-0.2,1.1c0.4-0.5,0.7-0.8,1-1c0.3-0.2,0.6-0.3,0.9-0.3c0.4,0,0.7,0.1,1,0.4s0.4,0.6,0.4,1.1
						c0,0.2,0,0.6-0.1,1.1l-0.7,3.8h-0.9l0.7-3.9c0.1-0.4,0.1-0.7,0.1-0.9c0-0.2-0.1-0.4-0.2-0.5s-0.3-0.2-0.5-0.2
						c-0.4,0-0.8,0.2-1.2,0.6s-0.6,1.1-0.8,2l-0.5,2.9H214.4z"/>
					<path d="M223.4,244.9l0.9,0.1c-0.2,0.8-0.5,1.4-0.9,1.7c-0.4,0.4-0.9,0.6-1.4,0.6c-0.5,0-1-0.2-1.3-0.6s-0.5-1-0.5-1.9
						c0-0.8,0.1-1.5,0.4-2.2s0.6-1.1,1-1.4s0.8-0.4,1.3-0.4c0.5,0,1,0.2,1.3,0.6s0.5,0.9,0.5,1.5l-0.9,0.1c0-0.4-0.1-0.7-0.3-0.9
						c-0.2-0.2-0.4-0.3-0.7-0.3c-0.3,0-0.6,0.1-0.8,0.3s-0.5,0.6-0.6,1.1s-0.3,1.2-0.3,1.8c0,0.5,0.1,0.9,0.3,1.1s0.4,0.4,0.7,0.4
						c0.3,0,0.6-0.1,0.8-0.4S223.3,245.5,223.4,244.9z"/>
					<path d="M225,244.8c0-1.1,0.3-2.1,0.8-2.8s1.2-1.2,2-1.2c0.6,0,1.1,0.2,1.5,0.7s0.6,1.1,0.6,1.9c0,0.8-0.1,1.5-0.4,2.1
						s-0.6,1.1-1,1.4s-0.9,0.5-1.3,0.5c-0.6,0-1.1-0.2-1.5-0.7S225,245.6,225,244.8z M225.9,244.7c0,0.6,0.1,1,0.4,1.3
						s0.5,0.5,0.9,0.5c0.3,0,0.6-0.1,0.8-0.3s0.5-0.6,0.7-1.1s0.3-1.1,0.3-1.6c0-0.6-0.1-1-0.4-1.4s-0.5-0.5-0.9-0.5
						c-0.3,0-0.6,0.1-0.9,0.3s-0.5,0.6-0.7,1.1S225.9,244.2,225.9,244.7z"/>
					<path d="M230.3,247.2l1.1-6.2h0.9l-0.2,1c0.3-0.5,0.6-0.8,0.9-0.9s0.5-0.2,0.8-0.2c0.3,0,0.6,0.1,0.8,0.3
						c0.2,0.2,0.4,0.5,0.4,0.9c0.3-0.4,0.5-0.7,0.8-0.9c0.3-0.2,0.6-0.3,0.9-0.3c0.4,0,0.7,0.1,0.9,0.4c0.2,0.2,0.3,0.6,0.3,1
						c0,0.2,0,0.5-0.1,1l-0.7,4h-0.9l0.7-4.1c0.1-0.3,0.1-0.6,0.1-0.7c0-0.2-0.1-0.4-0.2-0.5c-0.1-0.1-0.3-0.2-0.4-0.2
						c-0.2,0-0.5,0.1-0.8,0.3c-0.3,0.2-0.5,0.4-0.6,0.7c-0.2,0.3-0.3,0.8-0.4,1.5l-0.5,3h-0.9l0.7-4.2c0.1-0.3,0.1-0.5,0.1-0.6
						c0-0.2-0.1-0.4-0.2-0.5s-0.2-0.2-0.4-0.2c-0.4,0-0.8,0.2-1.1,0.6c-0.3,0.4-0.6,1-0.8,2l-0.5,2.9H230.3z"/>
					<path d="M238.5,247.2l1.1-6.2h0.9l-1.1,6.2H238.5z M239.7,239.8l0.2-1.2h0.9l-0.2,1.2H239.7z"/>
					<path d="M240.7,247.2l1.1-6.2h0.8l-0.2,1.1c0.4-0.5,0.7-0.8,1-1s0.6-0.3,0.9-0.3c0.4,0,0.7,0.1,1,0.4s0.4,0.6,0.4,1.1
						c0,0.2,0,0.6-0.1,1.1l-0.7,3.8h-0.9l0.7-3.9c0.1-0.4,0.1-0.7,0.1-0.9c0-0.2-0.1-0.4-0.2-0.5s-0.3-0.2-0.5-0.2
						c-0.4,0-0.8,0.2-1.2,0.6c-0.4,0.4-0.6,1.1-0.8,2l-0.5,2.9H240.7z"/>
					<path d="M246.1,247.8l0.9,0.1v0.1c0,0.3,0.1,0.5,0.2,0.6c0.2,0.1,0.4,0.2,0.7,0.2c0.5,0,0.9-0.2,1.1-0.5
						c0.2-0.2,0.3-0.7,0.4-1.5l0.1-0.5c-0.5,0.6-0.9,0.8-1.4,0.8c-0.5,0-0.9-0.2-1.3-0.7c-0.4-0.5-0.5-1.1-0.5-2
						c0-0.7,0.1-1.3,0.4-1.9s0.6-1,1-1.3c0.4-0.3,0.8-0.4,1.1-0.4c0.7,0,1.2,0.4,1.5,1.2l0.2-1h0.8l-0.9,6c-0.2,0.9-0.4,1.6-0.7,2
						c-0.4,0.5-0.9,0.8-1.6,0.8c-0.6,0-1.1-0.1-1.5-0.4c-0.3-0.3-0.5-0.7-0.5-1.2C246.1,248,246.1,247.9,246.1,247.8z M247.2,244.4
						c0,0.5,0,0.8,0.1,1.1s0.2,0.5,0.4,0.6c0.2,0.1,0.4,0.2,0.5,0.2c0.3,0,0.5-0.1,0.8-0.3c0.3-0.2,0.5-0.6,0.7-1.1
						c0.2-0.5,0.3-1,0.3-1.6c0-0.5-0.1-0.9-0.3-1.2c-0.2-0.3-0.5-0.4-0.8-0.4c-0.3,0-0.5,0.1-0.8,0.4c-0.3,0.2-0.5,0.6-0.6,1.1
						C247.3,243.6,247.2,244.1,247.2,244.4z"/>
					<path d="M258.1,245.1l0.8,0.1c-0.1,0.6-0.5,1.1-1,1.6c-0.4,0.4-0.9,0.6-1.4,0.6c-0.4,0-0.7-0.1-1-0.3c-0.3-0.2-0.5-0.5-0.7-0.9
						c-0.2-0.4-0.3-0.9-0.3-1.4c0-0.7,0.1-1.4,0.4-2s0.6-1.1,1-1.4s0.8-0.4,1.3-0.4c0.6,0,1.1,0.2,1.4,0.7s0.6,1.1,0.6,1.9
						c0,0.3,0,0.6-0.1,0.9h-3.8c0,0.1,0,0.2,0,0.3c0,0.6,0.1,1,0.3,1.3c0.2,0.3,0.5,0.5,0.8,0.5c0.3,0,0.6-0.1,0.9-0.4
						S258,245.5,258.1,245.1z M255.6,243.5h2.9v-0.2c0-0.6-0.1-1-0.3-1.3c-0.2-0.3-0.5-0.4-0.8-0.4c-0.4,0-0.7,0.2-1,0.5
						C256,242.4,255.7,242.9,255.6,243.5z"/>
					<path d="M259.8,247.2l1.1-6.2h0.9l-0.2,1c0.3-0.5,0.6-0.8,0.9-0.9s0.5-0.2,0.8-0.2c0.3,0,0.6,0.1,0.8,0.3
						c0.2,0.2,0.4,0.5,0.4,0.9c0.3-0.4,0.5-0.7,0.8-0.9s0.6-0.3,0.9-0.3c0.4,0,0.7,0.1,0.9,0.4s0.3,0.6,0.3,1c0,0.2,0,0.5-0.1,1
						l-0.7,4h-0.9l0.7-4.1c0.1-0.3,0.1-0.6,0.1-0.7c0-0.2-0.1-0.4-0.2-0.5s-0.3-0.2-0.4-0.2c-0.2,0-0.5,0.1-0.8,0.3
						c-0.3,0.2-0.5,0.4-0.6,0.7c-0.2,0.3-0.3,0.8-0.4,1.5l-0.5,3h-0.9l0.7-4.2c0.1-0.3,0.1-0.5,0.1-0.6c0-0.2-0.1-0.4-0.2-0.5
						s-0.2-0.2-0.4-0.2c-0.4,0-0.8,0.2-1.1,0.6c-0.3,0.4-0.6,1-0.8,2l-0.5,2.9H259.8z"/>
					<path d="M271.5,246.4c-0.3,0.3-0.6,0.6-0.9,0.7s-0.6,0.2-0.9,0.2c-0.5,0-0.8-0.2-1.1-0.5c-0.3-0.3-0.4-0.8-0.4-1.3
						c0-0.4,0.1-0.7,0.3-1c0.2-0.3,0.4-0.5,0.7-0.7s0.8-0.3,1.4-0.3c0.5,0,0.8-0.1,1-0.1s0.3-0.1,0.5-0.1c0.1-0.3,0.1-0.5,0.1-0.7
						c0-0.3-0.1-0.5-0.3-0.6c-0.2-0.2-0.5-0.2-0.9-0.2c-0.8,0-1.2,0.4-1.5,1.1l-0.9-0.1c0.4-1.3,1.2-1.9,2.4-1.9
						c0.6,0,1.1,0.2,1.4,0.5c0.4,0.3,0.5,0.7,0.5,1.2c0,0.3,0,0.7-0.1,1.1l-0.3,1.5c-0.1,0.5-0.2,0.9-0.2,1.2c0,0.2,0,0.5,0.1,0.8
						h-0.9C271.5,247,271.5,246.7,271.5,246.4z M271.9,244c-0.2,0.1-0.6,0.2-1.1,0.2c-0.5,0.1-0.9,0.1-1.1,0.2
						c-0.2,0.1-0.4,0.2-0.5,0.4s-0.2,0.4-0.2,0.6c0,0.3,0.1,0.6,0.3,0.8c0.2,0.2,0.4,0.3,0.7,0.3c0.3,0,0.5-0.1,0.8-0.3
						c0.3-0.2,0.5-0.4,0.6-0.7C271.6,245.2,271.7,244.7,271.9,244z"/>
					<path d="M273.5,247.2l1.1-6.2h0.9l-1.1,6.2H273.5z M274.7,239.8l0.2-1.2h0.9l-0.2,1.2H274.7z"/>
					<path d="M275.6,247.2l1.5-8.6h0.9l-1.5,8.6H275.6z"/>
					<path d="M277.9,245.1l0.9-0.1c0,0.5,0.1,0.9,0.3,1.1s0.5,0.4,0.9,0.4c0.4,0,0.6-0.1,0.8-0.3s0.3-0.4,0.3-0.7
						c0-0.2-0.1-0.4-0.2-0.5c-0.1-0.2-0.4-0.4-0.9-0.6c-0.5-0.3-0.8-0.5-1-0.6s-0.3-0.3-0.4-0.5s-0.1-0.4-0.1-0.7
						c0-0.5,0.2-0.9,0.5-1.3s0.8-0.5,1.3-0.5c0.6,0,1.1,0.2,1.4,0.5s0.5,0.8,0.6,1.5l-0.9,0.1c0-0.4-0.1-0.7-0.3-0.9
						s-0.5-0.3-0.9-0.3c-0.3,0-0.5,0.1-0.7,0.2s-0.3,0.3-0.3,0.5c0,0.2,0.1,0.3,0.2,0.5c0.1,0.1,0.4,0.3,0.8,0.5
						c0.7,0.3,1.1,0.6,1.3,0.8c0.3,0.3,0.4,0.7,0.4,1.2c0,0.5-0.2,1-0.5,1.3c-0.4,0.4-0.9,0.6-1.5,0.6c-0.7,0-1.2-0.2-1.5-0.6
						c-0.4-0.4-0.6-0.9-0.6-1.6V245.1z"/>
				</g>
			</g>
		</g>
	</g>
	<g>
		<rect x="14.8" y="156.5" class="st1" width="420.5" height="43"/>
		<g>
			<path class="st6" d="M420.6,192.4H353c-2.7,0-4.8-2.1-4.8-4.8v-17.8c0-2.7,2.1-4.8,4.8-4.8h67.5c2.7,0,4.8,2.1,4.8,4.8v17.8
				C425.3,190.3,423.2,192.4,420.6,192.4z"/>
			<g class="st2">
				<path class="st3" d="M371.4,181.9v-7.8h3.5c0.7,0,1.2,0.1,1.6,0.2c0.4,0.1,0.7,0.4,0.9,0.7c0.2,0.4,0.3,0.8,0.3,1.2
					c0,0.6-0.2,1-0.5,1.4s-0.9,0.6-1.7,0.7c0.3,0.1,0.5,0.3,0.6,0.4c0.3,0.3,0.6,0.6,0.9,1l1.4,2.1H377l-1-1.6
					c-0.3-0.5-0.6-0.8-0.7-1.1c-0.2-0.2-0.4-0.4-0.5-0.5c-0.2-0.1-0.3-0.2-0.5-0.2c-0.1,0-0.3,0-0.6,0h-1.2v3.5H371.4z M372.5,177.5
					h2.2c0.5,0,0.8,0,1.1-0.1c0.3-0.1,0.5-0.3,0.6-0.5c0.1-0.2,0.2-0.4,0.2-0.7c0-0.4-0.1-0.7-0.4-0.9c-0.3-0.2-0.7-0.4-1.3-0.4
					h-2.5V177.5z"/>
				<path class="st3" d="M383.1,180.1l1,0.1c-0.2,0.6-0.4,1-0.9,1.4c-0.4,0.3-1,0.5-1.6,0.5c-0.8,0-1.5-0.3-2-0.8
					c-0.5-0.5-0.7-1.2-0.7-2.2c0-1,0.2-1.7,0.7-2.2c0.5-0.5,1.1-0.8,1.9-0.8c0.8,0,1.4,0.3,1.9,0.8c0.5,0.5,0.7,1.2,0.7,2.2
					c0,0.1,0,0.1,0,0.3h-4.2c0,0.6,0.2,1.1,0.5,1.4c0.3,0.3,0.7,0.5,1.2,0.5c0.4,0,0.7-0.1,0.9-0.3
					C382.8,180.8,382.9,180.5,383.1,180.1z M379.9,178.5h3.2c0-0.5-0.2-0.8-0.4-1.1c-0.3-0.4-0.7-0.6-1.2-0.6
					c-0.4,0-0.8,0.1-1.1,0.4C380.1,177.6,380,178,379.9,178.5z"/>
				<path class="st3" d="M385.5,181.9V177h-0.9v-0.7h0.9v-0.6c0-0.4,0-0.7,0.1-0.9c0.1-0.2,0.3-0.5,0.5-0.6c0.2-0.2,0.6-0.2,1-0.2
					c0.3,0,0.6,0,0.9,0.1l-0.1,0.8c-0.2,0-0.4-0.1-0.6-0.1c-0.3,0-0.5,0.1-0.6,0.2c-0.1,0.1-0.2,0.4-0.2,0.7v0.5h1.1v0.7h-1.1v4.9
					H385.5z"/>
				<path class="st3" d="M388.3,181.9v-5.7h0.9v0.9c0.2-0.4,0.4-0.7,0.6-0.8c0.2-0.1,0.4-0.2,0.6-0.2c0.3,0,0.7,0.1,1,0.3l-0.3,0.9
					c-0.2-0.1-0.5-0.2-0.7-0.2c-0.2,0-0.4,0.1-0.6,0.2s-0.3,0.3-0.4,0.5c-0.1,0.3-0.2,0.7-0.2,1.1v3H388.3z"/>
				<path class="st3" d="M395.9,180.1l1,0.1c-0.2,0.6-0.4,1-0.9,1.4c-0.4,0.3-1,0.5-1.6,0.5c-0.8,0-1.5-0.3-2-0.8
					c-0.5-0.5-0.7-1.2-0.7-2.2c0-1,0.2-1.7,0.7-2.2c0.5-0.5,1.1-0.8,1.9-0.8c0.8,0,1.4,0.3,1.9,0.8c0.5,0.5,0.7,1.2,0.7,2.2
					c0,0.1,0,0.1,0,0.3h-4.2c0,0.6,0.2,1.1,0.5,1.4c0.3,0.3,0.7,0.5,1.2,0.5c0.4,0,0.7-0.1,0.9-0.3
					C395.5,180.8,395.7,180.5,395.9,180.1z M392.7,178.5h3.2c0-0.5-0.2-0.8-0.4-1.1c-0.3-0.4-0.7-0.6-1.2-0.6
					c-0.4,0-0.8,0.1-1.1,0.4C392.9,177.6,392.8,178,392.7,178.5z"/>
				<path class="st3" d="M397.7,180.2l1-0.1c0.1,0.4,0.2,0.7,0.4,0.9c0.2,0.2,0.6,0.3,1,0.3c0.4,0,0.8-0.1,1-0.3s0.3-0.4,0.3-0.6
					c0-0.2-0.1-0.4-0.3-0.5c-0.1-0.1-0.5-0.2-1-0.3c-0.7-0.2-1.2-0.3-1.5-0.5c-0.3-0.1-0.5-0.3-0.6-0.5c-0.1-0.2-0.2-0.5-0.2-0.8
					c0-0.3,0.1-0.5,0.2-0.7c0.1-0.2,0.3-0.4,0.5-0.5c0.2-0.1,0.4-0.2,0.6-0.3c0.3-0.1,0.5-0.1,0.8-0.1c0.4,0,0.8,0.1,1.2,0.2
					s0.6,0.3,0.7,0.5c0.2,0.2,0.3,0.5,0.3,0.9l-0.9,0.1c0-0.3-0.2-0.5-0.4-0.7s-0.5-0.2-0.9-0.2c-0.4,0-0.8,0.1-0.9,0.2
					s-0.3,0.3-0.3,0.5c0,0.1,0,0.2,0.1,0.3c0.1,0.1,0.2,0.2,0.4,0.3c0.1,0,0.4,0.1,0.9,0.2c0.7,0.2,1.2,0.3,1.4,0.4
					c0.3,0.1,0.5,0.3,0.6,0.5c0.2,0.2,0.2,0.5,0.2,0.8c0,0.3-0.1,0.6-0.3,0.9c-0.2,0.3-0.5,0.5-0.8,0.7c-0.4,0.2-0.8,0.2-1.2,0.2
					c-0.7,0-1.3-0.2-1.7-0.5S397.8,180.8,397.7,180.2z"/>
				<path class="st3" d="M403.6,181.9v-7.8h1v2.8c0.4-0.5,1-0.8,1.7-0.8c0.4,0,0.8,0.1,1.1,0.2c0.3,0.2,0.5,0.4,0.7,0.7
					c0.1,0.3,0.2,0.7,0.2,1.3v3.6h-1v-3.6c0-0.5-0.1-0.8-0.3-1.1c-0.2-0.2-0.5-0.3-0.9-0.3c-0.3,0-0.6,0.1-0.8,0.2
					c-0.3,0.1-0.4,0.3-0.5,0.6c-0.1,0.3-0.2,0.6-0.2,1v3.1H403.6z"/>
			</g>
		</g>
		<g class="st2">
			<path class="st3" d="M31.6,180.3v-7.8h1.6L35,178c0.2,0.5,0.3,0.9,0.4,1.2c0.1-0.3,0.2-0.7,0.4-1.3l1.9-5.5h1.4v7.8h-1v-6.6
				l-2.3,6.6h-0.9l-2.3-6.7v6.7H31.6z"/>
			<path class="st3" d="M44.3,179.6c-0.4,0.3-0.7,0.5-1,0.6s-0.7,0.2-1.1,0.2c-0.6,0-1.1-0.2-1.4-0.5c-0.3-0.3-0.5-0.7-0.5-1.2
				c0-0.3,0.1-0.5,0.2-0.8c0.1-0.2,0.3-0.4,0.5-0.6c0.2-0.1,0.4-0.2,0.7-0.3c0.2,0,0.5-0.1,0.9-0.1c0.8-0.1,1.4-0.2,1.7-0.3
				c0-0.1,0-0.2,0-0.3c0-0.4-0.1-0.7-0.3-0.8c-0.2-0.2-0.6-0.3-1.1-0.3c-0.5,0-0.8,0.1-1,0.2c-0.2,0.2-0.4,0.4-0.5,0.8l-0.9-0.1
				c0.1-0.4,0.2-0.7,0.4-1s0.5-0.4,0.9-0.6s0.8-0.2,1.3-0.2c0.5,0,0.9,0.1,1.2,0.2c0.3,0.1,0.5,0.3,0.7,0.4c0.1,0.2,0.2,0.4,0.3,0.7
				c0,0.2,0,0.5,0,0.9v1.3c0,0.9,0,1.5,0.1,1.7c0,0.2,0.1,0.5,0.2,0.7h-1C44.4,180.1,44.4,179.8,44.3,179.6z M44.3,177.4
				c-0.3,0.1-0.9,0.3-1.6,0.4c-0.4,0.1-0.7,0.1-0.8,0.2s-0.3,0.2-0.4,0.3c-0.1,0.1-0.1,0.3-0.1,0.5c0,0.3,0.1,0.5,0.3,0.6
				c0.2,0.2,0.5,0.3,0.9,0.3c0.4,0,0.7-0.1,1-0.2c0.3-0.2,0.5-0.4,0.6-0.7c0.1-0.2,0.2-0.5,0.2-1V177.4z"/>
			<path class="st3" d="M46.7,173.5v-1.1h1v1.1H46.7z M46.7,180.3v-5.7h1v5.7H46.7z"/>
			<path class="st3" d="M49.1,180.3v-7.8h1v7.8H49.1z"/>
			<path class="st3" d="M52.5,180.3h-0.9v-7.8h1v2.8c0.4-0.5,0.9-0.8,1.6-0.8c0.3,0,0.7,0.1,1,0.2c0.3,0.1,0.6,0.3,0.8,0.6
				s0.4,0.6,0.5,0.9s0.2,0.7,0.2,1.2c0,1-0.2,1.7-0.7,2.3s-1.1,0.8-1.7,0.8c-0.7,0-1.2-0.3-1.6-0.8V180.3z M52.5,177.4
				c0,0.7,0.1,1.2,0.3,1.5c0.3,0.5,0.7,0.7,1.2,0.7c0.4,0,0.8-0.2,1.1-0.5c0.3-0.4,0.5-0.9,0.5-1.6c0-0.7-0.1-1.3-0.4-1.6
				c-0.3-0.4-0.6-0.5-1.1-0.5c-0.4,0-0.8,0.2-1.1,0.5C52.6,176.2,52.5,176.7,52.5,177.4z"/>
			<path class="st3" d="M57.3,177.4c0-1.1,0.3-1.8,0.9-2.3c0.5-0.4,1.1-0.6,1.8-0.6c0.8,0,1.4,0.3,1.9,0.8s0.7,1.2,0.7,2.1
				c0,0.7-0.1,1.3-0.3,1.7c-0.2,0.4-0.5,0.7-1,1c-0.4,0.2-0.9,0.3-1.4,0.3c-0.8,0-1.4-0.3-1.9-0.8C57.6,179.1,57.3,178.4,57.3,177.4
				z M58.3,177.4c0,0.7,0.2,1.3,0.5,1.6c0.3,0.4,0.7,0.5,1.2,0.5c0.5,0,0.9-0.2,1.2-0.5c0.3-0.4,0.5-0.9,0.5-1.7
				c0-0.7-0.2-1.2-0.5-1.6c-0.3-0.4-0.7-0.5-1.2-0.5c-0.5,0-0.9,0.2-1.2,0.5S58.3,176.7,58.3,177.4z"/>
			<path class="st3" d="M63.1,180.3l2.1-3l-1.9-2.7h1.2l0.9,1.3c0.2,0.3,0.3,0.5,0.4,0.6c0.2-0.2,0.3-0.4,0.4-0.6l1-1.3h1.2l-2,2.7
				l2.1,3h-1.2l-1.2-1.8l-0.3-0.5l-1.5,2.2H63.1z"/>
		</g>
	</g>
</g>
</svg>
