<?xml version="1.0" encoding="utf-8"?>
<!-- Generator: Adobe Illustrator 26.1.0, SVG Export Plug-In . SVG Version: 6.00 Build 0)  -->
<svg version="1.1" id="Layer_1" xmlns="http://www.w3.org/2000/svg" xmlns:xlink="http://www.w3.org/1999/xlink" x="0px" y="0px"
	 viewBox="0 0 651 422.5" style="enable-background:new 0 0 651 422.5;" xml:space="preserve">
<style type="text/css">
	.st0{opacity:0.8;}
	.st1{fill:#EDF6F8;}
	.st2{fill:#005B5C;}
	.st3{fill:#00333C;}
	.st4{fill:#2D918E;}
	.st5{fill:#FFBF63;}
	.st6{fill:#FF9024;}
	.st7{fill:#00312D;}
	.st8{fill:#F2CEC2;}
	.st9{fill:#F3674F;}
	.st10{fill:#FFFFFF;}
	.st11{fill:#384E4F;}
	.st12{fill:#597B7B;}
	.st13{fill:#008280;}
	.st14{fill:#54B2E0;}
	.st15{fill:#FF524B;}
	.st16{fill:#14857A;}
	.st17{font-family:'MyriadPro-Regular';}
	.st18{font-size:4.7726px;}
	.st19{fill:#FFFFFF;stroke:#DBDBDB;stroke-width:0.5833;stroke-miterlimit:10;}
	.st20{fill:#FFFFFF;stroke:#14857A;stroke-width:1.1179;stroke-miterlimit:10;}
	.st21{fill:#FFFFFF;stroke:#14857A;stroke-width:1.0533;stroke-miterlimit:10;}
	.st22{font-size:3.0686px;}
	.st23{fill:#14857A;stroke:#FFFFFF;stroke-width:0.8334;stroke-miterlimit:10;}
	.st24{fill:#F3E3DF;}
	.st25{fill:#FF9D8A;}
	.st26{fill:#D63F2C;}
	.st27{fill:#ED7462;}
	.st28{fill:#1E1E1E;}
	.st29{fill:none;}
	.st30{fill:#23585E;}
	.st31{fill:#1A4A4B;}
	.st32{fill:#FD615B;}
	.st33{fill:#DE7110;}
</style>
<g class="st0">
	<path class="st1" d="M72.9,52.1c2.5-0.5,5,0.9,5.9,3.3c1.5,4.1-2.4,8.6-7.7,6.6l0,0C66.5,58.6,68.5,52.9,72.9,52.1z"/>
	
		<ellipse transform="matrix(0.1607 -0.987 0.987 0.1607 448.1207 587.8286)" class="st1" cx="569.7" cy="30.4" rx="10.6" ry="10.6"/>
	<circle class="st1" cx="94.8" cy="46.6" r="10.7"/>
	<path class="st1" d="M556.2,14.1c0,3.6-2.9,6.6-6.5,6.6c-3.6,0-6.6-2.9-6.6-6.5c0-3.6,2.9-6.6,6.5-6.6c0,0,0,0,0,0
		C553.3,7.6,556.2,10.5,556.2,14.1z"/>
</g>
<path class="st1" d="M582.6,126.7C582.6,68.2,534,4.2,473.4,0.3c-1.1-0.1-2.1-0.1-3.2-0.2c-86.8-4.1-93.4,101.9-172,113.8
	s-138.6-48.3-232.6-9c-84.4,35.3-107.3,233.9,140.8,241.9C404.8,353.1,582.7,301.1,582.6,126.7z"/>
<path class="st1" d="M651,389.9c0,3.8-24.7,6.9-55.2,6.9s-55.2-3.1-55.2-6.9s24.7-6.9,55.2-6.9S651,386.1,651,389.9z"/>
<path class="st2" d="M587.5,270.4c0,0-11.5,2.5-9.8-5.5s1.6-11-3.1-14.6s-9.4-5.4-5.8-11.2s-3.2-10.3-6.7-13.4s0.5-5.4,1.4-11.3
	s-5.4-5-5.9-12.4s7-16,0.6-26.2c0,0,8.7,4.5,11.5,12.4s0.5,14,5.7,17s8.3,8.2,6.6,13.5s0.7,8.2,4.9,12.1s3.1,5.4,2.6,10.2
	s0.5,3.6,5.3,10.1C599.6,257.6,599.7,268.3,587.5,270.4z"/>
<path class="st3" d="M589.1,270c0,0,0-0.1-0.1-0.1l-23-69.8c-0.1-0.3,0.1-0.6,0.4-0.7l0,0c0.3-0.1,0.6,0.1,0.7,0.4l23,69.8
	c0,0.1,0,0.1,0,0.2L589.1,270z"/>
<path class="st2" d="M608.2,270.2c0,0,11.4,2.5,9.7-5.4s-1.6-10.9,3.1-14.5s9.3-5.4,5.8-11.1s3.2-10.2,6.7-13.3s-0.5-5.4-1.4-11.3
	s5.4-5,5.8-12.3s-7-16-0.5-26.1c0,0-8.6,4.5-11.5,12.3s-0.5,13.9-5.6,16.9s-8.3,8.2-6.6,13.5s-0.7,8.1-4.9,12s-3.1,5.4-2.5,10.1
	s-0.5,3.6-5.3,10.1S596,268.1,608.2,270.2z"/>
<path class="st3" d="M605.5,269.6c0-0.1,0-0.1,0-0.2l22.9-69.4c0.1-0.3,0.4-0.5,0.7-0.4l0,0c0.3,0.1,0.5,0.4,0.4,0.7l-22.9,69.4
	l-0.1,0.1L605.5,269.6z"/>
<path class="st4" d="M595.5,268.8c0,0-13.2-1.1-8.7-9.1s5.3-11.2,1.5-16.7s-8.2-8.9-2.5-13.9s0-12-2.8-16.5s2.3-5.7,5.2-11.7
	s-4.1-7.1-2.2-15.2s12.8-14.9,9.3-27.9c0,0,7.8,7.7,8.2,17.1s-4.1,15.2,0.4,20.1s6.2,11.6,2.6,16.7s-1.9,9,1.3,14.5
	s1.5,6.9-0.6,11.8s-0.7,4.1,2.3,12.6S609.3,270.6,595.5,268.8z"/>
<path class="st2" d="M597.4,268.9c0,0,0-0.1,0-0.1l-1.5-82.4c0-0.4,0.3-0.6,0.6-0.6l0,0c0.3,0,0.6,0.3,0.6,0.6l1.5,82.4
	c0,0.1,0,0.1,0,0.2L597.4,268.9z"/>
<path class="st5" d="M633.8,266l-1,2.5l-0.6,1.6l-1.7,4.6l-0.6,1.6l-1.8,4.7l-0.6,1.6l-7.6,20.2h-41.6l-7.6-20.2l-0.6-1.6l-1.8-4.7
	l-0.6-1.6l-1.7-4.6l-0.6-1.6l-1-2.5c-0.5-1.4,0.2-2.9,1.6-3.4c0.3-0.1,0.6-0.2,0.9-0.2h64.3c1.5,0,2.7,1.1,2.7,2.6
	C634,265.3,633.9,265.7,633.8,266z"/>
<polygon class="st6" points="632.8,268.5 632.2,270.1 566.1,270.1 565.5,268.5 "/>
<polygon class="st6" points="630.5,274.7 629.9,276.3 568.4,276.3 567.8,274.7 "/>
<polygon class="st6" points="628.1,281 627.5,282.6 570.8,282.6 570.2,281 "/>
<polygon class="st7" points="626.3,290.9 571.2,290.9 570.7,286.4 626.9,286.4 "/>
<polygon class="st7" points="632.8,367.2 565.2,367.2 564.5,362.8 633.6,362.8 "/>
<polygon class="st7" points="638.8,390.1 622.7,290.9 618.5,290.9 635,390.1 "/>
<polygon class="st7" points="562.7,390.1 579.2,290.9 575,290.9 559,390.1 "/>
<path class="st2" d="M84.9,249c0.2-0.4,0-0.9-0.3-1.1c-9.8-6.9-18.7-15.1-26.5-24.2c-12.1-14.1-26.5-36.8-26.8-64.7
	c0-0.5-0.4-0.9-0.9-0.9c-0.5,0-0.9,0.4-0.9,0.9c0,0,0,0,0,0c0.2,12.9,3.1,25.7,8.6,37.4c4.8,10.3,11.1,19.9,18.5,28.5
	c7.9,9.3,16.9,17.5,26.8,24.5c0.4,0.3,1,0.2,1.2-0.2L84.9,249z"/>
<path class="st2" d="M38.7,193.8c0.2-0.4,0-0.8-0.3-1.1c-0.3-0.2-8.7-5.8-18.6-5.7c-0.5,0-0.9,0.4-0.9,0.9c0,0,0,0,0,0
	c0,0.5,0.4,0.9,0.9,0.9c0,0,0,0,0,0c9.3-0.1,17.5,5.3,17.6,5.4c0.4,0.3,1,0.2,1.2-0.2C38.6,193.9,38.7,193.9,38.7,193.8z"/>
<path class="st2" d="M53.5,218.8c0.1-0.2,0.1-0.5,0-0.7c-6.6-17.2,1.1-29.7,1.2-29.8c0.3-0.4,0.2-1-0.2-1.2s-1-0.2-1.2,0.2l0,0
	c-0.3,0.5-8.3,13.3-1.3,31.4c0.2,0.5,0.7,0.7,1.2,0.5C53.2,219.2,53.4,219,53.5,218.8z"/>
<path class="st2" d="M66.9,233.9c0.1-0.4,0-0.8-0.3-1c-3.2-2.3-6.6-4.1-10.2-5.5c-5.7-2.2-14.5-4.4-24-2.1c-0.5,0.1-0.8,0.6-0.7,1.1
	s0.6,0.8,1.1,0.7l0,0c17.3-4.2,32.5,7.2,32.7,7.3c0.4,0.3,0.9,0.2,1.2-0.2C66.8,234.1,66.9,234,66.9,233.9z"/>
<path class="st4" d="M51.3,194.6c0,0-3.5-21.8,6.5-23.1C70.4,169.7,63.3,192.3,51.3,194.6z"/>
<path class="st4" d="M43,225.2c0,0-18.1-12.6-23.6-4.1C12.3,231.7,35.8,235.1,43,225.2z"/>
<path class="st4" d="M30.4,168.2c0,0-15.6-25.6,0.2-26.4C40.3,141.4,40,161,30.4,168.2z"/>
<path class="st2" d="M61.9,228.8c0.1-0.1,0.1-0.3,0.1-0.5c-1.3-8.9,5.5-14.9,5.6-14.9c0.4-0.3,0.4-0.9,0.1-1.3s-0.9-0.4-1.3-0.1
	c0,0,0,0,0,0c-0.3,0.3-7.6,6.7-6.2,16.5c0.1,0.5,0.5,0.8,1,0.8c0,0,0,0,0,0C61.6,229.3,61.8,229.1,61.9,228.8z"/>
<path class="st4" d="M16.7,191.1c2.2,0.9,4.7-0.1,5.6-2.3c0.9-2.2-0.1-4.7-2.3-5.6c-2.2-0.9-4.7,0.1-5.6,2.3
	C13.4,187.7,14.5,190.2,16.7,191.1z"/>
<path class="st4" d="M65,216.4c2.2,0.9,4.7-0.1,5.6-2.3c0.9-2.2-0.1-4.7-2.3-5.6c-2.2-0.9-4.7,0.1-5.6,2.3
	C61.7,212.9,62.8,215.4,65,216.4z"/>
<path class="st2" d="M530.9,160.1c-0.2-0.4,0-0.9,0.3-1.1c9.9-6.8,18.9-14.8,26.8-23.9c12.2-13.9,27-36.4,27.6-64.4
	c0-0.5,0.4-0.9,0.9-0.9s0.9,0.4,0.9,0.9c-0.3,13-3.4,25.7-9.1,37.4c-5,10.2-11.3,19.7-18.9,28.2c-8,9.2-17.1,17.3-27.2,24.2
	c-0.4,0.3-1,0.2-1.2-0.3c0,0,0,0,0,0C530.9,160.3,530.9,160.2,530.9,160.1z"/>
<path class="st2" d="M577.8,105.6c-0.2-0.4,0-0.9,0.3-1.1c0.3-0.2,8.8-5.7,18.7-5.4c0.5,0,0.9,0.4,0.9,0.9c0,0.5-0.4,0.9-0.9,0.9
	c0,0,0,0,0,0c-9.3-0.2-17.6,5.1-17.7,5.2c-0.4,0.3-1,0.2-1.2-0.2c0,0,0,0,0,0C577.9,105.7,577.8,105.6,577.8,105.6z"/>
<path class="st2" d="M562.6,130.4c-0.1-0.2-0.1-0.4,0-0.7c6.8-17.1-0.7-29.7-0.8-29.8c-0.3-0.4-0.1-1,0.3-1.2c0,0,0,0,0,0
	c0.4-0.3,1-0.1,1.2,0.3c0,0,0,0,0,0c0.3,0.5,8.1,13.4,0.9,31.4c-0.2,0.5-0.7,0.7-1.2,0.5C562.9,130.8,562.7,130.6,562.6,130.4z"/>
<path class="st2" d="M549.1,145.3c-0.1-0.4,0-0.8,0.3-1c3.2-2.2,6.6-4,10.3-5.4c5.7-2.2,14.5-4.3,24-1.8c0.5,0.1,0.8,0.6,0.6,1.1
	c-0.1,0.5-0.6,0.8-1.1,0.6c-17.2-4.4-32.6,6.8-32.8,6.9c-0.4,0.3-0.9,0.2-1.2-0.2c0,0,0,0,0,0C549.1,145.5,549.1,145.4,549.1,145.3z
	"/>
<path class="st4" d="M565.3,106.1c0,0,3.8-21.7-6.2-23.2C546.4,81,553.3,103.7,565.3,106.1z"/>
<path class="st4" d="M573.1,136.9c0,0,18.2-12.3,23.7-3.8C603.6,143.9,580.1,146.9,573.1,136.9z"/>
<path class="st4" d="M586.5,80.1c0,0,15.9-25.4,0.2-26.3C576.9,53.2,576.9,72.7,586.5,80.1z"/>
<path class="st2" d="M554.1,140.3c-0.1-0.1-0.1-0.3-0.1-0.5c1.4-8.8-5.3-14.9-5.4-15c-0.4-0.3-0.4-0.9-0.1-1.3
	c0.3-0.4,0.9-0.4,1.3-0.1c0.3,0.3,7.5,6.8,5.9,16.6c-0.1,0.5-0.5,0.8-1,0.7C554.5,140.7,554.2,140.5,554.1,140.3z"/>
<path class="st4" d="M599.9,103.2c-2.2,0.9-4.7-0.2-5.6-2.4c-0.9-2.2,0.2-4.7,2.4-5.6c2.2-0.9,4.7,0.2,5.6,2.4
	C603.1,99.8,602.1,102.3,599.9,103.2C599.9,103.2,599.9,103.2,599.9,103.2z"/>
<path class="st4" d="M551.3,127.8c-2.2,0.9-4.7-0.2-5.6-2.4c-0.9-2.2,0.2-4.7,2.4-5.6c2.2-0.9,4.7,0.2,5.6,2.4
	C554.5,124.4,553.5,126.9,551.3,127.8C551.3,127.8,551.3,127.8,551.3,127.8z"/>
<ellipse class="st8" cx="26.9" cy="100.2" rx="26.9" ry="26.5"/>
<ellipse class="st9" cx="26.9" cy="96.8" rx="26.9" ry="26.5"/>
<ellipse class="st10" cx="26.9" cy="96.8" rx="21.8" ry="21.6"/>
<path class="st8" d="M48.7,96.8c0,0.6,0,1.1-0.1,1.7c-1.1-12-11.7-20.9-23.8-19.8C14.4,79.6,6,88,5.1,98.5c0-0.6-0.1-1.1-0.1-1.7
	C5,84.7,14.8,75,26.9,75C38.9,75,48.7,84.7,48.7,96.8z"/>
<path class="st7" d="M26.9,99c-0.2,0-0.3-0.1-0.4-0.2L15.7,84.6c-0.2-0.2-0.1-0.6,0.1-0.7c0,0,0,0,0,0c0.2-0.2,0.6-0.1,0.8,0.1l0,0
	L27,97.9l11.9-5.2c0.3-0.1,0.6,0,0.7,0.3c0.1,0.3,0,0.6-0.3,0.7L27.1,99C27,99,26.9,99,26.9,99z"/>
<ellipse class="st1" cx="307.2" cy="389.3" rx="294.3" ry="19.8"/>
<path class="st7" d="M89.2,67.2h437.6c9.9,0,17.9,8,17.9,17.9v257.7c0,9.9-8,17.9-17.9,17.9H89.2c-9.9,0-17.9-8-17.9-17.9V85.1
	C71.2,75.2,79.3,67.2,89.2,67.2z"/>
<path class="st1" d="M523.7,98.5v215c0,6.3-5.5,11.5-12.2,11.5H104.5c-3.4,0-6.7-1.4-9.1-3.8c-2-2-3.1-4.8-3.1-7.6v-215
	c0-6.3,5.5-11.4,12.2-11.4h406.9c2.2,0,4.3,0.5,6.2,1.5C521.3,90.5,523.6,94.3,523.7,98.5z"/>
<path class="st11" d="M588.9,350.6v1.6c0,20.5-16.6,37.1-37.1,37.1c0,0,0,0,0,0H64.2c-20.5,0-37.1-16.6-37.2-37.1c0,0,0,0,0,0v-1.6
	H588.9z"/>
<path class="st7" d="M312.1,370c0,3-2.4,5.4-5.4,5.4s-5.4-2.4-5.4-5.4c0-3,2.4-5.4,5.4-5.4l0,0C309.7,364.6,312.1,367,312.1,370z"/>
<path class="st7" d="M293.2,370c0,3-2.4,5.4-5.4,5.4s-5.4-2.4-5.4-5.4s2.4-5.4,5.4-5.4c0,0,0,0,0,0C290.8,364.6,293.2,367,293.2,370
	z"/>
<path class="st7" d="M331.1,370c0,3-2.4,5.4-5.4,5.4s-5.4-2.4-5.4-5.4c0-3,2.4-5.4,5.4-5.4l0,0C328.7,364.6,331.1,367,331.1,370
	C331.1,370,331.1,370,331.1,370z"/>
<path class="st9" d="M519.5,370c0,3-2.4,5.4-5.4,5.4c-3,0-5.4-2.4-5.4-5.4c0-3,2.4-5.4,5.4-5.4l0,0C517.1,364.6,519.5,367,519.5,370
	C519.5,370,519.5,370,519.5,370z"/>
<path class="st5" d="M538.4,370c0,3-2.4,5.4-5.4,5.4s-5.4-2.4-5.4-5.4c0-3,2.4-5.4,5.4-5.4c0,0,0,0,0,0
	C536,364.6,538.4,367,538.4,370z"/>
<path class="st12" d="M245,350.6v0.4c0,2.9,2,5.3,4.4,5.3h114.7c2.4,0,4.4-2.4,4.4-5.3v-0.4H245z"/>
<path class="st10" d="M523.7,99.3v13.5H92.3V99.3c0-6.7,5.5-12.2,12.2-12.2h406.9C518.2,87,523.7,92.5,523.7,99.3L523.7,99.3z"/>
<path class="st13" d="M489,100.6c0,1.8-1.4,3.2-3.2,3.2s-3.2-1.4-3.2-3.2c0-1.8,1.4-3.2,3.2-3.2c0,0,0,0,0,0
	C487.5,97.4,488.9,98.8,489,100.6z"/>
<path class="st14" d="M499.4,100.6c0,1.8-1.4,3.2-3.2,3.2s-3.2-1.4-3.2-3.2c0-1.8,1.4-3.2,3.2-3.2c0,0,0,0,0,0
	C498,97.4,499.4,98.8,499.4,100.6C499.4,100.6,499.4,100.6,499.4,100.6z"/>
<path class="st15" d="M509.4,100.6c0,1.8-1.4,3.2-3.2,3.2c-1.8,0-3.2-1.4-3.2-3.2c0-1.8,1.4-3.2,3.2-3.2c0,0,0,0,0,0
	C508,97.4,509.4,98.8,509.4,100.6z"/>
<path class="st8" d="M137.6,97.2h328.6c1.8,0,3.3,1.5,3.3,3.3v0.3c0,1.8-1.5,3.3-3.3,3.3H137.6c-1.8,0-3.3-1.5-3.3-3.3v-0.3
	C134.3,98.6,135.8,97.2,137.6,97.2z"/>
<path class="st7" d="M112.7,100.6v3.2c0,0.3-0.3,0.6-0.6,0.6c-0.1,0-0.2,0-0.3-0.1l-2.8-1.6l-2.7-1.6c-0.3-0.2-0.4-0.5-0.2-0.8
	c0.1-0.1,0.1-0.2,0.2-0.2l2.7-1.6l2.8-1.6c0.3-0.2,0.6-0.1,0.8,0.2c0.1,0.1,0.1,0.2,0.1,0.3V100.6z"/>
<path class="st7" d="M117.6,100.6v3.2c0,0.3,0.3,0.6,0.6,0.6c0.1,0,0.2,0,0.3-0.1l2.7-1.6l2.8-1.6c0.3-0.2,0.4-0.5,0.2-0.8
	c-0.1-0.1-0.1-0.2-0.2-0.2l-2.8-1.6l-2.7-1.6c-0.3-0.2-0.6-0.1-0.8,0.2c-0.1,0.1-0.1,0.2-0.1,0.3V100.6z"/>
<g>
	<path class="st10" d="M166.9,123.5h298.7c4.1,0,7.3,3.3,7.3,7.3v161.2c0,4.1-3.3,7.3-7.3,7.3H166.9c-4.1,0-7.3-3.3-7.3-7.3V130.9
		C159.5,126.8,162.8,123.5,166.9,123.5z"/>
	<g>
		<g>
			<path class="st16" d="M281.3,200.3h-42.6c-1.4,0-2.5-1.1-2.5-2.5v-6.9c0-1.4,1.1-2.5,2.5-2.5h42.6c1.4,0,2.5,1.1,2.5,2.5v6.9
				C283.8,199.2,282.7,200.3,281.3,200.3z"/>
			<text transform="matrix(1 0 0 1 247.7913 195.5065)" class="st10 st17 st18">Check Inbox</text>
		</g>
		<g>
			<path class="st19" d="M323.1,200.3h-29.4c-1.2,0-2.1-0.9-2.1-2.1v-7.7c0-1.2,0.9-2.1,2.1-2.1h29.4c1.2,0,2.1,0.9,2.1,2.1v7.7
				C325.2,199.3,324.2,200.3,323.1,200.3z"/>
			<text transform="matrix(1 0 0 1 300.0413 195.7194)" class="st17 st18">QR code</text>
		</g>
		<g>
			<path class="st19" d="M364.5,200.3H335c-1.2,0-2.1-0.9-2.1-2.1v-7.7c0-1.2,0.9-2.1,2.1-2.1h29.4c1.2,0,2.1,0.9,2.1,2.1v7.7
				C366.6,199.3,365.6,200.3,364.5,200.3z"/>
			<text transform="matrix(1 0 0 1 340.5979 195.7194)" class="st17 st18">Generate</text>
		</g>
		<g>
			<path class="st19" d="M405.8,200.3h-29.4c-1.2,0-2.1-0.9-2.1-2.1v-7.7c0-1.2,0.9-2.1,2.1-2.1h29.4c1.2,0,2.1,0.9,2.1,2.1v7.7
				C407.9,199.3,407,200.3,405.8,200.3z"/>
			<text transform="matrix(1 0 0 1 385.9798 195.7194)" class="st17 st18">Copy</text>
		</g>
		<g>
			<path d="M165.8,161.8h-1.2v1.2h1.4v0.3h-1.8v-3.2h1.7v0.3h-1.3v1h1.2V161.8z"/>
			<path d="M166.5,161.6c0-0.2,0-0.4,0-0.6h0.4l0,0.4h0c0.1-0.2,0.4-0.4,0.8-0.4c0.3,0,0.8,0.2,0.8,1v1.4H168v-1.3
				c0-0.4-0.1-0.7-0.5-0.7c-0.3,0-0.5,0.2-0.6,0.4c0,0.1,0,0.1,0,0.2v1.4h-0.4V161.6z"/>
			<path d="M169.6,160.3v0.7h0.6v0.3h-0.6v1.2c0,0.3,0.1,0.4,0.3,0.4c0.1,0,0.2,0,0.2,0l0,0.3c-0.1,0-0.2,0.1-0.4,0.1
				c-0.2,0-0.4-0.1-0.5-0.2c-0.1-0.1-0.2-0.3-0.2-0.6v-1.3h-0.4V161h0.4v-0.6L169.6,160.3z"/>
			<path d="M170.9,162.2c0,0.6,0.4,0.8,0.8,0.8c0.3,0,0.5-0.1,0.6-0.1l0.1,0.3c-0.1,0.1-0.4,0.1-0.8,0.1c-0.7,0-1.1-0.5-1.1-1.2
				s0.4-1.2,1.1-1.2c0.8,0,1,0.7,1,1.1c0,0.1,0,0.2,0,0.2H170.9z M172.1,161.9c0-0.3-0.1-0.7-0.6-0.7c-0.4,0-0.6,0.4-0.6,0.7H172.1z
				"/>
			<path d="M173,161.7c0-0.3,0-0.5,0-0.7h0.4l0,0.5h0c0.1-0.3,0.4-0.5,0.6-0.5c0,0,0.1,0,0.1,0v0.4c0,0-0.1,0-0.1,0
				c-0.3,0-0.5,0.2-0.6,0.5c0,0.1,0,0.1,0,0.2v1.2H173V161.7z"/>
			<path d="M175.8,162.2c0,0.6,0.4,0.8,0.8,0.8c0.3,0,0.5-0.1,0.6-0.1l0.1,0.3c-0.1,0.1-0.4,0.1-0.8,0.1c-0.7,0-1.1-0.5-1.1-1.2
				s0.4-1.2,1.1-1.2c0.8,0,1,0.7,1,1.1c0,0.1,0,0.2,0,0.2H175.8z M177.1,161.9c0-0.3-0.1-0.7-0.6-0.7c-0.4,0-0.6,0.4-0.6,0.7H177.1z
				"/>
			<path d="M178,161.6c0-0.2,0-0.4,0-0.6h0.4l0,0.4h0c0.1-0.2,0.3-0.4,0.7-0.4c0.3,0,0.6,0.2,0.7,0.5h0c0.1-0.1,0.2-0.2,0.3-0.3
				c0.1-0.1,0.3-0.2,0.5-0.2c0.3,0,0.8,0.2,0.8,1v1.4h-0.4V162c0-0.4-0.2-0.7-0.5-0.7c-0.2,0-0.4,0.2-0.5,0.4c0,0.1,0,0.1,0,0.2v1.4
				h-0.4v-1.4c0-0.4-0.2-0.6-0.5-0.6c-0.3,0-0.5,0.2-0.5,0.4c0,0.1,0,0.1,0,0.2v1.4H178V161.6z"/>
			<path d="M183.2,163.3l0-0.3h0c-0.1,0.2-0.4,0.3-0.7,0.3c-0.5,0-0.7-0.3-0.7-0.7c0-0.6,0.5-0.9,1.4-0.9v0c0-0.2-0.1-0.5-0.5-0.5
				c-0.2,0-0.4,0.1-0.6,0.2l-0.1-0.3c0.2-0.1,0.5-0.2,0.8-0.2c0.7,0,0.9,0.5,0.9,0.9v0.9c0,0.2,0,0.4,0,0.6H183.2z M183.2,162.1
				c-0.5,0-1,0.1-1,0.5c0,0.3,0.2,0.4,0.4,0.4c0.3,0,0.5-0.2,0.6-0.4c0,0,0-0.1,0-0.1V162.1z"/>
			<path d="M184.7,160.3c0,0.1-0.1,0.3-0.3,0.3c-0.1,0-0.3-0.1-0.3-0.3c0-0.1,0.1-0.3,0.3-0.3C184.6,160.1,184.7,160.2,184.7,160.3z
				 M184.3,163.3V161h0.4v2.3H184.3z"/>
			<path d="M185.4,159.9h0.4v3.4h-0.4V159.9z"/>
			<path d="M189.6,162.1c0,0.9-0.6,1.2-1.1,1.2c-0.6,0-1.1-0.5-1.1-1.2c0-0.8,0.5-1.2,1.1-1.2C189.2,160.9,189.6,161.4,189.6,162.1z
				 M187.8,162.1c0,0.5,0.3,0.9,0.7,0.9c0.4,0,0.7-0.4,0.7-0.9c0-0.4-0.2-0.9-0.7-0.9C188,161.2,187.8,161.7,187.8,162.1z"/>
			<path d="M190.2,163.3v-2h-0.3V161h0.3v-0.1c0-0.3,0.1-0.6,0.3-0.8c0.2-0.2,0.4-0.2,0.6-0.2c0.1,0,0.3,0,0.4,0.1l-0.1,0.3
				c-0.1,0-0.1-0.1-0.3-0.1c-0.4,0-0.4,0.3-0.4,0.7v0.1h0.6v0.3h-0.6v2H190.2z"/>
			<path d="M192.7,161l0.5,1.4c0.1,0.2,0.1,0.3,0.1,0.5h0c0-0.1,0.1-0.3,0.1-0.5l0.5-1.4h0.4l-0.6,1.6c-0.3,0.8-0.5,1.2-0.8,1.4
				c-0.2,0.2-0.4,0.3-0.5,0.3l-0.1-0.4c0.1,0,0.2-0.1,0.4-0.2c0.1-0.1,0.3-0.3,0.4-0.5c0,0,0-0.1,0-0.1c0,0,0-0.1,0-0.1l-0.9-2.1
				H192.7z"/>
			<path d="M196.8,162.1c0,0.9-0.6,1.2-1.1,1.2c-0.6,0-1.1-0.5-1.1-1.2c0-0.8,0.5-1.2,1.1-1.2C196.4,160.9,196.8,161.4,196.8,162.1z
				 M195,162.1c0,0.5,0.3,0.9,0.7,0.9c0.4,0,0.7-0.4,0.7-0.9c0-0.4-0.2-0.9-0.7-0.9C195.2,161.2,195,161.7,195,162.1z"/>
			<path d="M199.3,162.6c0,0.2,0,0.4,0,0.6h-0.4l0-0.4h0c-0.1,0.2-0.4,0.4-0.8,0.4c-0.4,0-0.8-0.2-0.8-1V161h0.4v1.3
				c0,0.4,0.1,0.7,0.5,0.7c0.3,0,0.5-0.2,0.6-0.4c0-0.1,0-0.1,0-0.2V161h0.4V162.6z"/>
			<path d="M200,161.7c0-0.3,0-0.5,0-0.7h0.4l0,0.5h0c0.1-0.3,0.4-0.5,0.6-0.5c0,0,0.1,0,0.1,0v0.4c0,0-0.1,0-0.1,0
				c-0.3,0-0.5,0.2-0.6,0.5c0,0.1,0,0.1,0,0.2v1.2H200V161.7z"/>
			<path d="M204.2,163.2c-0.1,0.1-0.4,0.1-0.7,0.1c-0.7,0-1.1-0.5-1.1-1.2c0-0.7,0.5-1.2,1.2-1.2c0.2,0,0.5,0.1,0.6,0.1l-0.1,0.3
				c-0.1-0.1-0.3-0.1-0.5-0.1c-0.5,0-0.8,0.4-0.8,0.9c0,0.5,0.3,0.9,0.8,0.9c0.2,0,0.4-0.1,0.5-0.1L204.2,163.2z"/>
			<path d="M204.7,159.9h0.4v1.4h0c0.1-0.1,0.2-0.2,0.3-0.3c0.1-0.1,0.3-0.1,0.4-0.1c0.3,0,0.8,0.2,0.8,1v1.4h-0.4V162
				c0-0.4-0.1-0.7-0.5-0.7c-0.3,0-0.5,0.2-0.6,0.4c0,0.1,0,0.1,0,0.2v1.4h-0.4V159.9z"/>
			<path d="M209.4,162.1c0,0.9-0.6,1.2-1.1,1.2c-0.6,0-1.1-0.5-1.1-1.2c0-0.8,0.5-1.2,1.1-1.2C209,160.9,209.4,161.4,209.4,162.1z
				 M207.6,162.1c0,0.5,0.3,0.9,0.7,0.9c0.4,0,0.7-0.4,0.7-0.9c0-0.4-0.2-0.9-0.7-0.9C207.8,161.2,207.6,161.7,207.6,162.1z"/>
			<path d="M210.4,160.3c0,0.1-0.1,0.3-0.3,0.3c-0.1,0-0.3-0.1-0.3-0.3c0-0.1,0.1-0.3,0.3-0.3C210.3,160.1,210.4,160.2,210.4,160.3z
				 M210,163.3V161h0.4v2.3H210z"/>
			<path d="M212.7,163.2c-0.1,0.1-0.4,0.1-0.7,0.1c-0.7,0-1.1-0.5-1.1-1.2c0-0.7,0.5-1.2,1.2-1.2c0.2,0,0.5,0.1,0.6,0.1l-0.1,0.3
				c-0.1-0.1-0.3-0.1-0.5-0.1c-0.5,0-0.8,0.4-0.8,0.9c0,0.5,0.3,0.9,0.8,0.9c0.2,0,0.4-0.1,0.5-0.1L212.7,163.2z"/>
			<path d="M213.4,162.2c0,0.6,0.4,0.8,0.8,0.8c0.3,0,0.5-0.1,0.6-0.1l0.1,0.3c-0.1,0.1-0.4,0.1-0.8,0.1c-0.7,0-1.1-0.5-1.1-1.2
				s0.4-1.2,1.1-1.2c0.8,0,1,0.7,1,1.1c0,0.1,0,0.2,0,0.2H213.4z M214.7,161.9c0-0.3-0.1-0.7-0.6-0.7c-0.4,0-0.6,0.4-0.6,0.7H214.7z
				"/>
		</g>
		<g>
			<rect x="164" y="166.5" class="st20" width="151.6" height="13.2"/>
			<g>
				<path d="M168.9,171.3h0.4v1.5h0c0.1-0.1,0.2-0.2,0.3-0.3l1-1.2h0.5l-1.2,1.4l1.3,1.9h-0.5l-1.1-1.6l-0.3,0.4v1.2h-0.4V171.3z"/>
				<path d="M171.4,174.1c0.1,0.1,0.3,0.2,0.6,0.2c0.3,0,0.4-0.2,0.4-0.3c0-0.2-0.1-0.3-0.4-0.4c-0.4-0.1-0.6-0.4-0.6-0.7
					c0-0.4,0.3-0.7,0.8-0.7c0.2,0,0.4,0.1,0.6,0.1l-0.1,0.3c-0.1-0.1-0.3-0.1-0.5-0.1c-0.2,0-0.4,0.1-0.4,0.3c0,0.2,0.1,0.3,0.4,0.4
					c0.4,0.2,0.6,0.4,0.6,0.7c0,0.4-0.3,0.7-0.9,0.7c-0.3,0-0.5-0.1-0.6-0.2L171.4,174.1z"/>
				<path d="M172.8,175.2c0.2,0,0.4-0.1,0.5-0.2c0.1-0.1,0.2-0.3,0.2-0.9v-1.9h0.4v2.1c0,0.4-0.1,0.7-0.3,0.9
					c-0.2,0.2-0.5,0.3-0.7,0.3L172.8,175.2z M173.8,171.6c0,0.1-0.1,0.3-0.3,0.3c-0.2,0-0.3-0.1-0.3-0.3c0-0.1,0.1-0.3,0.3-0.3
					C173.7,171.3,173.8,171.4,173.8,171.6z"/>
				<path d="M173.9,175.2c0.2,0,0.4-0.1,0.5-0.2c0.1-0.1,0.2-0.3,0.2-0.9v-1.9h0.4v2.1c0,0.4-0.1,0.7-0.3,0.9
					c-0.2,0.2-0.5,0.3-0.7,0.3L173.9,175.2z M175,171.6c0,0.1-0.1,0.3-0.3,0.3c-0.2,0-0.3-0.1-0.3-0.3c0-0.1,0.1-0.3,0.3-0.3
					C174.9,171.3,175,171.4,175,171.6z"/>
				<path d="M176.9,174.5l0-0.3h0c-0.1,0.2-0.4,0.3-0.7,0.3c-0.5,0-0.7-0.3-0.7-0.7c0-0.6,0.5-0.9,1.4-0.9v0c0-0.2-0.1-0.5-0.5-0.5
					c-0.2,0-0.4,0.1-0.6,0.2l-0.1-0.3c0.2-0.1,0.5-0.2,0.8-0.2c0.7,0,0.9,0.5,0.9,0.9v0.9c0,0.2,0,0.4,0,0.6H176.9z M176.9,173.3
					c-0.5,0-1,0.1-1,0.5c0,0.3,0.2,0.4,0.4,0.4c0.3,0,0.5-0.2,0.6-0.4c0,0,0-0.1,0-0.1V173.3z"/>
				<path d="M177.9,174.1c0.1,0.1,0.3,0.2,0.6,0.2c0.3,0,0.4-0.2,0.4-0.3c0-0.2-0.1-0.3-0.4-0.4c-0.4-0.1-0.6-0.4-0.6-0.7
					c0-0.4,0.3-0.7,0.8-0.7c0.2,0,0.4,0.1,0.6,0.1l-0.1,0.3c-0.1-0.1-0.3-0.1-0.5-0.1c-0.2,0-0.4,0.1-0.4,0.3c0,0.2,0.1,0.3,0.4,0.4
					c0.4,0.2,0.6,0.4,0.6,0.7c0,0.4-0.3,0.7-0.9,0.7c-0.3,0-0.5-0.1-0.6-0.2L177.9,174.1z"/>
				<path d="M181.9,173.3c0,0.9-0.6,1.2-1.1,1.2c-0.6,0-1.1-0.5-1.1-1.2c0-0.8,0.5-1.2,1.1-1.2C181.5,172.2,181.9,172.6,181.9,173.3
					z M180.1,173.4c0,0.5,0.3,0.9,0.7,0.9c0.4,0,0.7-0.4,0.7-0.9c0-0.4-0.2-0.9-0.7-0.9C180.3,172.5,180.1,172.9,180.1,173.4z"/>
				<path d="M182.9,173.3L182.9,173.3c0.1-0.1,0.1-0.2,0.2-0.3l0.7-0.8h0.5l-0.9,0.9l1,1.4h-0.5l-0.8-1.1l-0.2,0.2v0.9h-0.4v-3.4
					h0.4V173.3z"/>
				<path d="M185.2,173.3L185.2,173.3c0.1-0.1,0.1-0.2,0.2-0.3l0.7-0.8h0.5l-0.9,0.9l1,1.4h-0.5l-0.8-1.1l-0.2,0.2v0.9h-0.4v-3.4
					h0.4V173.3z"/>
				<path d="M189.1,173.3c0,0.9-0.6,1.2-1.1,1.2c-0.6,0-1.1-0.5-1.1-1.2c0-0.8,0.5-1.2,1.1-1.2C188.7,172.2,189.1,172.6,189.1,173.3
					z M187.3,173.4c0,0.5,0.3,0.9,0.7,0.9c0.4,0,0.7-0.4,0.7-0.9c0-0.4-0.2-0.9-0.7-0.9C187.5,172.5,187.3,172.9,187.3,173.4z"/>
				<path d="M190.9,174.5l0-0.3h0c-0.1,0.2-0.4,0.3-0.7,0.3c-0.5,0-0.7-0.3-0.7-0.7c0-0.6,0.5-0.9,1.4-0.9v0c0-0.2-0.1-0.5-0.5-0.5
					c-0.2,0-0.4,0.1-0.6,0.2l-0.1-0.3c0.2-0.1,0.5-0.2,0.8-0.2c0.7,0,0.9,0.5,0.9,0.9v0.9c0,0.2,0,0.4,0,0.6H190.9z M190.9,173.3
					c-0.5,0-1,0.1-1,0.5c0,0.3,0.2,0.4,0.4,0.4c0.3,0,0.5-0.2,0.6-0.4c0,0,0-0.1,0-0.1V173.3z"/>
				<path d="M192.2,173.4c0,0.6,0.4,0.8,0.8,0.8c0.3,0,0.5-0.1,0.6-0.1l0.1,0.3c-0.1,0.1-0.4,0.1-0.8,0.1c-0.7,0-1.1-0.5-1.1-1.2
					c0-0.7,0.4-1.2,1.1-1.2c0.8,0,1,0.7,1,1.1c0,0.1,0,0.2,0,0.2H192.2z M193.4,173.1c0-0.3-0.1-0.7-0.6-0.7c-0.4,0-0.6,0.4-0.6,0.7
					H193.4z"/>
				<path d="M194.8,171.6c0,0.1-0.1,0.3-0.3,0.3c-0.1,0-0.3-0.1-0.3-0.3c0-0.1,0.1-0.3,0.3-0.3C194.7,171.3,194.8,171.4,194.8,171.6
					z M194.3,174.5v-2.3h0.4v2.3H194.3z"/>
			</g>
		</g>
		<g>
			<path d="M328.4,163.7c0.2,0.1,0.5,0.2,0.7,0.2c0.4,0,0.7-0.2,0.7-0.5c0-0.3-0.2-0.5-0.6-0.6c-0.5-0.2-0.8-0.5-0.8-0.9
				c0-0.5,0.4-0.9,1-0.9c0.3,0,0.6,0.1,0.7,0.2l-0.1,0.3c-0.1-0.1-0.3-0.2-0.6-0.2c-0.4,0-0.6,0.3-0.6,0.5c0,0.3,0.2,0.4,0.6,0.6
				c0.5,0.2,0.8,0.5,0.8,0.9c0,0.5-0.4,0.9-1.1,0.9c-0.3,0-0.6-0.1-0.8-0.2L328.4,163.7z"/>
			<path d="M331.1,163.1c0,0.6,0.4,0.8,0.8,0.8c0.3,0,0.5-0.1,0.6-0.1l0.1,0.3c-0.1,0.1-0.4,0.1-0.8,0.1c-0.7,0-1.1-0.5-1.1-1.2
				c0-0.7,0.4-1.2,1.1-1.2c0.8,0,1,0.7,1,1.1c0,0.1,0,0.2,0,0.2H331.1z M332.3,162.8c0-0.3-0.1-0.7-0.6-0.7c-0.4,0-0.6,0.4-0.6,0.7
				H332.3z"/>
			<path d="M333.2,160.8h0.4v3.4h-0.4V160.8z"/>
			<path d="M334.6,163.1c0,0.6,0.4,0.8,0.8,0.8c0.3,0,0.5-0.1,0.6-0.1l0.1,0.3c-0.1,0.1-0.4,0.1-0.8,0.1c-0.7,0-1.1-0.5-1.1-1.2
				c0-0.7,0.4-1.2,1.1-1.2c0.8,0,1,0.7,1,1.1c0,0.1,0,0.2,0,0.2H334.6z M335.8,162.8c0-0.3-0.1-0.7-0.6-0.7c-0.4,0-0.6,0.4-0.6,0.7
				H335.8z"/>
			<path d="M338.4,164.1c-0.1,0.1-0.4,0.1-0.7,0.1c-0.7,0-1.1-0.5-1.1-1.2c0-0.7,0.5-1.2,1.2-1.2c0.2,0,0.5,0.1,0.6,0.1l-0.1,0.3
				c-0.1-0.1-0.3-0.1-0.5-0.1c-0.5,0-0.8,0.4-0.8,0.9c0,0.5,0.3,0.9,0.8,0.9c0.2,0,0.4-0.1,0.5-0.1L338.4,164.1z"/>
			<path d="M339.5,161.2v0.7h0.6v0.3h-0.6v1.2c0,0.3,0.1,0.4,0.3,0.4c0.1,0,0.2,0,0.2,0l0,0.3c-0.1,0-0.2,0.1-0.4,0.1
				c-0.2,0-0.4-0.1-0.5-0.2c-0.1-0.1-0.2-0.3-0.2-0.6v-1.3h-0.4v-0.3h0.4v-0.6L339.5,161.2z"/>
			<path d="M342.8,164.2l0-0.3h0c-0.1,0.2-0.4,0.3-0.7,0.3c-0.5,0-0.7-0.3-0.7-0.7c0-0.6,0.5-0.9,1.4-0.9v0c0-0.2-0.1-0.5-0.5-0.5
				c-0.2,0-0.4,0.1-0.6,0.2l-0.1-0.3c0.2-0.1,0.5-0.2,0.8-0.2c0.7,0,0.9,0.5,0.9,0.9v0.9c0,0.2,0,0.4,0,0.6H342.8z M342.8,163
				c-0.5,0-1,0.1-1,0.5c0,0.3,0.2,0.4,0.4,0.4c0.3,0,0.5-0.2,0.6-0.4c0,0,0-0.1,0-0.1V163z"/>
			<path d="M346.8,160.8v2.8c0,0.2,0,0.4,0,0.6h-0.4l0-0.4h0c-0.1,0.3-0.4,0.5-0.8,0.5c-0.6,0-1-0.5-1-1.2c0-0.8,0.5-1.2,1-1.2
				c0.4,0,0.6,0.2,0.7,0.4h0v-1.4H346.8z M346.4,162.8c0-0.1,0-0.1,0-0.2c-0.1-0.3-0.3-0.5-0.6-0.5c-0.4,0-0.7,0.4-0.7,0.9
				c0,0.5,0.2,0.9,0.7,0.9c0.3,0,0.5-0.2,0.6-0.5c0-0.1,0-0.1,0-0.2V162.8z"/>
			<path d="M349.6,163c0,0.9-0.6,1.2-1.1,1.2c-0.6,0-1.1-0.5-1.1-1.2c0-0.8,0.5-1.2,1.1-1.2C349.2,161.8,349.6,162.3,349.6,163z
				 M347.8,163c0,0.5,0.3,0.9,0.7,0.9c0.4,0,0.7-0.4,0.7-0.9c0-0.4-0.2-0.9-0.7-0.9C348,162.1,347.8,162.6,347.8,163z"/>
			<path d="M350.2,162.5c0-0.2,0-0.4,0-0.6h0.4l0,0.4h0c0.1-0.2,0.3-0.4,0.7-0.4c0.3,0,0.6,0.2,0.7,0.5h0c0.1-0.1,0.2-0.2,0.3-0.3
				c0.1-0.1,0.3-0.2,0.5-0.2c0.3,0,0.8,0.2,0.8,1v1.4H353v-1.3c0-0.4-0.2-0.7-0.5-0.7c-0.2,0-0.4,0.2-0.5,0.4c0,0.1,0,0.1,0,0.2v1.4
				h-0.4v-1.4c0-0.4-0.2-0.6-0.5-0.6c-0.3,0-0.5,0.2-0.5,0.4c0,0.1,0,0.1,0,0.2v1.4h-0.4V162.5z"/>
			<path d="M355.4,164.2l0-0.3h0c-0.1,0.2-0.4,0.3-0.7,0.3c-0.5,0-0.7-0.3-0.7-0.7c0-0.6,0.5-0.9,1.4-0.9v0c0-0.2-0.1-0.5-0.5-0.5
				c-0.2,0-0.4,0.1-0.6,0.2l-0.1-0.3c0.2-0.1,0.5-0.2,0.8-0.2c0.7,0,0.9,0.5,0.9,0.9v0.9c0,0.2,0,0.4,0,0.6H355.4z M355.4,163
				c-0.5,0-1,0.1-1,0.5c0,0.3,0.2,0.4,0.4,0.4c0.3,0,0.5-0.2,0.6-0.4c0,0,0-0.1,0-0.1V163z"/>
			<path d="M356.9,161.2c0,0.1-0.1,0.3-0.3,0.3c-0.1,0-0.3-0.1-0.3-0.3c0-0.1,0.1-0.3,0.3-0.3C356.8,161,356.9,161.1,356.9,161.2z
				 M356.4,164.2v-2.3h0.4v2.3H356.4z"/>
			<path d="M357.6,162.5c0-0.2,0-0.4,0-0.6h0.4l0,0.4h0c0.1-0.2,0.4-0.4,0.8-0.4c0.3,0,0.8,0.2,0.8,1v1.4h-0.4v-1.3
				c0-0.4-0.1-0.7-0.5-0.7c-0.3,0-0.5,0.2-0.6,0.4c0,0.1,0,0.1,0,0.2v1.4h-0.4V162.5z"/>
		</g>
		<g>
			<rect x="328.6" y="166.5" class="st21" width="134.6" height="13.2"/>
			<g>
				<path d="M334,174.8v-3.2h0.5l1,1.6c0.2,0.4,0.4,0.7,0.6,1l0,0c0-0.4,0-0.8,0-1.3v-1.3h0.4v3.2H336l-1-1.6
					c-0.2-0.4-0.4-0.7-0.6-1.1l0,0c0,0.4,0,0.8,0,1.3v1.4H334z"/>
				<path d="M339.2,173.6c0,0.9-0.6,1.2-1.1,1.2c-0.6,0-1.1-0.5-1.1-1.2c0-0.8,0.5-1.2,1.1-1.2C338.7,172.4,339.2,172.9,339.2,173.6
					z M337.3,173.6c0,0.5,0.3,0.9,0.7,0.9c0.4,0,0.7-0.4,0.7-0.9c0-0.4-0.2-0.9-0.7-0.9C337.6,172.7,337.3,173.2,337.3,173.6z"/>
				<path d="M341.8,173.6c0,0.9-0.6,1.2-1.1,1.2c-0.6,0-1.1-0.5-1.1-1.2c0-0.8,0.5-1.2,1.1-1.2C341.4,172.4,341.8,172.9,341.8,173.6
					z M340,173.6c0,0.5,0.3,0.9,0.7,0.9c0.4,0,0.7-0.4,0.7-0.9c0-0.4-0.2-0.9-0.7-0.9C340.2,172.7,340,173.2,340,173.6z"/>
				<path d="M342.3,173.2c0-0.3,0-0.5,0-0.8h0.4l0,0.4h0c0.2-0.3,0.4-0.4,0.8-0.4c0.6,0,1,0.5,1,1.2c0,0.8-0.5,1.2-1,1.2
					c-0.3,0-0.6-0.1-0.7-0.4h0v1.3h-0.4V173.2z M342.7,173.8c0,0.1,0,0.1,0,0.2c0.1,0.3,0.3,0.5,0.6,0.5c0.4,0,0.7-0.4,0.7-0.9
					c0-0.5-0.2-0.9-0.7-0.9c-0.3,0-0.6,0.2-0.6,0.5c0,0.1,0,0.1,0,0.2V173.8z"/>
				<path d="M345,173.1c0-0.2,0-0.4,0-0.6h0.4l0,0.4h0c0.1-0.2,0.3-0.4,0.7-0.4c0.3,0,0.6,0.2,0.7,0.5h0c0.1-0.1,0.2-0.2,0.3-0.3
					c0.1-0.1,0.3-0.2,0.5-0.2c0.3,0,0.8,0.2,0.8,1v1.4h-0.4v-1.3c0-0.4-0.2-0.7-0.5-0.7c-0.2,0-0.4,0.2-0.5,0.4c0,0.1,0,0.1,0,0.2
					v1.4h-0.4v-1.4c0-0.4-0.2-0.6-0.5-0.6c-0.3,0-0.5,0.2-0.5,0.4c0,0.1,0,0.1,0,0.2v1.4H345V173.1z"/>
				<path d="M350.3,174.8l0-0.3h0c-0.1,0.2-0.4,0.3-0.7,0.3c-0.5,0-0.7-0.3-0.7-0.7c0-0.6,0.5-0.9,1.4-0.9v0c0-0.2-0.1-0.5-0.5-0.5
					c-0.2,0-0.4,0.1-0.6,0.2l-0.1-0.3c0.2-0.1,0.5-0.2,0.8-0.2c0.7,0,0.9,0.5,0.9,0.9v0.9c0,0.2,0,0.4,0,0.6H350.3z M350.2,173.6
					c-0.5,0-1,0.1-1,0.5c0,0.3,0.2,0.4,0.4,0.4c0.3,0,0.5-0.2,0.6-0.4c0,0,0-0.1,0-0.1V173.6z"/>
				<path d="M351.8,171.8c0,0.1-0.1,0.3-0.3,0.3c-0.1,0-0.3-0.1-0.3-0.3c0-0.1,0.1-0.3,0.3-0.3C351.7,171.5,351.8,171.7,351.8,171.8
					z M351.3,174.8v-2.3h0.4v2.3H351.3z"/>
				<path d="M352.4,171.4h0.4v3.4h-0.4V171.4z"/>
				<path d="M353.4,174.5c0-0.2,0.1-0.3,0.3-0.3c0.2,0,0.3,0.1,0.3,0.3c0,0.2-0.1,0.3-0.3,0.3C353.5,174.8,353.4,174.7,353.4,174.5z
					"/>
				<path d="M356.6,173.6c0,0.9-0.6,1.2-1.1,1.2c-0.6,0-1.1-0.5-1.1-1.2c0-0.8,0.5-1.2,1.1-1.2C356.2,172.4,356.6,172.9,356.6,173.6
					z M354.8,173.6c0,0.5,0.3,0.9,0.7,0.9c0.4,0,0.7-0.4,0.7-0.9c0-0.4-0.2-0.9-0.7-0.9C355,172.7,354.8,173.2,354.8,173.6z"/>
				<path d="M357.1,173.2c0-0.3,0-0.5,0-0.7h0.4l0,0.5h0c0.1-0.3,0.4-0.5,0.6-0.5c0,0,0.1,0,0.1,0v0.4c0,0-0.1,0-0.1,0
					c-0.3,0-0.5,0.2-0.6,0.5c0,0.1,0,0.1,0,0.2v1.2h-0.4V173.2z"/>
				<path d="M360.6,172.5c0,0.2,0,0.4,0,0.6v1.3c0,0.5-0.1,0.9-0.3,1.1c-0.2,0.2-0.5,0.3-0.8,0.3c-0.3,0-0.6-0.1-0.8-0.2l0.1-0.3
					c0.2,0.1,0.4,0.2,0.7,0.2c0.4,0,0.7-0.2,0.7-0.8v-0.3h0c-0.1,0.2-0.4,0.4-0.7,0.4c-0.6,0-1-0.5-1-1.1c0-0.8,0.5-1.2,1-1.2
					c0.4,0,0.6,0.2,0.7,0.4h0l0-0.3H360.6z M360.2,173.4c0-0.1,0-0.1,0-0.2c-0.1-0.2-0.3-0.4-0.6-0.4c-0.4,0-0.7,0.3-0.7,0.9
					c0,0.5,0.2,0.8,0.7,0.8c0.3,0,0.5-0.2,0.6-0.4c0-0.1,0-0.2,0-0.2V173.4z"/>
			</g>
		</g>
		<g>
			<text transform="matrix(1.5553 0 0 1 297.8256 239.2168)" class="st17 st22">Your mailbox is empty</text>
			<g>
				<g>
					<path d="M291.8,243.5l-0.2-1.7c0,0,0-0.1-0.1-0.1l-0.2-0.1l0-0.1h1.1l0,0.1l-0.4,0.1l0.2,1.2l0,0.2h0l1-1.2l0.3-0.4h0.3
						l0.2,1.4l0,0.2h0l1.2-1.4l-0.4-0.1l0-0.1h1l0,0.1l-0.2,0.1c0,0,0,0-0.1,0s0,0-0.1,0l-1.2,1.4l-0.3,0.4h-0.3l-0.2-1.4l0-0.2h0
						l-1,1.2l-0.4,0.4H291.8z"/>
					<path d="M297.4,242.6l0,0.1c-0.2,0-0.4,0-0.6,0c-0.2,0-0.3,0-0.4,0.1c-0.1,0-0.1,0.1-0.1,0.2c0,0.1,0,0.1,0.1,0.2
						c0.1,0,0.2,0.1,0.2,0.1c0.1,0,0.2,0,0.3,0c0.1,0,0.2-0.1,0.3-0.1L297.4,242.6c0-0.1,0-0.1,0-0.2s0,0,0-0.1c0,0,0,0,0,0
						c0-0.1,0-0.1-0.1-0.2c-0.1,0-0.2,0-0.3,0c-0.1,0-0.2,0-0.3,0c-0.1,0-0.2,0.1-0.3,0.1c-0.1,0-0.2,0.1-0.2,0.1h-0.1l0-0.3l0.2,0
						c0.1,0,0.2,0,0.3-0.1c0.1,0,0.2,0,0.4,0c0.1,0,0.2,0,0.3,0c0.1,0,0.2,0,0.2,0.1s0.1,0.1,0.2,0.1c0,0,0.1,0.1,0.1,0.2
						c0,0,0,0.1,0,0.1c0,0,0,0.1,0,0.1l-0.1,0.4c0,0,0,0.1,0,0.1s0,0.1,0,0.1c0,0,0,0.1,0,0.1c0,0,0,0.1,0,0.1c0,0,0.1,0,0.2,0
						c0,0,0.1,0,0.1,0c0,0,0.1,0,0.1,0h0.1v0.1c-0.1,0-0.2,0.1-0.3,0.1s-0.2,0-0.3,0c-0.1,0-0.2,0-0.2,0c0,0-0.1-0.1-0.1-0.1
						c0,0,0-0.1,0-0.1h0c-0.1,0.1-0.2,0.1-0.3,0.2s-0.2,0.1-0.3,0.1s-0.2,0-0.2,0c-0.1,0-0.2,0-0.3-0.1s-0.1-0.1-0.2-0.1
						s-0.1-0.1-0.1-0.2c0-0.1,0-0.2,0.1-0.3c0.1-0.1,0.2-0.1,0.3-0.2c0.1,0,0.3-0.1,0.4-0.1c0.1,0,0.3,0,0.4,0c0,0,0.1,0,0.1,0
						c0,0,0.1,0,0.1,0c0,0,0.1,0,0.1,0C297.3,242.6,297.3,242.6,297.4,242.6z"/>
					<path d="M298.9,243.5c-0.1,0-0.2,0-0.2,0c-0.1,0-0.1,0-0.1-0.1c0,0,0-0.1,0-0.1c0,0,0-0.1,0-0.1c0,0,0-0.1,0-0.1l0.3-0.8
						c0,0,0,0,0,0c0,0,0,0-0.1,0l-0.3-0.1V242l0.9-0.1l-0.3,0.9c0,0,0,0,0,0.1s0,0.1,0,0.1c0,0,0,0.1,0,0.1s0,0,0,0.1
						c0,0,0,0.1,0,0.1c0,0,0.1,0,0.2,0c0,0,0.1,0,0.1,0c0,0,0.1,0,0.1,0h0.1v0.1c-0.1,0-0.1,0-0.2,0.1c-0.1,0-0.2,0-0.2,0
						C299,243.5,299,243.5,298.9,243.5z M299.3,241.7c-0.1,0-0.1,0-0.1,0c0,0-0.1,0-0.1-0.1c0,0,0-0.1,0-0.1c0-0.1,0-0.1,0.1-0.1
						c0.1,0,0.1,0,0.2,0c0.1,0,0.2,0,0.2,0c0.1,0,0.1,0.1,0.1,0.1c0,0.1,0,0.1-0.1,0.1C299.4,241.7,299.4,241.7,299.3,241.7z"/>
					<path d="M300.5,243.5c-0.1,0-0.3,0-0.4-0.1c-0.1,0-0.1-0.1-0.1-0.2c0,0,0,0,0-0.1c0,0,0-0.1,0-0.1c0,0,0-0.1,0-0.1l0.3-0.8H300
						V242c0.1,0,0.2,0,0.3,0c0.1,0,0.1,0,0.2-0.1c0,0,0.1-0.1,0.1-0.1l0.1-0.2l0.4,0l-0.5,1.4c0,0,0,0,0,0.1c0,0,0,0.1,0,0.1
						c0,0,0,0,0,0.1c0,0,0,0.1,0.1,0.1s0.1,0,0.1,0c0.1,0,0.1,0,0.1,0c0,0,0.1,0,0.1,0s0.1,0,0.1,0c0,0,0.1,0,0.1,0h0.1v0.1
						c0,0-0.1,0-0.2,0.1c-0.1,0-0.2,0-0.3,0.1S300.6,243.5,300.5,243.5z M300.8,242.1l0.1-0.2h0.8l0,0.2H300.8z"/>
					<path d="M302.3,243.5c-0.1,0-0.2,0-0.2,0c-0.1,0-0.1,0-0.1-0.1c0,0,0-0.1,0-0.1c0,0,0-0.1,0-0.1c0,0,0-0.1,0-0.1l0.3-0.8
						c0,0,0,0,0,0c0,0,0,0-0.1,0l-0.3-0.1V242l0.9-0.1l-0.3,0.9c0,0,0,0,0,0.1s0,0.1,0,0.1c0,0,0,0.1,0,0.1s0,0,0,0.1
						c0,0,0,0.1,0,0.1c0,0,0.1,0,0.2,0c0,0,0.1,0,0.1,0c0,0,0.1,0,0.1,0h0.1v0.1c-0.1,0-0.1,0-0.2,0.1c-0.1,0-0.2,0-0.2,0
						C302.4,243.5,302.3,243.5,302.3,243.5z M302.6,241.7c-0.1,0-0.1,0-0.1,0c0,0-0.1,0-0.1-0.1c0,0,0-0.1,0-0.1
						c0-0.1,0-0.1,0.1-0.1c0.1,0,0.1,0,0.2,0c0.1,0,0.2,0,0.2,0c0.1,0,0.1,0.1,0.1,0.1c0,0.1,0,0.1-0.1,0.1
						C302.8,241.7,302.7,241.7,302.6,241.7z"/>
					<path d="M305.1,243.5c-0.1,0-0.2,0-0.2,0c-0.1,0-0.1,0-0.1-0.1c0,0,0-0.1,0-0.1c0,0,0-0.1,0-0.1c0,0,0-0.1,0-0.1l0.2-0.5
						c0,0,0-0.1,0-0.1c0,0,0-0.1,0-0.1c0-0.1,0-0.1-0.1-0.1s-0.2-0.1-0.3-0.1c-0.1,0-0.2,0-0.3,0s-0.2,0.1-0.3,0.1l-0.3,0.9
						c0,0,0,0.1,0,0.1c0,0,0,0.1,0,0.1h-0.5l0.4-1.2c0,0,0,0,0,0c0,0,0,0-0.1,0l-0.2-0.1V242l0.8-0.1l-0.1,0.2h0
						c0.1-0.1,0.2-0.1,0.3-0.2c0.1,0,0.2-0.1,0.3-0.1c0.1,0,0.2,0,0.2,0c0.2,0,0.3,0,0.4,0.1c0.1,0.1,0.2,0.1,0.2,0.3c0,0,0,0,0,0.1
						c0,0,0,0.1,0,0.1l-0.2,0.5c0,0.1,0,0.1-0.1,0.2c0,0.1,0,0.1,0,0.1c0,0,0,0.1,0,0.1c0,0,0.1,0,0.2,0c0,0,0.1,0,0.1,0
						c0,0,0.1,0,0.1,0h0.1v0.1c-0.1,0-0.1,0-0.2,0.1c-0.1,0-0.1,0-0.2,0S305.2,243.5,305.1,243.5z"/>
					<path d="M306.6,244.1c-0.1,0-0.3,0-0.4,0c-0.1,0-0.2,0-0.2,0l0-0.3h0.1c0,0,0.1,0,0.1,0c0.1,0,0.1,0,0.2,0c0.1,0,0.1,0,0.2,0
						c0.2,0,0.3,0,0.4,0c0.1,0,0.2,0,0.2-0.1c0,0,0.1,0,0.1-0.1c0,0,0-0.1,0.1-0.1c0-0.1,0-0.1,0.1-0.2l0.1-0.2l0,0
						c-0.1,0.1-0.2,0.1-0.3,0.2c-0.1,0-0.2,0.1-0.3,0.1s-0.1,0-0.2,0c-0.2,0-0.3,0-0.4-0.1c-0.1,0-0.2-0.1-0.2-0.2
						c-0.1-0.1-0.1-0.2-0.1-0.3c0-0.1,0-0.2,0.1-0.3s0.1-0.2,0.3-0.3s0.2-0.2,0.4-0.2c0.2-0.1,0.3-0.1,0.5-0.1c0.1,0,0.2,0,0.3,0
						s0.1,0.1,0.2,0.1l0.1-0.1h0.4c0,0-0.1,0.1-0.1,0.1c0,0.1-0.1,0.1-0.1,0.2l-0.3,1.1c0,0.1-0.1,0.2-0.2,0.3
						c-0.1,0.1-0.2,0.2-0.3,0.2c-0.1,0.1-0.3,0.1-0.4,0.2C306.9,244.1,306.8,244.1,306.6,244.1z M307,243.2c0.1,0,0.2,0,0.2,0
						c0.1,0,0.2-0.1,0.3-0.1l0.3-0.9c0,0-0.1,0-0.2,0c-0.1,0-0.1,0-0.2,0c-0.1,0-0.1,0-0.2,0c-0.1,0-0.3,0-0.4,0.1
						c-0.1,0-0.2,0.1-0.3,0.2c-0.1,0.1-0.1,0.1-0.1,0.2c0,0.1,0,0.2,0,0.2s0,0.2,0.1,0.2c0,0.1,0.1,0.1,0.2,0.2
						C306.8,243.2,306.9,243.2,307,243.2z"/>
					<path d="M310.6,242.2c0-0.2,0.1-0.3,0.2-0.4c0.1-0.1,0.1-0.2,0.2-0.3c0.1-0.1,0.2-0.1,0.3-0.2c0.1,0,0.2-0.1,0.3-0.1
						c0.1,0,0.2,0,0.3,0c0,0,0.1,0,0.1,0c0,0,0.1,0,0.1,0s0.1,0,0.1,0l0,0.3H312c0,0-0.1,0-0.1,0c0,0-0.1,0-0.1,0s-0.1,0-0.2,0
						c-0.1,0-0.2,0-0.2,0c0,0-0.1,0-0.1,0.1c0,0,0,0,0,0.1s0,0.1,0,0.1s0,0.1,0,0.1c0,0,0,0.1-0.1,0.2l-0.4,1.3
						c0,0.1-0.1,0.2-0.2,0.3c-0.1,0.1-0.2,0.2-0.3,0.2c-0.1,0.1-0.2,0.1-0.3,0.2c-0.1,0-0.2,0.1-0.4,0.1c0,0-0.1,0-0.1,0
						s-0.1,0-0.1,0s-0.1,0-0.1,0l0-0.3h0.1c0,0,0.1,0,0.1,0c0,0,0.1,0,0.1,0s0.1,0,0.2,0c0.1,0,0.1,0,0.2,0c0,0,0.1,0,0.1,0
						c0,0,0,0,0.1-0.1c0,0,0.1-0.1,0.1-0.2c0-0.1,0.1-0.2,0.1-0.3L310.6,242.2z M310.2,242h1.4l0,0.2h-1.4L310.2,242z"/>
					<path d="M312.7,243.5c-0.2,0-0.4,0-0.5-0.1c-0.1-0.1-0.2-0.1-0.3-0.2s-0.1-0.2-0.1-0.3c0-0.1,0-0.2,0.1-0.4
						c0.1-0.1,0.1-0.2,0.3-0.3s0.2-0.2,0.4-0.2c0.2,0,0.3-0.1,0.5-0.1c0.2,0,0.4,0,0.5,0.1s0.2,0.1,0.3,0.2c0.1,0.1,0.1,0.2,0.1,0.3
						c0,0.1,0,0.2-0.1,0.4c-0.1,0.1-0.1,0.2-0.3,0.3c-0.1,0.1-0.2,0.2-0.4,0.2C313,243.5,312.9,243.5,312.7,243.5z M312.7,243.3
						c0.1,0,0.2,0,0.3,0c0.1,0,0.2-0.1,0.2-0.1c0.1-0.1,0.1-0.1,0.2-0.2c0-0.1,0.1-0.1,0.1-0.2c0-0.1,0-0.1,0-0.2c0-0.1,0-0.2,0-0.2
						c0-0.1-0.1-0.1-0.2-0.2c-0.1,0-0.2-0.1-0.3-0.1c-0.1,0-0.2,0-0.3,0.1c-0.1,0-0.2,0.1-0.2,0.1s-0.1,0.1-0.1,0.2
						c0,0.1-0.1,0.1-0.1,0.2c0,0.1,0,0.1,0,0.2c0,0.1,0,0.1,0,0.2s0.1,0.1,0.2,0.2C312.5,243.3,312.6,243.3,312.7,243.3z"/>
					<path d="M314.9,243.4h-0.5l0.3-1.1c0,0,0,0,0-0.1c0,0,0,0,0-0.1c0,0,0,0,0-0.1c0,0,0,0-0.1,0l-0.2-0.1V242l0.8-0.1l-0.1,0.3h0
						c0.1-0.1,0.2-0.1,0.3-0.2c0.1,0,0.2-0.1,0.2-0.1c0.1,0,0.1,0,0.2,0c0.1,0,0.1,0,0.2,0c0.1,0,0.1,0,0.2,0.1l0,0.3H316l-0.1-0.1
						c0,0,0,0-0.1,0s-0.1,0-0.1,0c-0.1,0-0.2,0-0.2,0c-0.1,0-0.1,0.1-0.2,0.1c-0.1,0-0.1,0.1-0.2,0.1l-0.2,0.8c0,0,0,0.1,0,0.1
						C314.9,243.3,314.9,243.3,314.9,243.4C314.9,243.4,314.9,243.4,314.9,243.4z"/>
					<path d="M318.3,243.5c-0.1,0-0.2,0-0.2,0c-0.1,0-0.1,0-0.1-0.1c0,0,0-0.1,0-0.1c0,0,0-0.1,0-0.1c0,0,0-0.1,0-0.1l0.3-0.8
						c0,0,0,0,0,0c0,0,0,0-0.1,0l-0.3-0.1V242l0.9-0.1l-0.3,0.9c0,0,0,0,0,0.1s0,0.1,0,0.1c0,0,0,0.1,0,0.1s0,0,0,0.1
						c0,0,0,0.1,0,0.1c0,0,0.1,0,0.2,0c0,0,0.1,0,0.1,0c0,0,0.1,0,0.1,0h0.1v0.1c-0.1,0-0.1,0-0.2,0.1c-0.1,0-0.2,0-0.2,0
						C318.5,243.5,318.4,243.5,318.3,243.5z M318.7,241.7c-0.1,0-0.1,0-0.1,0c0,0-0.1,0-0.1-0.1c0,0,0-0.1,0-0.1
						c0-0.1,0-0.1,0.1-0.1c0.1,0,0.1,0,0.2,0c0.1,0,0.2,0,0.2,0c0.1,0,0.1,0.1,0.1,0.1c0,0.1,0,0.1-0.1,0.1
						C318.9,241.7,318.8,241.7,318.7,241.7z"/>
					<path d="M320.2,243.5c-0.2,0-0.4,0-0.5-0.1c-0.1-0.1-0.2-0.1-0.3-0.2c-0.1-0.1-0.1-0.2-0.1-0.3c0-0.1,0-0.3,0.1-0.4
						c0.1-0.1,0.2-0.2,0.3-0.3c0.1-0.1,0.3-0.1,0.4-0.2c0.2,0,0.3-0.1,0.5-0.1c0.1,0,0.3,0,0.4,0c0.1,0,0.2,0.1,0.2,0.1l0,0.3h-0.1
						c-0.1,0-0.1-0.1-0.2-0.1s-0.2-0.1-0.3-0.1c-0.1,0-0.2,0-0.2,0c-0.1,0-0.1,0-0.1,0c0,0-0.1,0-0.1,0c-0.1,0-0.2,0.1-0.2,0.2
						c-0.1,0.1-0.1,0.1-0.1,0.2s0,0.2,0,0.2c0,0.1,0,0.2,0.1,0.2s0.1,0.1,0.2,0.2c0.1,0,0.2,0.1,0.3,0.1c0.1,0,0.2,0,0.3,0
						c0.1,0,0.2-0.1,0.2-0.1l0.1-0.1h0.1l0,0.2c-0.1,0-0.2,0.1-0.2,0.1c-0.1,0-0.2,0.1-0.3,0.1C320.5,243.5,320.4,243.5,320.2,243.5
						z"/>
					<path d="M322.5,243.5c-0.2,0-0.4,0-0.5-0.1c-0.1-0.1-0.2-0.1-0.3-0.2s-0.1-0.2-0.1-0.3c0-0.1,0-0.2,0.1-0.4
						c0.1-0.1,0.1-0.2,0.3-0.3s0.2-0.2,0.4-0.2c0.2,0,0.3-0.1,0.5-0.1c0.2,0,0.4,0,0.5,0.1s0.2,0.1,0.3,0.2c0.1,0.1,0.1,0.2,0.1,0.3
						c0,0.1,0,0.2-0.1,0.4s-0.1,0.2-0.3,0.3c-0.1,0.1-0.2,0.2-0.4,0.2S322.7,243.5,322.5,243.5z M322.5,243.3c0.1,0,0.2,0,0.3,0
						c0.1,0,0.2-0.1,0.2-0.1s0.1-0.1,0.2-0.2c0-0.1,0.1-0.1,0.1-0.2c0-0.1,0-0.1,0-0.2c0-0.1,0-0.2,0-0.2c0-0.1-0.1-0.1-0.2-0.2
						c-0.1,0-0.2-0.1-0.3-0.1c-0.1,0-0.2,0-0.3,0.1c-0.1,0-0.2,0.1-0.2,0.1s-0.1,0.1-0.1,0.2c0,0.1-0.1,0.1-0.1,0.2
						c0,0.1,0,0.1,0,0.2c0,0.1,0,0.1,0,0.2s0.1,0.1,0.2,0.2C322.3,243.3,322.4,243.3,322.5,243.3z"/>
					<path d="M324.2,243.4l0.4-1.2c0,0,0,0,0,0s0,0-0.1,0l-0.2-0.1V242l0.8-0.1l-0.1,0.2h0c0.1-0.1,0.2-0.1,0.3-0.2
						c0.1,0,0.2-0.1,0.3-0.1c0.1,0,0.2,0,0.2,0c0.1,0,0.2,0,0.3,0c0.1,0,0.1,0.1,0.2,0.1s0.1,0.1,0.1,0.2l-0.3,0.9c0,0,0,0.1,0,0.1
						c0,0,0,0.1,0,0.1h-0.5l0.3-0.9c0,0,0-0.1,0-0.1c0,0,0-0.1,0-0.1c0-0.1,0-0.1-0.1-0.1c-0.1,0-0.1-0.1-0.3-0.1
						c-0.1,0-0.2,0-0.3,0c-0.1,0-0.2,0.1-0.3,0.1l-0.3,0.9c0,0,0,0.1,0,0.1c0,0,0,0.1,0,0.1H324.2z M327.3,243.5c-0.1,0-0.2,0-0.2,0
						c-0.1,0-0.1,0-0.1-0.1s0-0.1,0-0.1c0,0,0-0.1,0-0.1c0,0,0-0.1,0-0.1l0.2-0.5c0,0,0-0.1,0-0.1c0,0,0-0.1,0-0.1
						c0-0.1,0-0.1-0.1-0.1c-0.1,0-0.1-0.1-0.3-0.1c-0.1,0-0.2,0-0.3,0s-0.2,0.1-0.3,0.1l0-0.1c0.1-0.1,0.3-0.2,0.4-0.2
						c0.1,0,0.2-0.1,0.3-0.1c0.1,0,0.2,0,0.2,0c0.2,0,0.3,0,0.4,0.1c0.1,0.1,0.2,0.1,0.2,0.3c0,0,0,0,0,0.1c0,0,0,0.1,0,0.1
						l-0.2,0.4c0,0,0,0.1,0,0.1c0,0,0,0.1,0,0.1c0,0,0,0.1,0,0.1c0,0,0,0.1,0,0.1s0.1,0,0.2,0c0,0,0.1,0,0.1,0c0,0,0.1,0,0.1,0h0.1
						v0.1c-0.1,0-0.1,0-0.2,0.1c-0.1,0-0.1,0-0.2,0C327.5,243.5,327.4,243.5,327.3,243.5z"/>
					<path d="M328.8,243.5c-0.1,0-0.2,0-0.2,0c-0.1,0-0.1,0-0.1-0.1c0,0,0-0.1,0-0.1c0,0,0-0.1,0-0.1s0-0.1,0-0.1l0.3-0.8
						c0,0,0,0,0,0c0,0,0,0-0.1,0l-0.3-0.1V242l0.9-0.1l-0.3,0.9c0,0,0,0,0,0.1c0,0,0,0.1,0,0.1s0,0.1,0,0.1c0,0,0,0,0,0.1
						c0,0,0,0.1,0,0.1c0,0,0.1,0,0.2,0c0,0,0.1,0,0.1,0c0,0,0.1,0,0.1,0h0.1v0.1c-0.1,0-0.1,0-0.2,0.1c-0.1,0-0.2,0-0.2,0
						C328.9,243.5,328.8,243.5,328.8,243.5z M329.1,241.7c-0.1,0-0.1,0-0.1,0c0,0-0.1,0-0.1-0.1c0,0,0-0.1,0-0.1
						c0-0.1,0-0.1,0.1-0.1c0.1,0,0.1,0,0.2,0c0.1,0,0.2,0,0.2,0s0.1,0.1,0.1,0.1c0,0.1,0,0.1-0.1,0.1
						C329.3,241.7,329.2,241.7,329.1,241.7z"/>
					<path d="M331.6,243.5c-0.1,0-0.2,0-0.2,0c-0.1,0-0.1,0-0.1-0.1c0,0,0-0.1,0-0.1c0,0,0-0.1,0-0.1c0,0,0-0.1,0-0.1l0.2-0.5
						c0,0,0-0.1,0-0.1c0,0,0-0.1,0-0.1c0-0.1,0-0.1-0.1-0.1s-0.2-0.1-0.3-0.1c-0.1,0-0.2,0-0.3,0c-0.1,0-0.2,0.1-0.3,0.1l-0.3,0.9
						c0,0,0,0.1,0,0.1c0,0,0,0.1,0,0.1h-0.5l0.4-1.2c0,0,0,0,0,0c0,0,0,0-0.1,0l-0.2-0.1V242l0.8-0.1l-0.1,0.2h0
						c0.1-0.1,0.2-0.1,0.3-0.2c0.1,0,0.2-0.1,0.3-0.1c0.1,0,0.2,0,0.2,0c0.2,0,0.3,0,0.4,0.1c0.1,0.1,0.2,0.1,0.2,0.3c0,0,0,0,0,0.1
						c0,0,0,0.1,0,0.1l-0.2,0.5c0,0.1,0,0.1-0.1,0.2c0,0.1,0,0.1,0,0.1c0,0,0,0.1,0,0.1s0.1,0,0.2,0c0,0,0.1,0,0.1,0
						c0,0,0.1,0,0.1,0h0.1v0.1c-0.1,0-0.1,0-0.2,0.1c-0.1,0-0.1,0-0.2,0C331.8,243.5,331.7,243.5,331.6,243.5z"/>
					<path d="M333.1,244.1c-0.1,0-0.3,0-0.3,0c-0.1,0-0.2,0-0.2,0l0-0.3h0.1c0,0,0.1,0,0.1,0c0.1,0,0.1,0,0.2,0c0.1,0,0.1,0,0.2,0
						c0.2,0,0.3,0,0.4,0c0.1,0,0.2,0,0.2-0.1c0,0,0.1,0,0.1-0.1c0,0,0-0.1,0.1-0.1s0-0.1,0.1-0.2l0.1-0.2l0,0
						c-0.1,0.1-0.2,0.1-0.3,0.2c-0.1,0-0.2,0.1-0.3,0.1c-0.1,0-0.1,0-0.2,0c-0.2,0-0.3,0-0.4-0.1c-0.1,0-0.2-0.1-0.2-0.2
						s-0.1-0.2-0.1-0.3c0-0.1,0-0.2,0.1-0.3c0.1-0.1,0.1-0.2,0.3-0.3s0.2-0.2,0.4-0.2c0.2-0.1,0.3-0.1,0.5-0.1c0.1,0,0.2,0,0.3,0
						s0.1,0.1,0.2,0.1l0.1-0.1h0.4c0,0-0.1,0.1-0.1,0.1c0,0.1-0.1,0.1-0.1,0.2l-0.3,1.1c0,0.1-0.1,0.2-0.2,0.3
						c-0.1,0.1-0.2,0.2-0.3,0.2c-0.1,0.1-0.3,0.1-0.4,0.2C333.4,244.1,333.3,244.1,333.1,244.1z M333.5,243.2c0.1,0,0.2,0,0.2,0
						c0.1,0,0.2-0.1,0.3-0.1l0.3-0.9c0,0-0.1,0-0.2,0c-0.1,0-0.1,0-0.2,0c-0.1,0-0.1,0-0.2,0c-0.1,0-0.3,0-0.4,0.1
						c-0.1,0-0.2,0.1-0.3,0.2c-0.1,0.1-0.1,0.1-0.1,0.2c0,0.1,0,0.2,0,0.2s0,0.2,0.1,0.2s0.1,0.1,0.2,0.2
						C333.3,243.2,333.4,243.2,333.5,243.2z"/>
					<path d="M337.4,243.5c-0.1,0-0.2,0-0.2,0c-0.1,0-0.2,0-0.3-0.1c-0.1,0-0.2-0.1-0.2-0.2s-0.1-0.2-0.1-0.3c0-0.1,0-0.2,0.1-0.3
						c0.1-0.1,0.1-0.2,0.3-0.3c0.1-0.1,0.3-0.2,0.4-0.2c0.2-0.1,0.3-0.1,0.5-0.1c0.1,0,0.2,0,0.3,0c0.1,0,0.2,0.1,0.3,0.1
						c0.1,0,0.1,0.1,0.1,0.2c0,0.1,0,0.2-0.1,0.2c-0.1,0.1-0.2,0.1-0.3,0.1s-0.2,0.1-0.4,0.1c-0.1,0-0.3,0-0.4,0c0,0-0.1,0-0.1,0
						s-0.1,0-0.1,0c0,0-0.1,0-0.1,0l0-0.1c0.1,0,0.2,0,0.2,0c0,0,0.1,0,0.1,0c0.2,0,0.4,0,0.6-0.1c0.1-0.1,0.2-0.1,0.2-0.3
						c0-0.1,0-0.1-0.1-0.1c-0.1,0-0.1,0-0.2,0c-0.1,0-0.2,0-0.3,0.1c-0.1,0-0.2,0.1-0.3,0.2c-0.1,0.1-0.1,0.2-0.2,0.2
						c0,0.1-0.1,0.2-0.1,0.2c0,0.1,0,0.2,0.1,0.2s0.1,0.1,0.2,0.2c0.1,0,0.2,0.1,0.4,0.1c0.1,0,0.2,0,0.3,0c0.1,0,0.2-0.1,0.4-0.1
						h0.1l0,0.2c-0.1,0-0.2,0.1-0.3,0.1s-0.2,0.1-0.3,0.1C337.7,243.5,337.6,243.5,337.4,243.5z"/>
					<path d="M338.9,243.4l0.4-1.2c0,0,0,0,0,0s0,0-0.1,0l-0.2-0.1V242l0.8-0.1l-0.1,0.2h0c0.1-0.1,0.2-0.1,0.3-0.2
						c0.1,0,0.2-0.1,0.3-0.1c0.1,0,0.2,0,0.2,0c0.1,0,0.2,0,0.3,0c0.1,0,0.1,0.1,0.2,0.1s0.1,0.1,0.1,0.2l-0.3,0.9c0,0,0,0.1,0,0.1
						c0,0,0,0.1,0,0.1h-0.5l0.3-0.9c0,0,0-0.1,0-0.1c0,0,0-0.1,0-0.1c0-0.1,0-0.1-0.1-0.1c-0.1,0-0.1-0.1-0.3-0.1
						c-0.1,0-0.2,0-0.3,0c-0.1,0-0.2,0.1-0.3,0.1l-0.3,0.9c0,0,0,0.1,0,0.1c0,0,0,0.1,0,0.1H338.9z M342.1,243.5c-0.1,0-0.2,0-0.2,0
						c-0.1,0-0.1,0-0.1-0.1s0-0.1,0-0.1c0,0,0-0.1,0-0.1c0,0,0-0.1,0-0.1l0.2-0.5c0,0,0-0.1,0-0.1c0,0,0-0.1,0-0.1
						c0-0.1,0-0.1-0.1-0.1c-0.1,0-0.1-0.1-0.3-0.1c-0.1,0-0.2,0-0.3,0s-0.2,0.1-0.3,0.1l0-0.1c0.1-0.1,0.3-0.2,0.4-0.2
						c0.1,0,0.2-0.1,0.3-0.1s0.2,0,0.2,0c0.2,0,0.3,0,0.4,0.1c0.1,0.1,0.2,0.1,0.2,0.3c0,0,0,0,0,0.1c0,0,0,0.1,0,0.1l-0.2,0.4
						c0,0,0,0.1,0,0.1c0,0,0,0.1,0,0.1c0,0,0,0.1,0,0.1c0,0,0,0.1,0,0.1s0.1,0,0.2,0c0,0,0.1,0,0.1,0c0,0,0.1,0,0.1,0h0.1v0.1
						c-0.1,0-0.1,0-0.2,0.1c-0.1,0-0.1,0-0.2,0C342.2,243.5,342.1,243.5,342.1,243.5z"/>
					<path d="M344.6,242.6l0,0.1c-0.2,0-0.4,0-0.6,0c-0.2,0-0.3,0-0.4,0.1s-0.1,0.1-0.1,0.2c0,0.1,0,0.1,0.1,0.2
						c0.1,0,0.2,0.1,0.2,0.1c0.1,0,0.2,0,0.3,0c0.1,0,0.2-0.1,0.3-0.1L344.6,242.6c0-0.1,0-0.1,0-0.2s0,0,0-0.1c0,0,0,0,0,0
						c0-0.1,0-0.1-0.1-0.2c-0.1,0-0.2,0-0.3,0c-0.1,0-0.2,0-0.3,0c-0.1,0-0.2,0.1-0.3,0.1c-0.1,0-0.2,0.1-0.2,0.1h-0.1l0-0.3l0.2,0
						c0.1,0,0.2,0,0.3-0.1c0.1,0,0.2,0,0.4,0c0.1,0,0.2,0,0.3,0c0.1,0,0.2,0,0.2,0.1c0.1,0,0.1,0.1,0.2,0.1c0,0,0.1,0.1,0.1,0.2
						c0,0,0,0.1,0,0.1c0,0,0,0.1,0,0.1l-0.1,0.4c0,0,0,0.1,0,0.1s0,0.1,0,0.1c0,0,0,0.1,0,0.1c0,0,0,0.1,0,0.1c0,0,0.1,0,0.2,0
						c0,0,0.1,0,0.1,0c0,0,0.1,0,0.1,0h0.1v0.1c-0.1,0-0.2,0.1-0.3,0.1s-0.2,0-0.3,0c-0.1,0-0.2,0-0.2,0c0,0-0.1-0.1-0.1-0.1
						c0,0,0-0.1,0-0.1h0c-0.1,0.1-0.2,0.1-0.3,0.2s-0.2,0.1-0.3,0.1c-0.1,0-0.2,0-0.2,0c-0.1,0-0.2,0-0.3-0.1
						c-0.1,0-0.2-0.1-0.2-0.1s-0.1-0.1-0.1-0.2c0-0.1,0-0.2,0.1-0.3c0.1-0.1,0.2-0.1,0.3-0.2c0.1,0,0.3-0.1,0.4-0.1
						c0.1,0,0.3,0,0.4,0c0,0,0.1,0,0.1,0c0,0,0.1,0,0.1,0s0.1,0,0.1,0C344.5,242.6,344.5,242.6,344.6,242.6z"/>
					<path d="M346.1,243.5c-0.1,0-0.2,0-0.2,0c-0.1,0-0.1,0-0.1-0.1c0,0,0-0.1,0-0.1c0,0,0-0.1,0-0.1s0-0.1,0-0.1l0.3-0.8
						c0,0,0,0,0,0c0,0,0,0-0.1,0l-0.3-0.1V242l0.9-0.1l-0.3,0.9c0,0,0,0,0,0.1c0,0,0,0.1,0,0.1s0,0.1,0,0.1c0,0,0,0,0,0.1
						c0,0,0,0.1,0,0.1c0,0,0.1,0,0.2,0c0,0,0.1,0,0.1,0c0,0,0.1,0,0.1,0h0.1v0.1c-0.1,0-0.1,0-0.2,0.1c-0.1,0-0.2,0-0.2,0
						C346.2,243.5,346.2,243.5,346.1,243.5z M346.5,241.7c-0.1,0-0.1,0-0.1,0c0,0-0.1,0-0.1-0.1c0,0,0-0.1,0-0.1
						c0-0.1,0-0.1,0.1-0.1c0.1,0,0.1,0,0.2,0c0.1,0,0.2,0,0.2,0s0.1,0.1,0.1,0.1c0,0.1,0,0.1-0.1,0.1
						C346.6,241.7,346.6,241.7,346.5,241.7z"/>
					<path d="M347.6,243.5c-0.1,0-0.2,0-0.2,0c-0.1,0-0.1,0-0.1-0.1c0,0,0-0.1,0-0.1c0,0,0-0.1,0-0.1c0,0,0-0.1,0-0.1l0.5-1.5
						c0,0,0,0,0,0c0,0,0,0-0.1,0l-0.3-0.1v-0.1l0.9,0l-0.6,1.6c0,0,0,0.1,0,0.1c0,0,0,0.1,0,0.1c0,0,0,0.1,0.1,0.1c0,0,0.1,0,0.2,0
						c0,0,0.1,0,0.1,0c0,0,0.1,0,0.1,0h0.1v0.1c-0.1,0-0.1,0-0.2,0.1c-0.1,0-0.2,0-0.2,0C347.7,243.5,347.6,243.5,347.6,243.5z"/>
					<path d="M349.3,243.5c-0.1,0-0.3,0-0.4,0s-0.3,0-0.4-0.1l0-0.3h0.2l0.1,0.1c0,0,0,0,0,0c0,0,0,0,0.1,0c0.1,0,0.1,0,0.2,0.1
						c0.1,0,0.2,0,0.2,0c0.1,0,0.2,0,0.3,0s0.2,0,0.2-0.1c0.1,0,0.1-0.1,0.1-0.2c0,0,0-0.1-0.1-0.1c-0.1,0-0.1-0.1-0.2-0.1
						c-0.1,0-0.1,0-0.2,0c-0.1,0-0.1,0-0.2,0c-0.1,0-0.2-0.1-0.3-0.1c-0.1-0.1-0.1-0.1-0.1-0.2c0-0.1,0-0.1,0.1-0.2
						c0.1-0.1,0.1-0.1,0.2-0.2s0.2-0.1,0.3-0.1c0.1,0,0.3,0,0.4,0c0.1,0,0.2,0,0.3,0c0.1,0,0.2,0,0.3,0.1l0,0.4h-0.2l-0.1-0.1
						c0,0,0,0,0,0c0,0-0.1,0-0.1,0c0,0-0.1,0-0.1,0c-0.1,0-0.1,0-0.2,0c-0.2,0-0.3,0-0.4,0.1c-0.1,0-0.1,0.1-0.1,0.2
						c0,0,0,0.1,0.1,0.1c0,0,0.1,0.1,0.2,0.1c0.1,0,0.1,0,0.2,0.1s0.2,0,0.3,0.1c0.2,0,0.3,0.1,0.4,0.1c0.1,0,0.1,0.1,0.1,0.2
						c0,0.1,0,0.2-0.1,0.2c-0.1,0.1-0.2,0.1-0.3,0.2c-0.1,0-0.2,0.1-0.4,0.1C349.5,243.5,349.4,243.5,349.3,243.5z"/>
				</g>
			</g>
		</g>
		<g>
			<rect x="158.9" y="209.6" class="st16" width="313.1" height="18.7"/>
			<g>
				<path class="st23" d="M465.9,224.7h-29.4c-1.2,0-2.1-0.9-2.1-2.1v-7.7c0-1.2,0.9-2.1,2.1-2.1h29.4c1.2,0,2.1,0.9,2.1,2.1v7.7
					C468,223.7,467.1,224.7,465.9,224.7z"/>
				<text transform="matrix(1 0 0 1 444.1819 220.1057)" class="st10 st17 st18">Refresh</text>
			</g>
			<text transform="matrix(1 0 0 1 162.8858 220.7352)" class="st10 st17 st18">Mailbox</text>
		</g>
	</g>
</g>
<path class="st7" d="M159.5,272.1h313.3v25.7c0,0.9-0.7,1.6-1.6,1.6H161.2c-0.9,0-1.6-0.7-1.6-1.6V272.1z"/>
<path class="st10" d="M450.4,282.2v-2.3h2.9v-2.1h-3.9c-0.6,0-1,0.4-1,1v3.3L450.4,282.2z"/>
<path class="st10" d="M450.4,286.4h-2.1v3.5c0,0.6,0.4,1,1,1h3.9v-2.1h-2.9L450.4,286.4z"/>
<path class="st10" d="M459.3,282.2h2.1v-3.3c0-0.6-0.4-1-1-1h-3.8v2.1h2.8V282.2z"/>
<path class="st10" d="M459.3,286.4v2.5h-2.8v2.1h3.8c0.6,0,1-0.4,1-1v-3.5L459.3,286.4z"/>
<rect x="159.5" y="267" class="st24" width="313.3" height="5.1"/>
<path class="st7" d="M155.2,285.5c-19.8-1-37.5-7.3-49-5.1s-11.3-27.5,0.2-36.3c8.6-6.6-4.1-19.6-4-30.2c-0.8-1.5-2.7-12.1,5.3-20
	c8.8-8.6,17.7-8.9,26.7-4.5c5.9,2.1,11.7,7.9,13.4,22.4c3,25,13.1,21.2,28.4,41.9C185.4,265.8,175,286.4,155.2,285.5z"/>
<path class="st25" d="M101.8,251.6l-2.8,4l-2.8,4c-1.8,2.6-3.7,5.3-5.5,8c-3.6,5.3-7.2,10.7-10.7,16.2c-1.7,2.8-3.5,5.6-5.1,8.5
	c-0.8,1.5-1.7,3-2.5,4.6c-0.4,0.8-0.8,1.6-1.2,2.5c-0.5,1-0.9,2-1.2,3v0.1v0.1l-0.1,0.2l-0.2,0.5l-0.2,0.6c0,0.2-0.1,0.4-0.1,0.5
	c-0.1,0.3-0.1,0.6-0.2,1s-0.1,0.7-0.2,1.2c0,0.6,0,1.2,0,1.8v0.5v0.2c0,0.1,0,0.2,0,0.4l0.1,0.4c0.1,0.8,0.4,1.6,0.7,2.4
	c0.1,0.3,0.3,0.6,0.4,0.8c0.1,0.1,0.2,0.3,0.3,0.5l0.2,0.2l0.2,0.2l0.4,0.5c0.2,0.2,0.3,0.4,0.5,0.5l0.3,0.2l0.3,0.3
	c0.2,0.2,0.4,0.3,0.6,0.5c0.4,0.3,0.9,0.6,1.4,0.8c0.2,0.1,0.5,0.2,0.7,0.3s0.5,0.2,0.7,0.2l0.4,0.1l0.3,0.1l0.7,0.1h0.3h0.3h0.6H79
	h0.2h0.2l0.4-0.1l0.4-0.1l0.3-0.1l0.3-0.1l0.6-0.2c0.5-0.2,1-0.4,1.5-0.7l0.5-0.3l0.2-0.1l0.2-0.1l0.2-0.1l0.2-0.1l0.3-0.2
	c0.4-0.3,0.7-0.6,1-0.8c0.6-0.5,1-0.9,1.4-1.3c0.8-0.8,1.4-1.5,2-2.2c1.2-1.4,2.2-2.8,3.3-4.2c0.5-0.7,1-1.4,1.5-2.1l0.7-1l0.8-1.1
	c2.7-4,1.6-9.4-2.4-12.1c-3.9-2.6-9.2-1.6-11.9,2.2l-0.1,0.1l-0.6,0.9l-0.6,0.9l-1.4,1.6c-0.9,1.2-1.8,2.3-2.6,3.3
	c-0.4,0.5-0.8,1-1.2,1.3l-0.3,0.4c0,0,0,0,0,0l0.1,0l0.1-0.1l0.1,0l0.1-0.1l0.3-0.1c0.3-0.2,0.7-0.3,1-0.4l0.4-0.1l0.2-0.1l0.3-0.1
	l0.3-0.1l0.3,0h0.2h0.2h1h0.3h0.3c0.2,0,0.4,0.1,0.6,0.1l0.3,0.1l0.3,0.1c0.2,0.1,0.4,0.1,0.7,0.2s0.5,0.2,0.7,0.3
	c0.4,0.2,0.9,0.5,1.3,0.8c0.2,0.1,0.4,0.3,0.6,0.4l0.2,0.2c0.1,0.1,0.2,0.1,0.2,0.2c0.2,0.1,0.3,0.3,0.4,0.5
	c0.1,0.1,0.2,0.3,0.3,0.4s0.1,0.1,0.2,0.2l0.1,0.2l0.2,0.4c0.1,0.2,0.2,0.5,0.3,0.7c0.3,0.6,0.4,1.2,0.6,1.8c0,0.1,0,0.2,0,0.3v0.2
	v0.2v0.2c0,0.2,0,0.4,0,0.6c0,0.1,0,0,0,0s0-0.1,0-0.2s0,0,0,0l0,0V308v-0.1l0,0c0.2-0.5,0.3-0.9,0.6-1.4c0.2-0.6,0.5-1.2,0.8-1.8
	c0.6-1.2,1.3-2.5,2.1-3.8c1.5-2.6,3.1-5.2,4.8-7.9c3.3-5.2,6.8-10.5,10.4-15.7c1.8-2.6,3.6-5.2,5.4-7.8l2.7-3.9l2.7-3.8l0.1-0.1
	c3.3-3.6,3.2-9.1-0.4-12.5c-3.6-3.3-9.1-3.2-12.5,0.4C102.6,250.3,102.2,250.9,101.8,251.6L101.8,251.6z"/>
<path class="st4" d="M100.9,333.2c-0.3,2.2-0.3,3.9,0.3,4.9c0.9,1.4,8.6,2.9,18.2,3.8l1.8,0.2c2,0.2,4.1,0.3,6.3,0.5l1.5,0.1
	c16.2,0.8,33.7-0.1,34.8-5.1c2-9.7-3.7-24.3-2.4-39.3c0.5-6.1,5.6-18,6.1-25.6c0.7-11.5,0.9-22.2-0.7-24.9c-1.1-1.9-6-3.6-11.3-4.9
	c-1.6-0.4-3.3-0.8-4.9-1.1c-5.5-1.1-10.2-1.8-10.2-1.8s-14.1,0.7-23.7,3.2c-1.6,0.4-3.2,0.9-4.7,1.5c-0.2,0.1-0.4,0.2-0.6,0.3
	c-0.7,0.3-1.3,0.6-1.8,0.9c-9.1,4.4-7.9,5.2-7.2,10.6c1,8,1.9,7.5-0.2,14.4c-0.2,0.6-0.4,1.2-0.6,1.8c-0.5,1.6-1.2,3.6-2,6.1
	c-0.6,1.7-1,3.5-1.1,5.3c0,0.3,0,0.6,0,0.8c-0.1,8.3,8.3,7.6,8.3,18c0,6.4-1.5,12.9-2.9,18.6l-0.2,0.8c-0.9,3.2-1.7,6.2-2.3,8.7
	C101.1,331.9,101,332.6,100.9,333.2z"/>
<path class="st2" d="M146.8,261.4c0.1,3.1,3.3,4.4,5.8,5c-0.1-0.3-0.3-0.6-0.4-1c-2.1-0.6-4.5-1.7-4.6-4c0-2,1.2-3.7,3.1-4.4
	c0-0.3,0-0.6,0-0.9C148.9,256.9,146.6,258.4,146.8,261.4z"/>
<path class="st2" d="M142.6,252.1c1.8,0,3.5-0.6,4.9-1.6c0.9-0.6,1.5-1.6,1.6-2.7c0.3-3.1-2.8-6.6-3-6.8c-0.2-0.2-0.4-0.2-0.6,0
	c-0.2,0.2-0.2,0.4,0,0.6c0,0,3,3.4,2.8,6.2c-0.1,0.9-0.5,1.6-1.2,2.1c-2.2,1.6-5.1,1.9-7.6,0.8c-0.2-0.1-0.4,0-0.6,0.2
	c-0.1,0.2,0,0.5,0.2,0.6C140.1,251.8,141.3,252.1,142.6,252.1z"/>
<path class="st2" d="M119.3,255.2c1,0,1.9-0.1,2.9-0.2c0.2,0,0.4-0.2,0.4-0.5c0-0.2-0.2-0.4-0.5-0.4c-0.1,0-5.9,0.8-8.1-1.1
	c-0.5-0.4-0.8-1-0.8-1.6c-0.3-3.9,4.9-6.9,5-6.9c0.2-0.1,0.3-0.4,0.2-0.6c0,0,0,0,0,0c-0.1-0.2-0.4-0.3-0.6-0.2
	c-0.2,0.1-5.7,3.3-5.4,7.7c0,0.8,0.5,1.6,1.1,2.1C114.8,255,117.3,255.2,119.3,255.2z"/>
<path class="st2" d="M158.9,328.2L158.9,328.2c0.3,0,0.4-0.2,0.4-0.5c0-0.2-2-18.1-2.2-28.2s4.5-28.4,4.5-28.5
	c0.1-0.2-0.1-0.4-0.3-0.5c0,0,0,0,0,0c-0.2-0.1-0.4,0.1-0.5,0.3c0,0.2-4.7,18.5-4.6,28.8s2.1,28.1,2.2,28.3
	C158.6,328.1,158.7,328.2,158.9,328.2z"/>
<path class="st2" d="M118.4,322.3c8.2,0,15.5-3.1,20.7-6.2c4.6-2.8,8.9-6.1,12.6-10c0.2-0.2,0.2-0.4,0-0.6s-0.4-0.2-0.6,0
	c0,0,0,0-0.1,0.1c-3.7,3.8-7.8,7.2-12.4,9.9c-6.9,4.1-17.5,8.3-28.9,4.8c-0.2-0.1-0.4,0.1-0.5,0.3c-0.1,0.2,0.1,0.4,0.3,0.5
	C112.3,321.9,115.3,322.3,118.4,322.3z"/>
<path class="st2" d="M122.2,329.6c3.2,0,6.4-0.6,9.4-1.6c3-1,5.9-2.3,8.6-3.9c0.2-0.1,0.2-0.4,0.1-0.6c-0.1-0.2-0.4-0.2-0.6-0.1
	c-0.1,0.1-13.9,8.9-25.5,3.8c-0.2-0.1-0.4,0-0.5,0.2c-0.1,0.2,0,0.5,0.2,0.5C116.5,329.1,119.3,329.6,122.2,329.6z"/>
<path class="st2" d="M122.7,267.6c4.1-0.1,8.1-1.2,11.7-3.2c3.4-1.9,6.5-4.4,9.1-7.4c0.1-0.2,0.1-0.5-0.1-0.6
	c-0.2-0.1-0.4-0.1-0.5,0c-2.5,2.9-5.5,5.3-8.9,7.2c-7.2,4-14.3,4.2-21.1,0.6c-0.2-0.1-0.4,0-0.5,0.2c0,0,0,0,0,0
	c-0.1,0.2,0,0.4,0.2,0.6c0,0,0,0,0,0C115.7,266.7,119.2,267.6,122.7,267.6z"/>
<path class="st25" d="M167.4,272.6c0.7-11.5,0.9-22.2-0.7-24.9c-1.1-1.9-6-3.6-11.3-4.9C143.9,258.7,155.7,280.5,167.4,272.6z"/>
<path class="st25" d="M102,270.9c6.2-7,7.3-18.8,7.4-25.1c-9.1,4.4-7.9,5.2-7.2,10.6C103.3,264.5,104.2,264,102,270.9z"/>
<path class="st25" d="M116.6,243.2c1.1,5.7,2,16.3,10.9,16.3c8.7,0,20.1-14.1,23-17.7c-3.6-0.8-7.2-1.8-10.7-3.2
	C139.8,238.6,126.1,240.8,116.6,243.2z"/>
<path class="st2" d="M106.8,262.3c1.2,0.8,2.1,2.1,2.5,3.5c0.2,1.5-0.4,2.9-1.5,3.9c-1.2,1.3-2.3,2.3-3.2,3.1
	c-2.9,2.7-4.2,4-2.3,7.6c0.4,0.6,0.5,1.5,0.1,2.2c-1,1.2-2.5,1.8-4,1.6h-0.2c0,0.3,0,0.6,0,0.8h0.5c1.7,0.1,3.4-0.6,4.4-2
	c0.6-0.9,0.6-2.1,0-3c-1.7-3-0.8-3.9,2.1-6.6c0.9-0.8,2-1.9,3.2-3.2c1.3-1.2,1.9-2.9,1.7-4.6c-0.5-1.7-1.6-3.2-3.1-4.2L106.8,262.3z
	"/>
<path class="st2" d="M150.3,283.3c-2.1,0-4.1-0.6-5.9-1.8c-1.8-1.3-4.1-1.7-6.3-1.1c-0.1,0-0.2,0-0.4,0.1l0,0
	c-3.4,0.6-6.6-1.6-7.2-5c0-0.1,0-0.1,0-0.2c-0.7-3.2,1.3-6.3,4.5-7c0.1,0,0.2,0,0.3-0.1c2.2-0.4,4.4,0.2,5.9,1.8
	c4.5,4,6.4,3.7,8.7,3.3c0.9-0.2,1.9-0.2,2.8-0.2c1.9,0.1,3.1,1.9,3,4.3C155.8,280.3,153.9,283.3,150.3,283.3L150.3,283.3z
	 M150.2,274.1c-2.5,0.4-4.6,0.7-9.4-3.5c-1.4-1.4-3.3-1.9-5.2-1.6c-2.7,0.4-4.6,2.9-4.2,5.7c0,0.2,0.1,0.3,0.1,0.5
	c0.4,2.9,3.1,5,6,4.6c0.1,0,0.2,0,0.3,0l0,0l0.4-0.1c2.3-0.6,4.8-0.1,6.8,1.2c1.6,1.1,3.6,1.6,5.5,1.6h0.1c3,0,4.6-2.6,4.7-5.1
	c0-1.7-0.6-3.4-2.2-3.5h-0.3C151.7,273.8,151,273.9,150.2,274.1L150.2,274.1z"/>
<path class="st2" d="M105.2,295.1c-2.2-2.1-3.2-4.6-2.8-7c0-0.1,0.1-0.3,0.3-0.3c0,0,3.9-1.4,4.6-7.1c0.5-3.3,3-5.9,6.2-6.6
	c2.6-0.8,5.5,0.2,7,2.5c3.2,4.8,4.3,5.5,13.4,8.2c4,1.2,6.3,4.2,6.1,7.9s-3.4,8-9.8,9.2c-1.5,0.2-2.9,0.4-4.4,0.4
	C118.3,302.3,109.6,299.4,105.2,295.1z M113.7,275c-2.9,0.6-5.1,3-5.6,5.9c-0.7,5.4-4,7.3-4.9,7.7c-0.2,2.1,0.6,4.1,2.6,6
	c5,4.9,16.3,7.9,24.3,6.5c6-1,8.9-5,9.1-8.4c0.2-3.3-1.9-6-5.5-7c-8.9-2.7-10.4-3.4-13.8-8.5c-1-1.5-2.7-2.4-4.5-2.4
	C114.8,274.8,114.3,274.9,113.7,275z"/>
<path class="st2" d="M112.3,307.9c0-0.2,0.1-0.3,0.3-0.4c0.5-0.2,12.8-5.1,16.8-3.7c0.2,0.1,0.3,0.2,0.3,0.4c0,0.3,0.5,7.2-2.9,10.9
	c-1.3,1.5-3.2,2.3-5.1,2.3h-0.4C112.8,317.4,112.3,308,112.3,307.9z M113.1,308.2c0.1,1.5,0.5,2.9,1.2,4.2c1.3,2.8,4.2,4.5,7.3,4.2
	c1.7,0,3.4-0.7,4.5-2c2.8-3.1,2.7-8.7,2.7-10C125.2,303.6,114.9,307.5,113.1,308.2L113.1,308.2z"/>
<path class="st2" d="M143.9,334.1c-2.5-0.2-4.1-1.3-4.4-3c-0.4-2.1,1.4-4.5,4.3-5.6c2.7-1.1,2.7-3.2,2.7-5.4c0-1.6,0-3.2,1.2-4.3
	c1.6-1.5,4-1.8,6-0.7c1.6,0.9,2.3,2.8,1.6,4.5c-1.2,4.3,1.6,5.8,1.7,5.9l0,0c0.1,0.1,0.2,0.2,0.2,0.3c0,0.1,0,0.3-0.1,0.4
	c-0.3,0.3-6.9,8-12.8,8L143.9,334.1z M154.4,319.4c0.6-1.3,0.1-2.9-1.2-3.6c-1.6-0.9-3.6-0.6-5,0.6c-0.9,0.9-0.9,2.3-0.9,3.8
	c0,2.2,0,4.8-3.3,6.1c-2.8,1.1-4,3.2-3.8,4.7s1.6,2.2,3.7,2.3c4.9,0.4,10.8-5.8,12.2-7.4C155.3,325.2,153.3,323.3,154.4,319.4z"/>
<path class="st2" d="M100.9,333.2c0.3,0.9,0.7,1.8,1.2,2.6c0.6,1,1.7,1.7,2.9,1.7c0.1,0,0.3,0,0.4,0c1.6-0.2,3-2,3.9-4.8
	c1.2-3.6,1-6.4-0.4-8.4c-1.3-1.6-3.2-2.6-5.2-2.8l-0.2,0.8c1.8,0.1,3.5,1,4.7,2.4c1.3,1.8,1.4,4.3,0.3,7.6c-0.8,2.5-2,4.1-3.3,4.3
	c-1,0.1-2-0.5-2.5-1.4c-0.8-1.3-1.4-2.7-1.5-4.2C101.1,331.9,101,332.6,100.9,333.2z"/>
<path class="st2" d="M117.3,340L117.3,340c0.6,0.7,1.3,1.3,2.1,1.9l1.8,0.2c-1.2-0.7-2.3-1.5-3.3-2.6c-0.1-0.2-1.3-1.9-0.6-3.4
	c0.6-1.3,2.3-2.2,5.1-2.6c7.5-1.1,9.3,3.5,9.5,4.4c-1,1.9-2.5,3.5-4.4,4.6l1.5,0.1c1.6-1.2,2.8-2.7,3.8-4.4c0-0.1,0-0.2,0-0.3
	c0-0.1-1.5-6.5-10.5-5.2c-3.1,0.4-5,1.5-5.7,3.1C115.7,337.9,117.2,340,117.3,340z"/>
<path class="st9" d="M95.5,347c-0.3-9.3-1.9-18.5-3.2-27.8c6.2,2.7,12.3,5.2,17.8,8.4l0,0c3.3,2,6.4,3.8,8.6,5
	c3.4,1.9,7.7,2.1,11.9,1.5c5.6-0.9,11-2.7,16.1-5.2c0,0,26.4-12,31.4-11.6c3.9,0.3-16.9,21.9-34,30.8c-2.6,1.7-5.5,3-8.5,3.8
	c-16.8,5.3-32.5,0.5-39.9-2.5C95.6,348.7,95.6,347.8,95.5,347z"/>
<polygon class="st25" points="47.5,387.6 45.2,401.8 32,402.7 33.4,385.3 "/>
<path class="st5" d="M1.1,422.5h47.4c0.4-0.8,0.6-1.7,0.6-2.6c0.3-4-1-10.4-1.6-14.5c-0.1-0.5-0.1-0.9-0.2-1.3
	c-0.1-0.5-0.1-1.1-0.1-1.6c0-3.3-2.9-2.7-2.9-2.7c-4.8,4.7-10.2-2.3-13.4,0c0,0-1.4,1-5.1,4.4s-10.2,5.6-15.6,7.9
	c-7,3-9,5.9-9.4,7.9C0.5,420.8,0.6,421.7,1.1,422.5z"/>
<path class="st6" d="M1.1,422.5h47.4c0.4-0.8,0.6-1.7,0.6-2.6H0.7C0.5,420.8,0.6,421.7,1.1,422.5z"/>
<path class="st10" d="M30.1,401.7c0,0-0.8-2.1-2.7-1.4s-1.7,3.8-1.7,3.8S26.8,406.9,30.1,401.7z"/>
<path class="st10" d="M30.7,411c0.4,0,0.8-0.3,0.8-0.8c0-2.8-1.1-5.4-3.1-7.4c-0.4-0.2-0.8-0.2-1.1,0.2c-0.2,0.3-0.2,0.7,0.1,1
	c1.7,1.6,2.6,3.9,2.5,6.2C29.9,410.7,30.3,411,30.7,411z"/>
<path class="st10" d="M20.8,404.9c0.2,0,0.4-0.1,0.5-0.2c1-0.9,3.9-1,5.5-0.9c0.4,0,0.8-0.3,0.8-0.7c0-0.4-0.3-0.8-0.7-0.8
	c0,0,0,0,0,0c-0.5,0-4.8-0.3-6.6,1.3c-0.3,0.3-0.3,0.8,0,1.1C20.4,404.8,20.6,404.9,20.8,404.9L20.8,404.9z"/>
<path class="st10" d="M27.7,402.2l0.4,0.4h0v0l-0.3,1.6h0.2c0.5,0.1,1,0.1,1.5,0.1h0.3c1.2,0,2.3-0.1,3.5-0.3
	c1.4-0.1,2.6-0.6,3.7-1.5c0.5-0.4,0.9-0.9,1.2-1.5c0,0,0-0.1,0-0.1c0.2-0.8,0-1.8-0.6-2.4c-0.6-0.7-1.5-1-2.5-1H35
	c-1,0-2,0.3-2.8,0.8c-1.1,0.6-2.2,1.3-3.2,2.1l-0.2,0.2c-0.4,0.3-0.7,0.6-1,0.9l-0.4,0.4L27.7,402.2z M29.4,402.7h-0.6
	c0.3-0.3,0.8-0.7,1.2-1.1l0,0c0.6-0.5,1.3-1,2-1.4c0.6-0.3,1.2-0.6,1.8-0.8c0.4-0.1,0.7-0.2,1.1-0.2l0,0c0.5,0,0.9,0.2,1.2,0.5
	c0.2,0.2,0.3,0.4,0.2,0.7c0,0,0,0.1,0,0.1c-0.3,0.7-1.4,1.6-3.5,1.9l-1,0.1C31.1,402.7,30.3,402.7,29.4,402.7z"/>
<path class="st10" d="M26.4,403.6l0.7-1.5c-1.6-0.7-3-2.7-3-3.9c0-0.3,0.1-0.6,0.9-0.9c0.3-0.1,0.7-0.1,0.9,0.1c0.8,0.6,1.1,2.8,1,4
	h1.7c0-0.4,0.1-4-1.7-5.4c-1.3-0.9-3.2-0.6-4.1,0.8c-0.2,0.3-0.4,0.7-0.5,1.2C22.3,400.1,24.4,402.6,26.4,403.6z"/>
<path class="st6" d="M43.6,422.5H45c-1.8-2.1-2.7-4.8-2.5-7.6c0.3-3.7,2.1-7.2,5-9.5c-0.1-0.5-0.1-0.9-0.2-1.3
	c-3.5,2.5-5.6,6.5-5.9,10.8C41.2,417.6,42,420.3,43.6,422.5z"/>
<path class="st10" d="M26.5,406.8c0.4,0,0.7-0.2,0.8-0.6c0.1-0.4-0.1-0.8-0.5-1c0,0,0,0-0.1,0l-3-0.7c-0.4-0.1-0.8,0.2-0.9,0.6
	c-0.1,0.4,0.2,0.8,0.6,0.9l0,0l3,0.7L26.5,406.8z"/>
<path class="st10" d="M23.5,408.6c0.4,0,0.8-0.3,0.8-0.8c0-0.4-0.2-0.7-0.6-0.8l-3-0.7c-0.4-0.1-0.8,0.2-0.9,0.6
	c-0.1,0.4,0.2,0.8,0.6,0.9l3,0.7C23.4,408.6,23.5,408.6,23.5,408.6z"/>
<path class="st10" d="M20.6,410.2c0.4,0,0.7-0.2,0.8-0.6c0.1-0.4-0.1-0.8-0.5-1c0,0,0,0-0.1,0l-3-0.7c-0.4-0.1-0.8,0.2-0.9,0.6
	c-0.1,0.4,0.2,0.8,0.6,0.9l3,0.7C20.5,410.2,20.5,410.2,20.6,410.2z"/>
<path class="st10" d="M17.4,411.8c0.4,0,0.8-0.3,0.8-0.8c0-0.4-0.2-0.7-0.6-0.8l-3-0.7c-0.4-0.1-0.8,0.2-0.9,0.6c0,0,0,0,0,0
	c-0.1,0.4,0.1,0.8,0.6,0.9c0,0,0,0,0,0l3,0.7C17.2,411.7,17.3,411.8,17.4,411.8z"/>
<path class="st10" d="M13.9,413.1c0.4,0,0.8-0.3,0.8-0.8c0-0.4-0.2-0.7-0.6-0.8l-3-0.7c-0.4-0.1-0.8,0.2-0.9,0.6
	c-0.1,0.4,0.2,0.8,0.6,0.9l3,0.7C13.7,413.1,13.8,413.1,13.9,413.1z"/>
<path class="st9" d="M114.9,330.5c-16-8.5-44.2-25.4-56-27.8c-20.7-4.2-27.4,88.1-27.4,88.1l16.6,1.6c0,0,15.5-39.8,16.8-55.1
	c0,0,21.6,20.8,65.3,21.6L114.9,330.5z"/>
<path class="st26" d="M50.2,388.2c-0.2,1.9-1.1,3.6-2.4,5l-17.2-1.6c0,0-0.4-3.9,0.5-5.5L50.2,388.2z"/>
<path class="st26" d="M46.4,388.7c0.2,0,0.4-0.1,0.5-0.4c0-0.1,4.2-13.7,8.1-25.7c3.4-10.6,7.1-30.1,7.9-34.8
	c4.6,5.3,10,9.8,16.1,13.2c6,3.5,12.4,6.3,19,8.5c7.2,2.4,14.6,4.2,22.1,5.4c0.3,0,0.5-0.2,0.5-0.4c0-0.3-0.2-0.5-0.4-0.5
	c-7.4-1.1-14.8-2.9-21.9-5.3c-11-3.7-26.1-10.6-35.4-22.2c-0.1-0.2-0.3-0.2-0.5-0.2c-0.2,0.1-0.3,0.2-0.4,0.4
	c0,0.2-4.2,23.8-8.1,35.7s-8,25.6-8.1,25.8c-0.1,0.3,0.1,0.5,0.3,0.6c0,0,0,0,0,0L46.4,388.7z"/>
<path class="st25" d="M122.8,245.4c9.1,12.3,20.1-2.4,20-5.7c-3.8-7.3-4.9-17-4.9-17l-17.6,9.8c0.1,0.5,0.3,1.1,0.4,1.6
	c0.7,2.6,1.3,5.2,1.7,7.8C122.6,243.1,122.7,244.2,122.8,245.4z"/>
<path class="st7" d="M122.4,241.9c9.4-3.8,14.1-15,14.1-15l-15.8,7.2C121.4,236.7,122,239.3,122.4,241.9z"/>
<path class="st27" d="M113.9,219.3c0,0-2.2-4.4-5.8-2.7s-1.7,14.1,5.4,12.6L113.9,219.3z"/>
<path class="st10" d="M113.4,238.3c-3.5,0.1-6.4-2.6-6.5-6.1c-0.1-3.5,2.6-6.4,6.1-6.5c3.5-0.1,6.4,2.6,6.5,6.1c0,0,0,0,0,0
	C119.6,235.2,116.9,238.2,113.4,238.3z M113,226.6c-3,0.1-5.3,2.6-5.2,5.5s2.6,5.3,5.5,5.2c3-0.1,5.3-2.6,5.2-5.5c0,0,0,0,0,0
	C118.5,228.8,116,226.5,113,226.6z"/>
<path class="st25" d="M138.4,224.1c-1.2,5.3-13.3,13.1-19,11.4c-3.5-1-6.8-3.6-9.4-10v-0.1c-0.2-0.4-0.3-0.8-0.4-1.1
	c-0.2-0.7-0.5-1.3-0.7-2c0-0.1-0.1-0.3-0.1-0.4c-0.1-0.4-0.2-0.8-0.3-1.1s-0.2-0.9-0.3-1.3c-1.2-6.6-2.7-14.1,2.8-19.2
	s14.8-7.6,21.2-2.4c0,0,4.8,4.6,6.1,14.3S139.3,220.3,138.4,224.1z"/>
<path class="st7" d="M126.9,197.3c0,0,4.6,10,7.9,11.7s5.2-3.8,5.2-3.8S131.6,190.1,126.9,197.3z"/>
<path class="st7" d="M113.9,199.5c0,0,7.1,7.8,14.3,4.8s1.3-8.6,1.3-8.6S114.8,191.8,113.9,199.5z"/>
<path class="st7" d="M115.8,198.5c0,0-2.2,11.7-9.8,10.8s1.3-13.3,6.3-13.6S115.8,198.5,115.8,198.5z"/>
<path class="st27" d="M122.7,228.5c-0.1,0-0.2,0-0.3,0c-0.2,0-0.4-0.2-0.4-0.4c0-0.2,0.2-0.4,0.4-0.4c0.9-0.1,1.6-0.6,2-1.3
	c0.1-0.2,0.3-0.3,0.5-0.2c0,0,0,0,0,0c0.2,0.1,0.3,0.3,0.2,0.5c0,0,0,0,0,0C124.6,227.7,123.7,228.3,122.7,228.5z"/>
<path class="st28" d="M119.5,226.6c-0.3,0-0.6,0.1-0.8,0.1c-0.2,0-0.4-0.2-0.4-0.4c0-0.2,0.2-0.4,0.4-0.4c0,0,0,0,0,0
	c2.6,0.1,4.8-2,4.9-4.6c0-0.2,0.2-0.4,0.4-0.4c0,0,0,0,0,0c0.2,0,0.4,0.2,0.4,0.4C124.2,224.1,122.2,226.3,119.5,226.6z"/>
<path class="st7" d="M118.9,222.4c0.2,0,0.5-0.1,0.7-0.1c0.2-0.1,0.4-0.3,0.3-0.6s-0.3-0.4-0.6-0.3l0,0c-0.7,0.2-1.5,0.1-2.1-0.3
	c1.1-2.1,1-7,1-7.2c0-0.3-0.3-0.4-0.5-0.4c-0.2,0-0.4,0.2-0.4,0.4c0,1.5-0.1,5.8-1.1,7.1c-0.1,0.2-0.1,0.4,0.1,0.6
	C117.1,222.2,118,222.5,118.9,222.4z"/>
<path class="st27" d="M110,225.4c-0.2-0.4-0.3-0.8-0.4-1.1c-0.2-0.7-0.5-1.3-0.7-2c0-0.1-0.1-0.3-0.1-0.4l0.3-0.1
	c2.5-0.5,4.7,0,4.9,1S112.4,224.9,110,225.4z"/>
<path class="st27" d="M133.4,218.7c0.2,1-1.7,2.2-4.2,2.7s-4.7,0-4.9-1s1.7-2.2,4.2-2.7S133.2,217.7,133.4,218.7z"/>
<path class="st10" d="M118.4,216.1c-0.2-3.4,2.3-6.3,5.7-6.6c3.4-0.2,6.3,2.3,6.6,5.7c0.2,3.4-2.3,6.3-5.7,6.6c0,0,0,0,0,0
	C121.6,222,118.7,219.5,118.4,216.1z M119.3,216c0.2,2.9,2.7,5.1,5.6,4.9c2.9-0.2,5.1-2.7,4.9-5.6c-0.2-2.9-2.7-5.1-5.6-4.9
	C121.3,210.6,119.1,213.1,119.3,216C119.3,216,119.3,216,119.3,216L119.3,216z"/>
<path class="st10" d="M104.5,218.9c-0.2-3.4,2.3-6.3,5.7-6.6c3.4-0.2,6.3,2.3,6.6,5.7c0.2,3.4-2.3,6.3-5.7,6.6c0,0,0,0,0,0
	C107.7,224.8,104.8,222.3,104.5,218.9z M105.4,218.8c0.2,2.9,2.7,5.1,5.6,4.9c2.9-0.2,5.1-2.7,4.9-5.6c-0.2-2.9-2.7-5.1-5.6-4.9
	C107.4,213.4,105.2,215.9,105.4,218.8z"/>
<path class="st10" d="M116.7,217.9c0.4-0.7,1.4-0.9,2.1-0.5l0.4-0.8c-1.1-0.7-2.6-0.3-3.2,0.8L116.7,217.9z"/>
<path class="st10" d="M130,213.4c0.2,0,0.4-0.1,0.5-0.3c0.1-0.1,0.9-1,5.2-2c0.3-0.1,0.5-0.5,0.4-0.8c-0.1-0.3-0.4-0.4-0.7-0.4
	c-4.9,1.1-5.8,2.3-6,2.5c-0.2,0.3-0.1,0.7,0.2,0.8c0,0,0,0,0,0C129.7,213.4,129.8,213.4,130,213.4z"/>
<path class="st10" d="M105,219.3c0.1,0,0.2,0,0.3-0.1c0.7-0.5,1.5-0.7,2.3-0.9c0.2,0,0.4-0.3,0.4-0.5c0,0,0,0,0,0
	c0-0.2-0.3-0.4-0.5-0.4c-1,0.1-2,0.5-2.8,1.1c-0.2,0.2-0.2,0.4-0.1,0.6C104.7,219.2,104.8,219.3,105,219.3z"/>
<path class="st7" d="M119.7,207.7c1-1.4,2.7-2.2,4.4-2.1c1.6,0.1,1.6,1.6-0.1,1.9c-1.1,0.1-2.1,0.5-2.9,1.2c-0.3,0.3-0.9,0.3-1.2,0
	C119.6,208.5,119.5,208.1,119.7,207.7z"/>
<path class="st7" d="M112.8,209.3c-1.5-0.9-3.3-0.9-4.8-0.2c-1.4,0.7-0.8,2.1,0.9,1.7c1-0.3,2.1-0.3,3.2-0.1
	c0.4,0.2,0.9,0.1,1.1-0.3C113.4,210,113.3,209.5,112.8,209.3z"/>
<path class="st25" d="M135.6,211.3c0,0,1.6-4.2,5.8-3.2s4.8,15-3.2,14.8L135.6,211.3z"/>
<path class="st10" d="M143.5,219.4c-0.2,0.3-0.3,0.6-0.5,0.9c2.9,0.3,5.1,3,4.8,5.9c-0.3,2.9-3,5.1-5.9,4.8c-2.9-0.3-5.1-3-4.8-5.9
	c0.2-1.7,1.1-3.2,2.6-4c1.1-0.5,1.2-1,1.1-1.5c-3.4,0.9-5.4,4.3-4.5,7.7c0.9,3.4,4.3,5.4,7.7,4.5c2.8-0.8,4.8-3.4,4.7-6.3
	C148.6,222.4,146.4,220,143.5,219.4z"/>
<path class="st7" d="M138.3,217.3c0,0.2,0.1,0.4,0.3,0.4c0,0,0,0,0,0h0.1c0.2,0,0.3-0.2,0.3-0.3c0.1-0.9,0.4-1.9,0.9-2.7
	c0.9,0.6,1.6,1.1,1.6,1.1c0.1,0.1,0.2,0.1,0.3,0.1c0.1,0,0.2-0.1,0.2-0.1c0.1-0.2,0.1-0.4-0.1-0.5c0,0,0,0,0,0c0,0-0.7-0.6-1.6-1.1
	c0.5-0.7,1.3-1.3,2.1-1.6c0.2-0.1,0.3-0.3,0.2-0.5c-0.1-0.2-0.3-0.3-0.5-0.2c0,0,0,0,0,0C138.7,213.1,138.3,217.2,138.3,217.3z"/>
<path class="st7" d="M123.7,215.4c0.2,0.9-0.1,1.7-0.6,1.8s-1.1-0.5-1.2-1.4s0.1-1.7,0.6-1.8S123.5,214.5,123.7,215.4z"/>
<path class="st7" d="M113.7,217.6c0.2,0.9-0.1,1.7-0.6,1.8s-1.1-0.5-1.2-1.4s0.1-1.7,0.6-1.8S113.5,216.7,113.7,217.6z"/>
<path class="st11" d="M87.3,332.2l73.4,7.9c0.2,0,0.3-0.1,0.3-0.3l0,0c0.2-2.3-1.4-4.3-3.7-4.6l-69.5-7.5c-0.2,0-0.3,0.1-0.3,0.3
	c0,0,0,0,0,0l-0.4,3.8C87,332,87.1,332.2,87.3,332.2z"/>
<path class="st7" d="M67.1,289l5,39.7c0.1,1,1,1.9,2,2l56.4,6.1c1.3,0.1,2.4-0.8,2.5-2c0-0.2,0-0.4,0-0.5l-5-39.7c-0.1-1-1-1.9-2-2
	l-56.4-6.1c-1.3-0.1-2.4,0.8-2.5,2C67.1,288.7,67.1,288.8,67.1,289z"/>
<path class="st11" d="M103.8,312.4c-0.4,3.5-6.8,7.2-6.8,7.2s-6.4-5.1-6.8-8.6c-0.5-3.9,3.9-4.6,6.8-1.4
	C99.8,306.9,104.3,308.6,103.8,312.4z"/>
<path class="st11" d="M123.8,292.3l5.1,44.3l1.6,0.2c1.3,0.1,2.4-0.8,2.5-2c0-0.2,0-0.4,0-0.5l-5-39.7c-0.1-1-1-1.9-2-2L123.8,292.3
	z"/>
<path class="st25" d="M100.3,364.8c0,0,6-1,7.9-2.9l3.9,12.5l-14.4,3C97.8,377.4,97.9,366.8,100.3,364.8z"/>
<path class="st5" d="M65.2,395.4L83.8,354c0.9,0,1.7,0.1,2.5,0.5c3.6,1.3,8.7,4.9,12,7.1l1.1,0.7c0.4,0.3,0.9,0.5,1.4,0.8
	c2.9,1.3,1.4,2.2,1.4,2.2c-6,2.3-2.1,11.2-5.4,13.1c0,0-1.4,0.8-5.8,2.8s-8.9,6.7-13,10.5c-5.3,5-8.7,5.6-10.6,5.1
	C66.5,396.6,65.7,396.1,65.2,395.4z"/>
<path class="st10" d="M97.8,376c0,0,1.7,1.1,0.7,2.7s-3.6,0.8-3.6,0.8S92.6,378,97.8,376z"/>
<path class="st10" d="M89.7,373.8c0.1-0.4,0.5-0.6,0.8-0.5c0,0,0,0,0,0c2.4,0.5,4.6,2,5.9,4.1c0.2,0.3,0.1,0.8-0.2,1s-0.8,0.1-1-0.2
	c0,0,0-0.1-0.1-0.1c-1.1-1.8-2.9-3-4.9-3.4C89.9,374.5,89.7,374.2,89.7,373.8z"/>
<path class="st10" d="M93.3,383.6c0-0.2,0.1-0.3,0.3-0.4c1-0.7,1.7-3.2,1.9-4.6c0.1-0.4,0.4-0.6,0.8-0.6s0.6,0.4,0.6,0.8
	c-0.1,0.4-0.7,4.3-2.4,5.6c-0.3,0.2-0.7,0.2-1-0.1c0,0,0,0,0,0C93.3,384,93.2,383.8,93.3,383.6z"/>
<path class="st10" d="M97.1,378.5l0.4-0.3c0.2-0.2,0.6-0.4,0.9-0.7c0.1-0.1,0.2-0.1,0.2-0.2c0.9-0.7,1.7-1.5,2.4-2.4
	c0.6-0.7,1-1.5,1.2-2.3c0,0,0,0,0,0c0.2-0.8,0-1.7-0.4-2.3c-0.4-0.7-1.2-1.1-2-1h-0.1c-0.6,0.1-1.1,0.3-1.6,0.7
	c-0.9,0.8-1.6,1.8-2,3c-0.4,1-0.7,2-0.9,3c0,0.1,0,0.2-0.1,0.3c-0.1,0.4-0.2,0.9-0.2,1.3c0,0.1,0,0.1,0,0.2h1.5l0,0l0,0l0.3,0.4
	L97.1,378.5z M97.4,374.2c0.1-0.3,0.2-0.5,0.3-0.8c0.6-1.8,1.6-2.6,2.3-2.7h0.1c0.2,0,0.4,0.1,0.5,0.3c0.2,0.3,0.3,0.8,0.2,1.2l0,0
	c-0.1,0.3-0.2,0.6-0.4,0.9c-0.3,0.5-0.7,1-1.1,1.4c-0.5,0.5-1,1-1.6,1.5l0,0c-0.4,0.4-0.8,0.7-1.2,0.9c0-0.1,0.1-0.3,0.1-0.5
	C96.9,375.7,97.1,375,97.4,374.2z"/>
<path class="st10" d="M95.5,378.9l1.5-0.3c0.3,1.5,1.8,3.2,2.8,3.3c0.2,0,0.6,0,0.9-0.6c0.2-0.2,0.2-0.6,0.1-0.8
	c-0.4-0.8-2.2-1.5-3.3-1.7l0.3-1.5c0.3,0.1,3.5,0.7,4.4,2.5c0.3,0.7,0.3,1.5-0.1,2.2c-0.4,1-1.4,1.5-2.4,1.4
	C97.7,383.1,95.9,380.8,95.5,378.9z"/>
<path class="st6" d="M65.2,395.4L83.8,354c0.9,0,1.7,0.1,2.5,0.5l-19,42.2C66.5,396.6,65.7,396.1,65.2,395.4z"/>
<path class="st6" d="M81.9,358.3l0.6-1.2c1.1,2.4,3.1,4.3,5.6,5.2c3.4,1.2,7.1,1,10.2-0.6l1.1,0.7c-3.6,2-7.8,2.4-11.7,1
	C85.2,362.4,83.2,360.6,81.9,358.3z"/>
<path class="st10" d="M88.8,379.3c0.2-0.4,0.6-0.5,1-0.4c0.3,0.1,0.5,0.5,0.4,0.8l-0.5,2.9c-0.1,0.4-0.5,0.7-0.9,0.6
	c-0.4-0.1-0.7-0.5-0.6-0.9c0,0,0,0,0,0l0.5-2.9C88.8,379.5,88.8,379.4,88.8,379.3z"/>
<path class="st10" d="M92.1,377.8c0.2-0.4,0.6-0.5,1-0.4c0.3,0.1,0.5,0.5,0.4,0.8l-0.5,2.9c-0.1,0.4-0.5,0.7-0.9,0.6c0,0,0,0,0,0
	c-0.4-0.1-0.7-0.5-0.6-0.9l0.5-2.9C92.1,377.9,92.1,377.8,92.1,377.8z"/>
<path class="st10" d="M86.2,381.2c0.1-0.4,0.6-0.6,1-0.4c0.3,0.1,0.5,0.5,0.5,0.9l-0.5,2.9c-0.1,0.4-0.5,0.7-0.9,0.6c0,0,0,0,0,0
	c-0.4-0.1-0.7-0.5-0.6-0.9l0.5-2.9C86.1,381.4,86.1,381.3,86.2,381.2z"/>
<path class="st10" d="M83.6,383.2c0.2-0.4,0.6-0.5,1-0.4c0.3,0.1,0.5,0.5,0.4,0.8l-0.5,2.9c-0.1,0.4-0.5,0.7-0.9,0.6
	c-0.4-0.1-0.7-0.5-0.6-0.9l0.5-2.9C83.5,383.3,83.5,383.2,83.6,383.2z"/>
<path class="st10" d="M81,385.4c0.1-0.4,0.6-0.6,1-0.4c0.3,0.1,0.5,0.5,0.5,0.9l-0.5,2.9c-0.1,0.4-0.5,0.7-0.9,0.6c0,0,0,0,0,0
	c-0.4-0.1-0.7-0.5-0.6-0.9l0.5-2.9C80.9,385.5,80.9,385.5,81,385.4z"/>
<path class="st10" d="M78.4,387.9c0.2-0.4,0.6-0.5,1-0.4c0.3,0.1,0.5,0.5,0.4,0.8l-0.5,2.9c-0.1,0.4-0.5,0.7-0.9,0.6
	c-0.4-0.1-0.7-0.4-0.6-0.8c0,0,0,0,0,0l0.5-2.9C78.4,388.1,78.4,388,78.4,387.9z"/>
<path class="st9" d="M178,317.4c0,0,16.7-9,26.4-2c17.7,12.8-12.3,37.3-46.7,49.3S112.1,375,112.1,375s-7.5-2.1-4.8-14.2
	c0,0,19.8-7.5,30.1-15.4S154.8,327.8,178,317.4z"/>
<path class="st26" d="M116.3,357.8c0.1,0,0.2,0,0.2-0.1c0.2-0.1,17.2-9.7,24.3-15.5c5.7-4.6,18.1-13.4,18.2-13.5
	c0.2-0.2,0.3-0.5,0.1-0.7c-0.2-0.2-0.5-0.3-0.7-0.1l0,0c-0.1,0.1-12.6,8.8-18.3,13.5c-7,5.7-24,15.3-24.1,15.4
	c-0.2,0.1-0.3,0.4-0.2,0.7c0,0,0,0,0,0C115.9,357.7,116.1,357.8,116.3,357.8z"/>
<path class="st26" d="M108.7,364.3c7.2-1.7,21.9-8.5,39.3-18c13-7.1,28-16.3,30.2-19.4c1.2-1.7,1.5-3.1,0.9-4.2
	c-0.9-1.6-3.5-1.7-4.6-1.7c-0.3,0-0.5,0.2-0.5,0.5c0,0,0,0,0,0.1l0,0c0,0.3,0.2,0.5,0.5,0.5c1.1,0,3.2,0.2,3.7,1.2
	c0.5,0.8-0.2,2.1-0.9,3c-1.8,2.6-14.3,10.6-29.9,19.1c-13.4,7.4-30.6,15.9-39,17.9L108.7,364.3z"/>
<path class="st26" d="M110,359.2c0.8,6.4,2.5,12.1,6.1,16.6c0,0-3.1,2.2-5.9,0.6c-2.1-1.2-6.3-11.1-4.7-16.5
	C107.3,359,108.8,358.6,110,359.2z"/>
<line class="st29" x1="118.6" y1="324.3" x2="118.6" y2="317.6"/>
<path class="st25" d="M187.1,305c-0.1-1.5-0.3-2.9-0.5-4.2c-0.4-2.7-0.9-5.2-1.5-7.7s-1.2-4.9-1.9-7.2s-1.4-4.7-2.1-7
	c-1.5-4.6-3.2-9.1-4.9-13.5c-0.9-2.2-1.8-4.4-2.7-6.6c-0.5-1.1-0.9-2.2-1.4-3.3l-0.7-1.6L171,253l-0.4-0.9
	c-2.5-5.2-8.7-7.4-13.9-4.9c-4.8,2.3-7.1,7.9-5.3,12.9l0.1,0.1l2.3,6.3c0.8,2.1,1.6,4.2,2.3,6.4c1.5,4.2,3,8.5,4.4,12.7
	s2.7,8.4,3.8,12.5c0.3,1,0.5,2,0.8,3s0.4,2,0.6,2.9c0.1,0.5,0.2,0.9,0.2,1.4c-0.7,0.2-1.4,0.4-2.1,0.6c-2,0.5-4.2,1-6.3,1.5
	s-4.4,0.9-6.6,1.3c-4.4,0.8-8.9,1.6-13.4,2.4l-6.8,1.2l-0.5,0.1c0.6,5.3,1.5,10.5,1.9,15.8c2.3,0,4.7-0.1,7-0.1
	c4.7-0.1,9.4-0.4,14.2-0.8c2.4-0.2,4.8-0.4,7.2-0.7s4.9-0.6,7.4-1c1.3-0.2,2.5-0.5,3.9-0.8s2.7-0.6,4.2-1.1c0.8-0.3,1.6-0.6,2.6-1
	c0.5-0.2,1.1-0.5,1.6-0.8c0.7-0.4,1.4-0.9,2.1-1.4c0.2-0.2,0.4-0.3,0.6-0.5l0.3-0.3l0.4-0.4l0.2-0.2l0.1-0.1l0.1-0.1l0.4-0.5
	c0.1-0.1,0.3-0.4,0.4-0.6l0.2-0.3l0.2-0.3c0.1-0.2,0.3-0.5,0.4-0.8l0.1-0.2l0.1-0.2c0.1-0.1,0.1-0.3,0.2-0.5l0.2-0.5
	c0.1-0.1,0.1-0.3,0.2-0.5l0.1-0.5l0.1-0.3v-0.2l0.2-0.9c0-0.1,0.1-0.3,0.1-0.4l0.1-0.4c0-0.3,0.1-0.5,0.1-0.8l0.1-0.7v-0.4v-0.3
	C187.2,308.2,187.2,306.6,187.1,305z"/>
<path class="st27" d="M177.3,309.8c-0.1,0-0.2-0.1-0.3-0.1c-3.9-3.6-10.3-3.7-10.3-3.7c-0.3,0-0.5-0.2-0.5-0.5s0.2-0.5,0.5-0.5
	c0.3,0,6.8,0,11,3.9c0.2,0.2,0.2,0.5,0,0.7c0,0,0,0,0,0C177.5,309.8,177.4,309.8,177.3,309.8z"/>
<path class="st27" d="M168.5,306.2c-0.3,0-0.5-0.2-0.5-0.5c0-0.2,0.1-0.3,0.2-0.4c2.5-1.5,7.4-0.8,7.6-0.7c0.3,0,0.5,0.3,0.4,0.6
	c0,0.3-0.3,0.5-0.6,0.4c0,0,0,0,0,0c0,0-4.7-0.7-6.9,0.6C168.7,306.1,168.6,306.2,168.5,306.2z"/>
<path class="st30" d="M15.3,259.5v17.8c0,2.4,1.9,4.3,4.3,4.3c0,0,0,0,0,0h32.3l9.8,3.5c0.6,0.3,1.4-0.1,1.6-0.7
	c0.1-0.3,0.1-0.6,0-0.9l-3.7-9.5v-14.4c0-2.4-1.9-4.3-4.3-4.3c0,0,0,0,0,0H19.6C17.2,255.2,15.3,257.2,15.3,259.5
	C15.3,259.5,15.3,259.5,15.3,259.5z"/>
<path class="st31" d="M43.4,268.9c0,1.7,1.4,3.1,3.1,3.1s3.1-1.4,3.1-3.1c0-1.7-1.4-3.1-3.1-3.1c0,0,0,0,0,0
	C44.8,265.9,43.4,267.2,43.4,268.9z"/>
<path class="st31" d="M33.6,268.9c0,1.7,1.4,3.1,3.1,3.1c1.7,0,3.1-1.4,3.1-3.1c0-1.7-1.4-3.1-3.1-3.1c0,0,0,0,0,0
	C35,265.9,33.6,267.2,33.6,268.9z"/>
<path class="st31" d="M23.9,268.9c0,1.7,1.4,3.1,3.1,3.1c1.7,0,3.1-1.4,3.1-3.1c0-1.7-1.4-3.1-3.1-3.1c0,0,0,0,0,0
	C25.2,265.9,23.9,267.2,23.9,268.9z"/>
<path class="st5" d="M268,338.8h1.5v-2.3l-58,0.1c-3.8-0.4-7.3,2.3-7.7,6.2c-0.4,3.8,2.3,7.3,6.2,7.7c0.5,0.1,1.1,0.1,1.6,0
	l57.9-0.1v-2H268L268,338.8z"/>
<path class="st10" d="M268.5,338.8v9.6l-53.2,0.1c-2.6,0-4.7-2.2-4.7-4.8c0,0,0,0,0,0c0-1.3,0.5-2.5,1.4-3.4
	c0.9-0.9,2.1-1.4,3.3-1.4L268.5,338.8z"/>
<path class="st8" d="M268.5,341.2v1.5l-51.8,0.1c-0.4,0-0.7-0.3-0.7-0.7l0,0l0,0c0-0.4,0.3-0.7,0.7-0.7l0,0L268.5,341.2z"/>
<path class="st8" d="M268.5,344.9v1.5l-51.8,0.1c-0.4,0-0.7-0.3-0.7-0.7l0,0c0-0.4,0.3-0.7,0.7-0.7L268.5,344.9z"/>
<path class="st4" d="M262.9,324.9h1.5v-2.3l-58,0.1c-3.8-0.4-7.3,2.3-7.7,6.2c-0.4,3.8,2.3,7.3,6.2,7.7c0.5,0.1,1.1,0.1,1.6,0
	l58-0.1v-2h-1.5L262.9,324.9z"/>
<path class="st10" d="M263.3,324.9v9.6l-53.2,0.1c-2.6,0-4.7-2.2-4.7-4.8c0,0,0,0,0,0c0-1.3,0.5-2.5,1.4-3.4
	c0.9-0.9,2.1-1.4,3.3-1.4L263.3,324.9z"/>
<path class="st8" d="M263.3,327.3v1.5l-51.8,0.1c-0.4,0-0.7-0.3-0.7-0.7l0,0l0,0c0-0.4,0.3-0.7,0.7-0.7L263.3,327.3z"/>
<path class="st8" d="M263.3,330.9v1.5l-51.8,0.1c-0.4,0-0.7-0.3-0.7-0.7l0,0c0-0.4,0.3-0.7,0.7-0.7L263.3,330.9z"/>
<path class="st9" d="M273,310.9h1.5v-2.3l-58,0.1c-3.8-0.4-7.3,2.3-7.7,6.2c-0.4,3.8,2.3,7.3,6.2,7.7c0.5,0.1,1.1,0.1,1.6,0l58-0.1
	v-2H273L273,310.9z"/>
<path class="st10" d="M273.4,310.9v9.6l-53.2,0.1c-2.6,0-4.7-2.2-4.7-4.8c0-1.3,0.5-2.5,1.4-3.4c0.9-0.9,2.1-1.4,3.3-1.4
	L273.4,310.9z"/>
<path class="st8" d="M273.4,313.4v1.5l-51.8,0.1c-0.4,0-0.7-0.3-0.7-0.7l0,0c0-0.4,0.3-0.7,0.7-0.7L273.4,313.4z"/>
<path class="st8" d="M273.4,317v1.5l-51.8,0.1c-0.4,0-0.7-0.3-0.7-0.7l0,0c0-0.4,0.3-0.7,0.7-0.7L273.4,317z"/>
<rect x="216.5" y="272.8" transform="matrix(0.9885 -0.1514 0.1514 0.9885 -41.1687 36.4315)" class="st9" width="4.2" height="31.5"/>
<polygon class="st25" points="218.3,272.6 214.2,273.3 215.1,270.1 215.6,268.5 216.5,269.9 "/>
<rect x="218.7" y="301.8" transform="matrix(0.9885 -0.1514 0.1514 0.9885 -43.3259 36.9336)" class="st7" width="4.2" height="2.3"/>
<path class="st32" d="M223.1,305.6l-3.6,0.5c-0.2,0-0.3-0.1-0.3-0.2l-0.2-1.5l4.1-0.6l0.2,1.5C223.3,305.4,223.2,305.6,223.1,305.6
	C223.1,305.6,223.1,305.6,223.1,305.6z"/>
<polygon class="st7" points="216.5,269.9 215.1,270.1 215.6,268.5 "/>
<rect x="218.5" y="300.2" transform="matrix(0.9885 -0.1514 0.1514 0.9885 -43.034 36.8687)" class="st26" width="4.2" height="1.6"/>
<path class="st26" d="M215.4,274.6l3.5,23c0,0.2,0.2,0.3,0.4,0.3l0,0c0.2,0,0.3-0.2,0.3-0.4l-3.5-23c0-0.2-0.2-0.3-0.4-0.3
	c0,0,0,0,0,0l0,0C215.5,274.3,215.4,274.5,215.4,274.6z"/>
<path class="st26" d="M217.1,274.4l3.5,23c0,0.2,0.2,0.3,0.3,0.3c0,0,0,0,0,0l0,0c0.2,0,0.3-0.2,0.3-0.4l-3.5-23
	c0-0.2-0.2-0.3-0.4-0.3l0,0C217.1,274.1,217,274.2,217.1,274.4z"/>
<rect x="221.6" y="272.8" transform="matrix(1 -3.316120e-03 3.316120e-03 1 -0.9555 0.7435)" class="st4" width="4.2" height="31.5"/>
<polygon class="st25" points="225.8,272.8 221.6,272.8 222.9,269.8 223.7,268.3 224.4,269.8 "/>
<rect x="221.7" y="302" transform="matrix(1 -3.316120e-03 3.316120e-03 1 -1.0039 0.7438)" class="st7" width="4.2" height="2.3"/>
<path class="st32" d="M225.6,306.1H222c-0.2,0-0.3-0.1-0.3-0.3v-1.5h4.2v1.5C225.9,305.9,225.7,306.1,225.6,306.1z"/>
<polygon class="st7" points="224.4,269.8 222.9,269.8 223.7,268.3 "/>
<rect x="221.7" y="300.3" transform="matrix(1 -3.316120e-03 3.316120e-03 1 -0.9974 0.7437)" class="st2" width="4.2" height="1.6"/>
<path class="st2" d="M222.6,274.4l0.1,23.3c0,0.2,0.1,0.3,0.3,0.3l0,0c0.2,0,0.3-0.1,0.3-0.3l0,0l-0.1-23.3c0-0.2-0.1-0.3-0.3-0.3h0
	l0,0C222.8,274,222.6,274.2,222.6,274.4C222.6,274.3,222.6,274.3,222.6,274.4z"/>
<path class="st2" d="M224.3,274.3l0.1,23.3c0,0.2,0.1,0.3,0.3,0.3h0l0,0c0.2,0,0.3-0.1,0.3-0.3l-0.1-23.3c0-0.2-0.1-0.3-0.3-0.3l0,0
	C224.4,274,224.3,274.2,224.3,274.3z"/>
<rect x="213" y="286.4" transform="matrix(0.1407 -0.99 0.99 0.1407 -89.1463 474.338)" class="st6" width="31.5" height="4.2"/>
<polygon class="st25" points="233,273.2 228.8,272.6 230.6,269.9 231.5,268.5 232,270.1 "/>
<rect x="225.5" y="300.9" transform="matrix(0.1407 -0.99 0.99 0.1407 -105.2352 484.6663)" class="st7" width="2.3" height="4.2"/>
<path class="st32" d="M228,306.1l-3.6-0.5c-0.2,0-0.3-0.2-0.2-0.3l0.2-1.5l4.1,0.6l-0.2,1.5C228.3,306.1,228.2,306.2,228,306.1z"/>
<polygon class="st7" points="232,270.1 230.6,269.9 231.5,268.5 "/>
<rect x="226.1" y="298.9" transform="matrix(0.1407 -0.99 0.99 0.1407 -103.0542 483.2934)" class="st33" width="1.6" height="4.2"/>
<path class="st33" d="M229.6,274.3l-3.3,23.1c0,0.2,0.1,0.3,0.3,0.4l0,0c0.2,0,0.3-0.1,0.4-0.3l3.3-23.1c0-0.2-0.1-0.3-0.3-0.4l0,0
	C229.8,274,229.7,274.1,229.6,274.3C229.6,274.3,229.6,274.3,229.6,274.3z"/>
<path class="st33" d="M231.3,274.6l-3.3,23c0,0.2,0.1,0.3,0.3,0.4l0,0c0.2,0,0.3-0.1,0.4-0.3l3.3-23.1c0-0.2-0.1-0.3-0.3-0.4l0,0
	C231.4,274.2,231.3,274.4,231.3,274.6C231.3,274.6,231.3,274.6,231.3,274.6z"/>
<polygon class="st5" points="235,285.6 234.6,288.6 234.5,289.8 232.4,308.7 214.7,308.7 212.8,291.9 212.5,288.6 212.1,285.6 "/>
<polygon class="st6" points="234.6,288.6 234.5,289.8 212.8,291.9 212.5,288.6 "/>
<polygon class="st5" points="235.7,288.6 211.4,288.6 211,284.2 236.2,284.2 "/>
<image style="overflow:visible;" width="555" height="112" xlink:href="9CEE2AA8.png"  transform="matrix(0.1512 0 0 0.1512 271.734 131.4489)">
</image>
</svg>
